{"glyphs":{"0":{"ha":758,"x_min":56,"x_max":702,"o":"m 702 505 q 623 106 702 233 q 379 -21 544 -21 q 134 109 212 -21 q 56 504 56 238 q 135 904 56 777 q 379 1030 214 1030 q 624 899 546 1030 q 702 505 702 768 m 528 197 q 556 324 548 248 q 564 505 564 401 q 556 686 564 609 q 528 813 548 762 q 472 891 507 865 q 379 918 436 918 q 287 891 323 918 q 229 812 250 865 q 201 682 209 760 q 194 504 194 603 q 200 327 194 398 q 229 199 207 256 q 284 119 248 147 q 379 91 321 91 q 472 118 435 91 q 528 197 508 144 z "},"1":{"ha":758,"x_min":153,"x_max":646,"o":"m 646 0 l 153 0 l 153 103 l 336 103 l 336 780 l 153 780 l 153 872 q 306 902 257 872 q 361 1013 355 931 l 467 1013 l 467 103 l 646 103 l 646 0 z "},"2":{"ha":758,"x_min":74,"x_max":697,"o":"m 697 0 l 74 0 l 74 142 q 201 264 141 205 q 317 385 260 322 q 475 588 433 512 q 517 746 517 665 q 504 820 517 788 q 467 873 490 852 q 412 903 444 893 q 344 913 381 913 q 271 904 308 913 q 200 882 234 895 q 145 854 172 870 q 102 826 119 838 l 95 826 l 95 970 q 212 1011 137 991 q 354 1031 287 1031 q 575 956 495 1031 q 655 753 655 881 q 641 644 655 694 q 603 551 627 593 q 543 463 578 507 q 468 378 507 420 q 326 234 404 309 q 201 116 248 159 l 697 116 l 697 0 z "},"3":{"ha":758,"x_min":66,"x_max":680,"o":"m 347 913 q 273 905 310 913 q 201 882 237 896 q 145 853 169 868 q 102 825 121 838 l 94 825 l 94 968 q 213 1011 138 992 q 357 1031 289 1031 q 477 1017 426 1031 q 570 974 528 1003 q 637 895 614 941 q 660 787 660 849 q 605 641 660 704 q 473 561 550 578 l 473 551 q 542 530 505 545 q 609 486 578 515 q 660 411 640 457 q 680 300 680 366 q 656 174 680 231 q 590 73 633 117 q 484 3 546 26 q 342 -21 421 -21 q 191 -3 266 -21 q 66 41 117 16 l 66 184 l 75 184 q 190 125 118 153 q 334 96 262 96 q 417 110 375 96 q 486 153 458 123 q 528 218 513 182 q 542 309 542 254 q 526 399 542 364 q 481 455 510 435 q 414 483 453 475 q 330 491 375 491 l 272 491 l 272 604 l 317 604 q 466 647 408 604 q 523 773 523 690 q 508 839 523 811 q 470 882 493 866 q 413 907 444 900 q 347 913 382 913 z "},"4":{"ha":758,"x_min":27,"x_max":724,"o":"m 724 347 l 604 347 l 604 0 l 473 0 l 473 347 l 27 347 l 27 490 l 479 1010 l 604 1010 l 604 456 l 724 456 l 724 347 m 473 456 l 473 850 l 133 456 l 473 456 z "},"5":{"ha":758,"x_min":84,"x_max":686,"o":"m 686 321 q 662 186 686 248 q 597 78 639 123 q 491 5 554 32 q 349 -21 427 -21 q 206 -5 276 -21 q 84 37 136 11 l 84 180 l 94 180 q 138 154 109 168 q 203 126 168 139 q 276 104 243 112 q 351 96 309 96 q 430 111 391 96 q 496 158 469 125 q 535 228 522 188 q 548 322 548 268 q 533 410 548 376 q 491 467 519 445 q 419 504 462 493 q 325 514 377 514 q 214 506 270 514 q 125 490 159 497 l 125 1010 l 680 1010 l 680 891 l 256 891 l 256 623 q 304 627 281 625 q 348 628 328 628 q 479 615 425 628 q 582 565 532 602 q 659 470 632 527 q 686 321 686 413 z "},"6":{"ha":758,"x_min":58,"x_max":713,"o":"m 713 328 q 687 184 713 250 q 618 74 661 118 q 516 3 572 27 q 392 -21 460 -21 q 268 2 323 -21 q 169 71 212 25 q 87 217 117 125 q 58 444 58 309 q 85 681 58 575 q 168 866 112 787 q 310 986 223 943 q 511 1029 397 1029 q 574 1025 545 1029 q 625 1015 603 1022 l 625 885 l 619 885 q 566 904 601 895 q 492 912 532 912 q 289 827 366 912 q 197 574 211 742 q 296 627 245 608 q 407 645 347 645 q 510 633 466 645 q 603 585 555 621 q 686 479 659 543 q 713 328 713 414 m 575 322 q 559 427 575 385 q 506 498 543 469 q 446 527 479 520 q 377 534 412 534 q 285 519 330 534 q 197 478 240 505 q 195 449 195 463 q 194 414 194 435 q 215 245 194 309 q 266 147 235 180 q 326 102 295 115 q 393 90 357 90 q 525 148 474 90 q 575 322 575 206 z "},"7":{"ha":758,"x_min":67,"x_max":708,"o":"m 708 859 l 271 0 l 127 0 l 589 891 l 67 891 l 67 1010 l 708 1010 l 708 859 z "},"8":{"ha":758,"x_min":50,"x_max":708,"o":"m 550 774 q 505 888 550 842 q 378 933 459 933 q 257 892 304 933 q 210 783 210 852 q 234 698 210 732 q 307 635 258 663 q 371 604 328 624 q 449 572 414 583 q 529 665 508 617 q 550 774 550 713 m 569 269 q 545 368 569 331 q 450 442 520 404 q 389 470 427 455 q 302 505 351 485 q 216 413 246 468 q 186 289 186 359 q 242 138 186 197 q 380 78 297 78 q 517 129 466 78 q 569 269 569 180 m 379 -23 q 242 -1 304 -23 q 137 64 180 22 q 72 160 94 104 q 50 279 50 216 q 94 430 50 361 q 221 539 138 498 l 221 543 q 111 638 146 587 q 75 767 75 690 q 161 957 75 881 q 379 1033 247 1033 q 600 961 517 1033 q 683 776 683 888 q 643 642 683 708 q 529 538 604 575 l 529 534 q 663 433 617 492 q 708 281 708 374 q 614 64 708 152 q 379 -23 520 -23 z "},"9":{"ha":758,"x_min":45,"x_max":701,"o":"m 564 595 q 545 763 564 698 q 493 863 526 827 q 433 907 463 895 q 366 920 402 920 q 233 860 282 920 q 183 687 183 800 q 199 582 183 623 q 252 511 216 541 q 311 483 278 490 q 380 475 343 475 q 474 491 424 475 q 562 531 524 506 q 563 558 562 541 q 564 595 564 574 m 45 682 q 71 824 45 760 q 140 935 96 888 q 243 1005 182 980 q 366 1030 304 1030 q 493 1007 436 1030 q 591 939 549 983 q 672 793 643 884 q 701 566 701 703 q 672 328 701 440 q 589 142 644 216 q 449 22 531 63 q 248 -20 368 -20 q 190 -17 220 -20 q 133 -5 159 -14 l 133 124 l 140 124 q 193 106 157 115 q 266 97 229 97 q 475 184 399 97 q 561 435 551 272 q 457 381 507 398 q 351 364 408 364 q 248 376 294 364 q 155 424 202 389 q 73 529 101 465 q 45 682 45 592 z "}," ":{"ha":434,"x_min":0,"x_max":0,"o":""},"!":{"ha":461,"x_min":155,"x_max":307,"o":"m 307 1010 l 288 278 l 175 278 l 155 1010 l 307 1010 m 300 0 l 161 0 l 161 143 l 300 143 l 300 0 z "},"\"":{"ha":557,"x_min":77,"x_max":480,"o":"m 480 1055 l 451 663 l 361 663 l 332 1055 l 480 1055 m 225 1055 l 196 663 l 106 663 l 77 1055 l 225 1055 z "},"#":{"ha":1010,"x_min":96,"x_max":914,"o":"m 914 632 l 715 632 l 653 377 l 835 377 l 835 286 l 629 286 l 558 0 l 471 0 l 542 286 l 359 286 l 288 0 l 200 0 l 271 286 l 96 286 l 96 377 l 295 377 l 357 632 l 176 632 l 176 724 l 381 724 l 452 1010 l 540 1010 l 469 724 l 652 724 l 723 1010 l 810 1010 l 739 724 l 914 724 l 914 632 m 630 633 l 444 633 l 380 376 l 566 376 l 630 633 z "},"$":{"ha":758,"x_min":72,"x_max":694,"o":"m 694 258 q 618 86 694 158 q 426 1 542 15 l 426 -245 l 349 -245 l 349 -3 q 201 14 275 -2 q 72 58 127 31 l 72 195 l 82 195 q 203 130 136 155 q 349 98 270 104 l 349 391 q 307 400 332 395 q 266 412 283 406 q 120 496 164 439 q 77 634 77 552 q 152 802 77 730 q 349 884 227 873 l 349 1069 l 426 1069 l 426 886 q 554 868 488 884 q 662 835 620 853 l 662 701 l 652 701 q 548 758 604 733 q 426 787 491 782 l 426 496 q 468 486 448 491 q 501 477 487 481 q 644 402 593 456 q 694 258 694 349 m 349 506 l 349 787 q 246 747 288 781 q 205 652 205 713 q 235 558 205 591 q 349 506 265 526 m 566 240 q 534 334 566 304 q 426 380 501 365 l 426 99 q 531 141 495 107 q 566 240 566 174 z "},"%":{"ha":1356,"x_min":69,"x_max":1286,"o":"m 547 730 q 486 504 547 577 q 309 430 425 430 q 130 505 191 430 q 69 729 69 579 q 131 955 69 881 q 309 1029 193 1029 q 487 954 427 1029 q 547 730 547 880 m 999 1010 l 470 0 l 358 0 l 887 1010 l 999 1010 m 1286 280 q 1225 54 1286 127 q 1048 -20 1164 -20 q 869 55 930 -20 q 808 279 808 130 q 870 505 808 431 q 1048 579 932 579 q 1226 505 1166 579 q 1286 280 1286 430 m 427 730 q 402 886 427 833 q 309 939 378 939 q 214 885 239 939 q 190 729 190 831 q 213 574 190 627 q 309 520 236 520 q 402 574 378 520 q 427 730 427 627 m 1166 280 q 1142 436 1166 383 q 1048 489 1118 489 q 954 435 978 489 q 929 279 929 382 q 952 124 929 178 q 1048 71 975 71 q 1142 124 1118 71 q 1166 280 1166 178 z "},"&":{"ha":936,"x_min":45,"x_max":980,"o":"m 980 0 l 806 0 l 668 144 q 526 18 599 56 q 361 -21 453 -21 q 135 61 224 -21 q 45 277 45 144 q 62 381 45 336 q 105 463 78 427 q 166 525 132 498 q 233 572 201 552 q 130 669 164 618 q 96 797 96 720 q 116 886 96 845 q 166 958 135 927 q 251 1010 199 990 q 364 1031 302 1031 q 548 971 477 1031 q 619 821 619 912 q 611 752 619 788 q 580 684 602 717 q 521 621 557 650 q 425 570 485 592 l 663 325 q 675 446 673 380 q 677 616 677 511 l 809 616 l 809 551 q 792 405 809 486 q 738 250 776 323 l 980 0 m 609 204 l 297 524 q 263 498 280 513 q 226 453 246 483 q 197 391 210 429 q 184 310 184 353 q 242 152 184 214 q 397 90 299 90 q 514 117 462 90 q 609 204 566 144 m 361 618 q 424 653 399 631 q 462 701 448 675 q 480 751 474 724 q 486 808 486 777 q 448 909 486 873 q 359 945 410 945 q 264 905 298 945 q 229 803 229 864 q 234 756 229 776 q 256 711 239 737 q 295 667 270 690 q 361 618 321 643 z "},"'":{"ha":293,"x_min":71,"x_max":222,"o":"m 222 1055 l 193 663 l 100 663 l 71 1055 l 222 1055 z "},"(":{"ha":532,"x_min":73,"x_max":481,"o":"m 481 -279 l 326 -279 q 141 18 208 -139 q 73 388 73 174 q 140 756 73 597 q 326 1055 207 915 l 481 1055 l 481 1048 q 377 934 427 999 q 284 783 327 869 q 218 600 243 700 q 193 388 193 499 q 217 176 193 272 q 284 -7 242 79 q 377 -158 325 -91 q 481 -273 429 -226 l 481 -279 z "},")":{"ha":532,"x_min":50,"x_max":458,"o":"m 458 388 q 391 20 458 178 q 205 -279 324 -139 l 50 -279 l 50 -273 q 155 -158 102 -226 q 248 -7 208 -90 q 314 177 290 80 q 339 388 339 275 q 314 600 339 500 q 248 783 289 699 q 154 935 206 867 q 50 1048 102 1002 l 50 1055 l 205 1055 q 391 757 323 915 q 458 388 458 599 z "},"*":{"ha":758,"x_min":76,"x_max":683,"o":"m 683 602 l 639 527 l 417 674 l 422 427 l 337 427 l 341 674 l 121 526 l 76 601 l 316 741 l 76 882 l 121 956 l 342 808 l 337 1055 l 422 1055 l 416 808 l 639 956 l 683 881 l 443 742 l 683 602 z "},"+":{"ha":1010,"x_min":106,"x_max":904,"o":"m 904 388 l 562 388 l 562 45 l 449 45 l 449 388 l 106 388 l 106 496 l 449 496 l 449 839 l 562 839 l 562 496 l 904 496 l 904 388 z "},",":{"ha":420,"x_min":50,"x_max":339,"o":"m 339 193 l 149 -251 l 50 -251 l 170 193 l 339 193 z "},"-":{"ha":505,"x_min":61,"x_max":444,"o":"m 444 380 l 61 380 l 61 503 l 444 503 l 444 380 z "},".":{"ha":420,"x_min":129,"x_max":291,"o":"m 291 0 l 129 0 l 129 193 l 291 193 l 291 0 z "},"/":{"ha":531,"x_min":-16,"x_max":494,"o":"m 494 1055 l 98 -220 l -16 -220 l 377 1055 l 494 1055 z "},":":{"ha":491,"x_min":165,"x_max":327,"o":"m 327 564 l 165 564 l 165 758 l 327 758 l 327 564 m 327 0 l 165 0 l 165 193 l 327 193 l 327 0 z "},";":{"ha":491,"x_min":83,"x_max":372,"o":"m 327 564 l 165 564 l 165 758 l 327 758 l 327 564 m 372 193 l 182 -251 l 83 -251 l 202 193 l 372 193 z "},"<":{"ha":1010,"x_min":136,"x_max":865,"o":"m 865 54 l 136 401 l 136 483 l 865 831 l 865 710 l 300 442 l 865 174 l 865 54 z "},"=":{"ha":1010,"x_min":130,"x_max":880,"o":"m 880 530 l 130 530 l 130 639 l 880 639 l 880 530 m 880 245 l 130 245 l 130 354 l 880 354 l 880 245 z "},">":{"ha":1010,"x_min":146,"x_max":874,"o":"m 874 401 l 146 54 l 146 174 l 711 442 l 146 710 l 146 831 l 874 483 l 874 401 z "},"?":{"ha":658,"x_min":74,"x_max":618,"o":"m 618 772 q 596 654 618 706 q 538 563 574 602 q 455 490 501 524 q 357 426 408 457 l 357 271 l 235 271 l 235 478 q 324 533 273 501 q 403 593 374 566 q 460 669 439 628 q 480 762 480 710 q 432 877 480 839 q 307 914 384 914 q 179 891 239 914 q 81 844 119 869 l 74 844 l 74 983 q 189 1016 119 1001 q 319 1030 258 1030 q 538 959 458 1030 q 618 772 618 888 m 368 0 l 229 0 l 229 143 l 368 143 l 368 0 z "},"@":{"ha":1263,"x_min":90,"x_max":1179,"o":"m 1179 450 q 1154 268 1179 355 q 1080 106 1128 180 l 794 106 l 777 185 q 693 124 732 146 q 589 101 655 101 q 418 185 485 101 q 352 428 352 269 q 434 676 352 587 q 621 765 515 765 q 705 753 669 765 q 776 720 740 741 l 776 753 l 884 753 l 884 182 l 1038 182 q 1075 307 1063 230 q 1086 446 1086 383 q 973 803 1086 667 q 648 938 860 938 q 317 792 448 938 q 186 437 186 646 q 313 75 186 214 q 645 -64 440 -64 q 761 -56 700 -64 q 876 -33 821 -49 l 876 -129 q 760 -148 819 -142 q 644 -153 701 -153 q 247 12 404 -153 q 90 439 90 176 q 252 859 90 688 q 648 1029 414 1029 q 1038 868 897 1029 q 1179 450 1179 707 m 774 277 l 774 628 q 705 656 736 648 q 638 665 673 665 q 515 607 562 665 q 468 430 468 550 q 503 264 468 321 q 616 206 538 206 q 697 226 657 206 q 774 277 738 245 z "},"A":{"ha":833,"x_min":-7,"x_max":840,"o":"m -7 0 l 334 1010 l 499 1010 l 840 0 l 698 0 l 606 282 l 220 282 l 129 0 l -7 0 m 569 397 l 413 873 l 258 397 l 569 397 z "},"B":{"ha":819,"x_min":102,"x_max":787,"o":"m 787 310 q 759 177 787 235 q 682 82 730 119 q 560 19 625 37 q 392 0 495 0 l 102 0 l 102 1010 l 370 1010 q 532 1003 478 1010 q 635 969 586 996 q 715 893 690 940 q 740 782 740 846 q 702 654 740 711 q 598 566 665 598 l 598 561 q 738 472 688 536 q 787 310 787 407 m 600 763 q 588 826 600 800 q 549 869 576 853 q 476 891 516 887 q 366 895 436 895 l 237 895 l 237 600 l 389 600 q 482 606 452 600 q 544 633 512 612 q 587 684 574 652 q 600 763 600 716 m 648 304 q 631 398 648 361 q 566 461 615 435 q 496 483 534 478 q 389 488 458 488 l 237 488 l 237 115 l 346 115 q 485 123 434 115 q 574 157 536 131 q 630 217 612 184 q 648 304 648 251 z "},"C":{"ha":834,"x_min":45,"x_max":811,"o":"m 497 -18 q 315 15 398 -18 q 172 114 232 48 q 78 278 111 180 q 45 504 45 376 q 77 725 45 631 q 171 889 109 819 q 314 992 231 957 q 499 1028 397 1028 q 594 1021 550 1028 q 677 1002 639 1013 q 744 976 709 991 q 811 943 778 961 l 811 781 l 800 781 q 755 820 783 797 q 687 865 727 843 q 603 900 648 886 q 498 913 557 913 q 376 887 433 913 q 275 809 318 861 q 208 680 232 758 q 184 504 184 602 q 210 325 184 400 q 278 199 235 250 q 377 123 320 149 q 498 98 434 98 q 606 112 556 98 q 694 148 655 126 q 758 191 731 169 q 801 229 785 213 l 811 229 l 811 68 q 748 39 778 53 q 677 11 719 24 q 595 -11 633 -3 q 497 -18 557 -18 z "},"D":{"ha":942,"x_min":102,"x_max":899,"o":"m 899 504 q 843 254 899 366 q 692 81 787 143 q 537 16 616 33 q 335 0 458 0 l 102 0 l 102 1010 l 332 1010 q 556 988 475 1010 q 694 930 637 967 q 845 759 791 865 q 899 504 899 652 m 759 506 q 720 705 759 623 q 606 833 682 787 q 491 880 552 866 q 339 895 430 895 l 237 895 l 237 115 l 339 115 q 496 130 429 115 q 618 182 563 144 q 724 309 688 230 q 759 506 759 388 z "},"E":{"ha":779,"x_min":102,"x_max":734,"o":"m 102 0 l 102 1010 l 734 1010 l 734 890 l 237 890 l 237 614 l 700 614 l 700 494 l 237 494 l 237 119 l 734 119 l 734 0 l 102 0 z "},"F":{"ha":724,"x_min":102,"x_max":707,"o":"m 707 890 l 237 890 l 237 606 l 687 606 l 687 486 l 237 486 l 237 0 l 102 0 l 102 1010 l 707 1010 l 707 890 z "},"G":{"ha":927,"x_min":45,"x_max":861,"o":"m 525 -20 q 329 13 418 -20 q 176 112 240 45 q 79 278 113 179 q 45 506 45 377 q 79 725 45 628 q 177 890 113 821 q 329 992 239 956 q 526 1028 419 1028 q 624 1021 577 1028 q 713 1000 671 1013 q 789 972 747 990 q 857 941 831 954 l 857 779 l 845 779 q 793 822 820 802 q 718 865 766 842 q 624 899 677 885 q 510 912 571 912 q 274 802 364 912 q 184 510 184 692 q 208 332 184 408 q 277 203 232 256 q 381 124 320 151 q 519 96 443 96 q 633 104 576 96 q 728 129 689 113 l 728 390 l 494 390 l 494 508 l 861 508 l 861 67 q 792 38 835 56 q 711 10 749 20 q 622 -12 662 -5 q 525 -20 582 -20 z "},"H":{"ha":938,"x_min":102,"x_max":836,"o":"m 836 0 l 701 0 l 701 494 l 237 494 l 237 0 l 102 0 l 102 1010 l 237 1010 l 237 614 l 701 614 l 701 1010 l 836 1010 l 836 0 z "},"I":{"ha":518,"x_min":63,"x_max":455,"o":"m 455 0 l 63 0 l 63 103 l 192 103 l 192 907 l 63 907 l 63 1010 l 455 1010 l 455 907 l 326 907 l 326 103 l 455 103 l 455 0 z "},"J":{"ha":578,"x_min":6,"x_max":483,"o":"m 483 262 q 402 58 483 130 q 184 -14 321 -14 q 97 -8 152 -14 q 6 5 43 -3 l 6 134 l 14 134 q 82 113 41 124 q 166 101 123 101 q 266 115 229 101 q 320 156 302 130 q 343 222 338 183 q 349 313 349 262 l 349 903 l 135 903 l 135 1010 l 483 1010 l 483 262 z "},"K":{"ha":817,"x_min":102,"x_max":838,"o":"m 838 0 l 664 0 l 296 470 l 237 404 l 237 0 l 102 0 l 102 1010 l 237 1010 l 237 545 l 650 1010 l 814 1010 l 396 559 l 838 0 z "},"L":{"ha":691,"x_min":102,"x_max":688,"o":"m 688 0 l 102 0 l 102 1010 l 237 1010 l 237 119 l 688 119 l 688 0 z "},"M":{"ha":1070,"x_min":102,"x_max":968,"o":"m 968 0 l 833 0 l 833 870 l 570 278 l 489 278 l 228 870 l 228 0 l 102 0 l 102 1010 l 286 1010 l 538 448 l 781 1010 l 968 1010 l 968 0 z "},"N":{"ha":927,"x_min":102,"x_max":825,"o":"m 825 0 l 674 0 l 228 871 l 228 0 l 102 0 l 102 1010 l 293 1010 l 699 210 l 699 1010 l 825 1010 l 825 0 z "},"O":{"ha":983,"x_min":45,"x_max":938,"o":"m 817 894 q 906 729 874 827 q 938 505 938 631 q 907 283 938 382 q 817 117 876 184 q 672 13 755 46 q 491 -21 590 -21 q 307 14 389 -21 q 165 117 224 48 q 76 282 107 184 q 45 505 45 380 q 76 728 45 632 q 166 894 108 825 q 307 996 224 961 q 491 1031 389 1031 q 677 995 594 1031 q 817 894 760 959 m 798 505 q 777 682 798 605 q 715 810 755 760 q 619 889 675 863 q 492 915 562 915 q 364 889 418 915 q 267 810 309 864 q 206 681 227 759 q 184 505 184 603 q 268 200 184 306 q 492 95 351 95 q 715 200 632 95 q 798 505 798 306 z "},"P":{"ha":766,"x_min":102,"x_max":740,"o":"m 740 705 q 716 581 740 640 q 652 481 693 522 q 529 403 600 429 q 351 376 458 376 l 237 376 l 237 0 l 102 0 l 102 1010 l 356 1010 q 509 995 446 1010 q 620 947 572 980 q 708 849 676 908 q 740 705 740 789 m 600 702 q 582 793 600 754 q 528 856 564 831 q 453 886 496 877 q 348 895 411 895 l 237 895 l 237 491 l 328 491 q 460 504 410 491 q 543 551 510 517 q 587 618 573 582 q 600 702 600 654 z "},"Q":{"ha":983,"x_min":45,"x_max":941,"o":"m 941 -247 q 864 -261 905 -256 q 784 -266 824 -266 q 600 -202 671 -266 q 522 -20 529 -138 q 505 -20 513 -20 q 491 -20 497 -20 q 306 15 389 -20 q 165 117 224 50 q 76 282 107 184 q 45 505 45 380 q 76 728 45 632 q 166 894 108 825 q 307 996 224 961 q 491 1031 389 1031 q 677 995 594 1031 q 817 894 760 959 q 906 729 874 827 q 938 505 938 631 q 861 181 938 309 q 652 8 785 54 q 665 -60 655 -30 q 690 -108 675 -90 q 735 -139 709 -129 q 806 -149 761 -149 q 870 -140 833 -149 q 923 -125 907 -132 l 941 -125 l 941 -247 m 798 505 q 777 682 798 605 q 715 810 755 760 q 619 889 675 863 q 492 915 562 915 q 364 889 418 915 q 267 810 309 864 q 206 681 227 759 q 184 505 184 603 q 268 200 184 306 q 492 94 351 94 q 715 200 632 94 q 798 505 798 306 z "},"R":{"ha":862,"x_min":102,"x_max":884,"o":"m 884 0 l 710 0 l 390 401 l 237 401 l 237 0 l 102 0 l 102 1010 l 363 1010 q 508 1000 450 1010 q 620 956 567 991 q 704 869 673 922 q 734 736 734 815 q 678 550 734 625 q 525 439 622 475 l 884 0 m 594 726 q 578 804 594 770 q 530 860 563 838 q 464 887 502 879 q 370 895 426 895 l 237 895 l 237 513 l 355 513 q 458 524 412 513 q 537 566 505 534 q 580 633 566 594 q 594 726 594 673 z "},"S":{"ha":774,"x_min":52,"x_max":739,"o":"m 384 -18 q 197 4 274 -18 q 52 60 120 27 l 52 229 l 62 229 q 212 132 128 166 q 374 98 296 98 q 543 144 486 98 q 600 267 600 191 q 570 365 600 327 q 475 421 540 403 q 389 444 428 435 q 292 467 351 452 q 199 502 240 481 q 125 557 157 523 q 77 635 94 590 q 60 739 60 680 q 155 945 60 862 q 399 1028 251 1028 q 560 1011 484 1028 q 700 963 635 994 l 700 802 l 690 802 q 566 879 642 846 q 408 912 491 912 q 257 868 315 912 q 199 753 199 825 q 233 651 199 689 q 332 595 267 613 q 436 569 374 584 q 538 543 498 555 q 691 446 643 511 q 739 288 739 382 q 715 171 739 229 q 648 73 691 113 q 537 5 599 29 q 384 -18 476 -18 z "},"T":{"ha":811,"x_min":-1,"x_max":812,"o":"m 338 0 l 338 890 l -1 890 l -1 1010 l 812 1010 l 812 890 l 473 890 l 473 0 l 338 0 z "},"U":{"ha":911,"x_min":90,"x_max":821,"o":"m 455 -21 q 300 2 366 -21 q 186 72 233 26 q 112 198 134 125 q 90 380 90 272 l 90 1010 l 224 1010 l 224 380 q 233 262 224 310 q 268 176 242 214 q 341 115 295 136 q 455 94 388 94 q 567 115 518 94 q 643 176 616 136 q 677 262 668 215 q 686 376 686 309 l 686 1010 l 821 1010 l 821 380 q 799 199 821 275 q 724 72 778 124 q 612 2 676 25 q 455 -21 548 -21 z "},"V":{"ha":829,"x_min":-5,"x_max":834,"o":"m 834 1010 l 487 0 l 342 0 l -5 1010 l 138 1010 l 418 172 l 697 1010 l 834 1010 z "},"W":{"ha":1253,"x_min":18,"x_max":1235,"o":"m 1235 1010 l 981 0 l 830 0 l 625 838 l 424 0 l 276 0 l 18 1010 l 155 1010 l 359 170 l 561 1010 l 697 1010 l 901 162 l 1103 1010 l 1235 1010 z "},"X":{"ha":806,"x_min":5,"x_max":801,"o":"m 801 0 l 647 0 l 401 404 l 151 0 l 5 0 l 326 505 l 15 1010 l 168 1010 l 410 613 l 654 1010 l 800 1010 l 484 512 l 801 0 z "},"Y":{"ha":800,"x_min":-7,"x_max":809,"o":"m 809 1010 l 468 447 l 468 0 l 334 0 l 334 433 l -7 1010 l 142 1010 l 402 564 l 667 1010 l 809 1010 z "},"Z":{"ha":777,"x_min":41,"x_max":746,"o":"m 746 0 l 41 0 l 41 125 l 581 890 l 65 890 l 65 1010 l 732 1010 l 732 888 l 186 119 l 746 119 l 746 0 z "},"[":{"ha":532,"x_min":113,"x_max":465,"o":"m 465 -266 l 113 -266 l 113 1055 l 465 1055 l 465 958 l 231 958 l 231 -169 l 465 -169 l 465 -266 z "},"\\":{"ha":531,"x_min":35,"x_max":545,"o":"m 545 -220 l 431 -220 l 35 1055 l 152 1055 l 545 -220 z "},"]":{"ha":532,"x_min":66,"x_max":419,"o":"m 419 -266 l 66 -266 l 66 -169 l 300 -169 l 300 958 l 66 958 l 66 1055 l 419 1055 l 419 -266 z "},"^":{"ha":1010,"x_min":90,"x_max":920,"o":"m 920 464 l 786 464 l 505 888 l 224 463 l 90 463 l 463 1010 l 548 1010 l 920 464 z "},"_":{"ha":758,"x_min":-11,"x_max":769,"o":"m 769 -203 l -11 -203 l -11 -115 l 769 -115 l 769 -203 z "},"`":{"ha":758,"x_min":168,"x_max":454,"o":"m 454 883 l 353 883 l 168 1137 l 333 1137 l 454 883 z "},"a":{"ha":729,"x_min":39,"x_max":642,"o":"m 515 186 l 515 397 q 400 386 470 393 q 288 366 331 378 q 204 318 237 350 q 171 228 171 286 q 208 130 171 163 q 315 96 244 96 q 424 122 375 96 q 515 186 473 149 m 515 81 q 474 48 500 69 q 423 16 448 28 q 358 -12 389 -2 q 269 -21 326 -21 q 180 -3 222 -21 q 106 46 138 14 q 58 123 76 77 q 39 220 39 169 q 73 354 39 298 q 178 441 106 409 q 328 482 241 471 q 515 498 415 493 l 515 523 q 502 595 515 568 q 464 637 488 623 q 404 658 439 653 q 332 663 369 663 q 228 650 288 663 q 109 612 168 637 l 101 612 l 101 741 q 202 764 136 751 q 332 776 268 776 q 464 764 410 776 q 560 720 517 751 q 622 639 602 688 q 642 518 642 589 l 642 0 l 515 0 l 515 81 z "},"b":{"ha":768,"x_min":92,"x_max":728,"o":"m 596 381 q 555 587 596 517 q 422 657 513 657 q 316 633 370 657 q 220 571 263 608 l 220 137 q 305 103 268 113 q 387 94 342 94 q 541 163 485 94 q 596 381 596 232 m 728 391 q 637 92 728 205 q 412 -21 547 -21 q 306 -6 350 -21 q 220 35 262 9 l 212 0 l 92 0 l 92 1055 l 220 1055 l 220 678 q 324 750 268 722 q 452 779 380 779 q 654 676 580 779 q 728 391 728 573 z "},"c":{"ha":641,"x_min":40,"x_max":617,"o":"m 393 -17 q 250 7 315 -17 q 138 80 185 31 q 66 203 92 129 q 40 378 40 277 q 67 550 40 477 q 138 672 94 623 q 250 748 183 722 q 393 775 317 775 q 514 758 456 775 q 617 717 572 740 l 617 574 l 610 574 q 575 600 596 585 q 523 631 553 615 q 460 654 496 644 q 391 665 425 665 q 232 590 292 665 q 172 378 172 515 q 230 169 172 243 q 391 94 288 94 q 510 119 454 94 q 610 186 566 145 l 617 186 l 617 43 q 570 21 598 34 q 518 3 541 9 q 460 -12 486 -7 q 393 -17 434 -17 z "},"d":{"ha":768,"x_min":40,"x_max":675,"o":"m 675 0 l 548 0 l 548 77 q 496 36 518 52 q 446 6 475 20 q 389 -14 418 -7 q 321 -21 360 -21 q 207 5 260 -21 q 118 80 155 31 q 60 204 81 130 q 40 373 40 277 q 66 546 40 473 q 137 673 92 618 q 237 750 178 722 q 360 779 296 779 q 459 766 417 779 q 548 727 501 753 l 548 1055 l 675 1055 l 675 0 m 548 184 l 548 621 q 463 653 500 644 q 381 662 425 662 q 227 588 283 662 q 172 376 172 515 q 214 171 172 242 q 351 100 257 100 q 452 123 401 100 q 548 184 503 146 z "},"e":{"ha":731,"x_min":40,"x_max":694,"o":"m 421 -18 q 140 84 240 -18 q 40 374 40 186 q 137 669 40 559 q 391 779 234 779 q 515 758 461 779 q 610 694 570 738 q 673 588 651 651 q 694 435 694 526 l 694 366 l 170 366 q 236 163 170 233 q 420 94 302 94 q 502 103 462 94 q 575 127 543 113 q 633 158 610 143 q 673 185 657 172 l 680 185 l 680 46 q 625 24 658 37 q 565 3 591 11 q 497 -12 528 -7 q 421 -18 467 -18 m 570 463 q 558 552 569 515 q 527 615 547 589 q 470 659 505 644 q 383 673 435 673 q 297 658 332 673 q 232 614 261 643 q 189 548 203 584 q 170 463 174 511 l 570 463 z "},"f":{"ha":442,"x_min":20,"x_max":491,"o":"m 491 933 l 484 933 q 435 945 467 939 q 378 951 404 951 q 263 915 298 951 q 229 783 229 878 l 229 758 l 440 758 l 440 652 l 233 652 l 233 0 l 106 0 l 106 652 l 20 652 l 20 758 l 106 758 l 106 783 q 172 991 106 920 q 360 1062 237 1062 q 429 1058 395 1062 q 491 1050 463 1055 l 491 933 z "},"g":{"ha":768,"x_min":40,"x_max":675,"o":"m 548 205 l 548 621 q 460 654 500 644 q 380 664 420 664 q 227 593 283 664 q 172 389 172 522 q 214 197 172 262 q 351 131 256 131 q 453 151 401 131 q 548 205 506 170 m 119 -121 q 157 -136 132 -127 q 214 -153 182 -145 q 279 -168 250 -162 q 345 -173 309 -173 q 445 -157 404 -173 q 509 -114 486 -142 q 539 -50 530 -86 q 548 34 548 -13 l 548 100 q 447 34 496 56 q 323 13 397 13 q 117 109 193 13 q 40 386 40 205 q 66 553 40 480 q 138 677 93 626 q 239 752 180 726 q 359 779 297 779 q 461 765 418 779 q 548 725 505 751 l 555 758 l 675 758 l 675 86 q 591 -197 675 -106 q 334 -287 507 -287 q 221 -278 279 -287 q 113 -254 163 -269 l 113 -121 l 119 -121 z "},"h":{"ha":774,"x_min":92,"x_max":688,"o":"m 688 0 l 560 0 l 560 431 q 555 529 560 484 q 536 601 550 574 q 492 643 520 629 q 416 657 465 657 q 318 632 369 657 q 220 566 268 606 l 220 0 l 92 0 l 92 1055 l 220 1055 l 220 673 q 332 751 277 724 q 450 779 388 779 q 625 705 562 779 q 688 492 688 631 l 688 0 z "},"i":{"ha":317,"x_min":86,"x_max":231,"o":"m 222 0 l 95 0 l 95 758 l 222 758 l 222 0 m 231 884 l 86 884 l 86 1017 l 231 1017 l 231 884 z "},"j":{"ha":391,"x_min":-61,"x_max":300,"o":"m 299 -22 q 230 -219 299 -151 q 38 -287 160 -287 q -9 -285 17 -287 q -61 -279 -35 -283 l -61 -165 l -54 -165 q -21 -171 -39 -168 q 14 -174 -3 -174 q 97 -162 64 -174 q 146 -122 130 -149 q 166 -60 161 -98 q 172 31 172 -23 l 172 652 l 35 652 l 35 758 l 299 758 l 299 -22 m 300 884 l 155 884 l 155 1017 l 300 1017 l 300 884 z "},"k":{"ha":692,"x_min":92,"x_max":720,"o":"m 720 0 l 553 0 l 270 366 l 220 317 l 220 0 l 92 0 l 92 1055 l 220 1055 l 220 437 l 519 758 l 678 758 l 367 441 l 720 0 z "},"l":{"ha":317,"x_min":95,"x_max":222,"o":"m 222 0 l 95 0 l 95 1055 l 222 1055 l 222 0 z "},"m":{"ha":1166,"x_min":92,"x_max":1080,"o":"m 952 0 l 952 438 q 948 535 952 490 q 931 604 944 579 q 892 644 918 631 q 825 657 867 657 q 740 633 785 657 q 647 564 695 609 q 649 536 648 552 q 650 498 650 520 l 650 0 l 522 0 l 522 438 q 518 535 522 490 q 501 604 514 579 q 463 644 488 631 q 395 657 437 657 q 308 631 353 657 q 220 566 262 606 l 220 0 l 92 0 l 92 758 l 220 758 l 220 673 q 319 751 270 724 q 427 779 368 779 q 546 748 494 779 q 625 648 598 718 q 738 745 683 712 q 857 779 793 779 q 946 763 906 779 q 1016 714 986 748 q 1063 628 1046 680 q 1080 498 1080 576 l 1080 0 l 952 0 z "},"n":{"ha":774,"x_min":92,"x_max":688,"o":"m 688 0 l 560 0 l 560 431 q 555 529 560 484 q 536 601 550 574 q 492 643 520 629 q 416 657 465 657 q 318 632 369 657 q 220 566 268 606 l 220 0 l 92 0 l 92 758 l 220 758 l 220 673 q 332 751 277 724 q 450 779 388 779 q 625 705 562 779 q 688 492 688 631 l 688 0 z "},"o":{"ha":754,"x_min":39,"x_max":715,"o":"m 715 378 q 623 83 715 187 q 378 -21 531 -21 q 129 86 220 -21 q 39 378 39 194 q 132 673 39 568 q 378 779 225 779 q 623 674 531 779 q 715 378 715 569 m 584 378 q 530 597 584 526 q 378 669 477 669 q 224 597 278 669 q 170 378 170 526 q 224 162 170 236 q 378 89 278 89 q 530 161 476 89 q 584 378 584 233 z "},"p":{"ha":768,"x_min":92,"x_max":728,"o":"m 728 399 q 637 97 728 210 q 408 -15 547 -15 q 309 -2 352 -15 q 220 38 265 11 l 220 -279 l 92 -279 l 92 758 l 220 758 l 220 678 q 325 750 267 721 q 452 779 383 779 q 655 675 582 779 q 728 399 728 572 m 596 385 q 555 586 596 514 q 420 657 513 657 q 316 633 366 657 q 220 571 265 609 l 220 142 q 306 109 270 117 q 387 100 341 100 q 541 172 486 100 q 596 385 596 245 z "},"q":{"ha":768,"x_min":40,"x_max":675,"o":"m 675 -279 l 548 -279 l 548 83 q 439 8 492 32 q 322 -15 387 -15 q 117 89 193 -15 q 40 376 40 192 q 67 549 40 474 q 138 675 94 624 q 238 751 180 724 q 359 779 296 779 q 460 765 418 779 q 548 725 503 751 l 556 758 l 675 758 l 675 -279 m 548 190 l 548 621 q 462 654 500 645 q 380 664 424 664 q 226 591 280 664 q 172 382 172 519 q 215 178 172 250 q 350 106 258 106 q 454 130 404 106 q 548 190 505 153 z "},"r":{"ha":500,"x_min":92,"x_max":494,"o":"m 494 621 l 487 621 q 457 626 473 625 q 418 627 441 627 q 316 604 367 627 q 220 538 265 582 l 220 0 l 92 0 l 92 758 l 220 758 l 220 645 q 341 732 290 707 q 442 758 393 758 q 472 756 462 758 q 494 753 481 755 l 494 621 z "},"s":{"ha":620,"x_min":45,"x_max":593,"o":"m 297 -18 q 155 2 221 -18 q 45 45 89 22 l 45 189 l 52 189 q 91 160 68 176 q 149 127 113 144 q 221 101 182 113 q 302 90 260 90 q 367 97 332 90 q 418 115 401 104 q 453 148 442 130 q 463 201 463 165 q 438 269 463 246 q 351 308 414 292 q 287 322 326 314 q 214 340 248 330 q 88 417 127 365 q 49 545 49 470 q 126 711 49 647 q 332 776 203 776 q 458 760 395 776 q 566 721 522 745 l 566 585 l 559 585 q 450 646 510 623 q 329 668 390 668 q 222 642 266 668 q 179 562 179 615 q 205 491 179 514 q 288 452 231 467 q 351 438 316 445 q 425 421 386 431 q 551 351 509 400 q 593 218 593 302 q 574 126 593 170 q 517 51 555 82 q 426 -1 477 17 q 297 -18 374 -18 z "},"t":{"ha":465,"x_min":14,"x_max":463,"o":"m 321 -15 q 159 44 217 -15 q 100 232 100 104 l 100 652 l 14 652 l 14 758 l 100 758 l 100 975 l 228 975 l 228 758 l 463 758 l 463 652 l 228 652 l 228 292 q 230 203 228 234 q 245 144 232 172 q 283 109 257 121 q 353 97 309 97 q 413 106 384 97 q 455 121 442 115 l 463 121 l 463 7 q 390 -9 427 -3 q 321 -15 353 -15 z "},"u":{"ha":774,"x_min":87,"x_max":682,"o":"m 682 0 l 555 0 l 555 84 q 443 6 496 33 q 325 -21 390 -21 q 232 -5 275 -21 q 155 47 188 12 q 105 136 123 82 q 87 266 87 189 l 87 758 l 214 758 l 214 326 q 219 226 214 266 q 239 157 223 186 q 281 114 254 127 q 358 100 308 100 q 458 127 405 100 q 555 192 511 153 l 555 758 l 682 758 l 682 0 z "},"v":{"ha":692,"x_min":4,"x_max":688,"o":"m 688 758 l 402 0 l 288 0 l 4 758 l 142 758 l 349 173 l 555 758 l 688 758 z "},"w":{"ha":1031,"x_min":20,"x_max":1010,"o":"m 1010 758 l 819 0 l 701 0 l 515 584 l 332 0 l 214 0 l 20 758 l 153 758 l 287 171 l 467 758 l 572 758 l 756 171 l 882 758 l 1010 758 z "},"x":{"ha":688,"x_min":7,"x_max":681,"o":"m 681 0 l 524 0 l 340 286 l 151 0 l 7 0 l 270 376 l 9 758 l 166 758 l 349 474 l 536 758 l 681 758 l 419 385 l 681 0 z "},"y":{"ha":692,"x_min":4,"x_max":688,"o":"m 688 758 l 280 -279 l 144 -279 l 279 37 l 4 758 l 142 758 l 349 197 l 555 758 l 688 758 z "},"z":{"ha":617,"x_min":33,"x_max":590,"o":"m 590 0 l 33 0 l 33 94 l 429 652 l 50 652 l 50 758 l 583 758 l 583 667 l 184 106 l 590 106 l 590 0 z "},"{":{"ha":667,"x_min":41,"x_max":601,"o":"m 601 -266 l 522 -266 q 332 -199 401 -266 q 263 -3 263 -132 l 263 98 q 254 192 263 144 q 220 273 245 239 q 155 325 195 307 q 55 342 115 342 l 41 342 l 41 448 l 55 448 q 155 465 115 448 q 220 516 195 482 q 254 597 245 550 q 263 692 263 645 l 263 793 q 332 988 263 922 q 522 1055 401 1055 l 601 1055 l 601 962 l 547 962 q 477 954 507 962 q 427 926 448 945 q 395 869 406 905 q 385 781 385 833 l 385 663 q 372 569 385 607 q 334 498 359 531 q 275 443 311 468 q 201 403 239 418 l 201 387 q 275 346 239 371 q 334 292 311 321 q 372 220 359 258 q 385 127 385 182 l 385 8 q 395 -80 385 -44 q 427 -136 406 -116 q 477 -164 448 -156 q 547 -172 507 -172 l 601 -172 l 601 -266 z "},"|":{"ha":531,"x_min":209,"x_max":322,"o":"m 322 -266 l 209 -266 l 209 1055 l 322 1055 l 322 -266 z "},"}":{"ha":667,"x_min":66,"x_max":627,"o":"m 627 342 l 612 342 q 512 325 553 342 q 447 273 472 307 q 413 192 422 239 q 404 98 404 144 l 404 -3 q 335 -199 404 -132 q 145 -266 267 -266 l 66 -266 l 66 -172 l 121 -172 q 190 -164 161 -172 q 240 -136 219 -156 q 272 -80 262 -116 q 283 8 283 -44 l 283 127 q 296 220 283 182 q 334 292 309 258 q 392 346 356 321 q 467 387 428 371 l 467 403 q 392 443 428 418 q 334 498 356 468 q 296 569 309 531 q 283 663 283 607 l 283 781 q 272 869 283 833 q 240 926 262 905 q 190 954 219 945 q 121 962 161 962 l 66 962 l 66 1055 l 145 1055 q 335 988 267 1055 q 404 793 404 922 l 404 692 q 413 597 404 645 q 447 516 422 550 q 512 465 472 482 q 612 448 553 448 l 627 448 l 627 342 z "},"~":{"ha":1010,"x_min":91,"x_max":920,"o":"m 920 629 q 905 495 918 559 q 865 380 892 431 q 795 300 837 331 q 688 269 754 269 q 618 279 649 269 q 564 307 587 290 q 518 347 540 323 q 479 391 496 371 q 444 437 461 414 q 409 477 426 460 q 371 508 391 496 q 326 519 351 519 q 270 502 292 519 q 233 448 248 484 q 213 367 218 414 q 205 268 207 319 l 91 268 q 105 403 92 338 q 145 516 119 467 q 217 598 172 568 q 323 628 262 628 q 394 617 363 628 q 449 589 425 606 q 493 551 473 572 q 532 505 513 529 q 567 460 547 487 q 602 419 588 434 q 642 388 622 399 q 684 377 662 377 q 742 396 718 377 q 778 448 765 415 q 798 527 791 481 q 806 629 804 573 l 920 629 z "},"Ä":{"ha":833,"x_min":-7,"x_max":840,"o":"m -7 0 l 334 1010 l 499 1010 l 840 0 l 698 0 l 606 282 l 220 282 l 129 0 l -7 0 m 569 397 l 413 873 l 258 397 l 569 397 m 619 1124 l 483 1124 l 483 1256 l 619 1256 l 619 1124 m 339 1124 l 203 1124 l 203 1256 l 339 1256 l 339 1124 z "},"Å":{"ha":833,"x_min":-7,"x_max":840,"o":"m 624 1143 q 593 1039 624 1086 q 514 966 562 992 l 840 0 l 698 0 l 606 282 l 220 282 l 129 0 l -7 0 l 318 964 q 239 1038 269 991 q 209 1143 209 1084 q 269 1288 209 1230 q 416 1347 330 1347 q 564 1289 504 1347 q 624 1143 624 1230 m 569 396 l 413 874 l 258 396 l 569 396 m 524 1141 q 494 1224 524 1191 q 416 1257 465 1257 q 339 1224 369 1257 q 309 1141 309 1191 q 339 1058 309 1091 q 416 1025 370 1025 q 494 1058 463 1025 q 524 1141 524 1091 z "},"Ç":{"ha":834,"x_min":45,"x_max":811,"o":"m 497 -18 q 315 15 398 -18 q 172 114 232 48 q 78 278 111 180 q 45 504 45 376 q 77 725 45 631 q 171 889 109 819 q 314 992 231 957 q 499 1028 397 1028 q 594 1021 550 1028 q 677 1002 639 1013 q 744 976 709 991 q 811 943 778 961 l 811 781 l 800 781 q 755 820 783 797 q 687 865 727 843 q 603 900 648 886 q 498 913 557 913 q 376 887 433 913 q 275 809 318 861 q 208 680 232 758 q 184 504 184 602 q 210 325 184 400 q 278 199 235 250 q 377 123 320 149 q 498 98 434 98 q 606 112 556 98 q 694 148 655 126 q 758 191 731 169 q 801 229 785 213 l 811 229 l 811 68 q 748 39 778 53 q 677 11 719 24 q 661 6 671 9 q 647 2 651 3 q 649 -24 648 -8 q 650 -60 650 -41 q 595 -224 650 -161 q 441 -287 539 -287 q 382 -283 416 -287 q 321 -271 348 -279 l 321 -162 l 327 -162 q 370 -177 343 -170 q 423 -185 396 -185 q 517 -158 487 -185 q 547 -73 547 -132 q 546 -47 547 -60 q 545 -16 546 -33 q 523 -18 533 -17 q 497 -18 512 -18 z "},"É":{"ha":779,"x_min":102,"x_max":734,"o":"m 102 0 l 102 1010 l 734 1010 l 734 890 l 237 890 l 237 614 l 700 614 l 700 494 l 237 494 l 237 119 l 734 119 l 734 0 l 102 0 m 624 1390 l 439 1136 l 338 1136 l 459 1390 l 624 1390 z "},"Ñ":{"ha":927,"x_min":102,"x_max":825,"o":"m 825 0 l 674 0 l 228 871 l 228 0 l 102 0 l 102 1010 l 293 1010 l 699 210 l 699 1010 l 825 1010 l 825 0 m 753 1346 q 702 1187 746 1240 q 586 1135 659 1135 q 521 1147 551 1135 q 463 1187 491 1160 q 411 1230 433 1215 q 368 1244 389 1244 q 322 1214 335 1244 q 306 1132 309 1183 l 211 1132 q 262 1290 216 1236 q 377 1343 309 1343 q 441 1330 412 1343 q 499 1291 470 1316 q 552 1250 528 1264 q 595 1236 575 1236 q 641 1267 627 1236 q 658 1346 656 1297 l 753 1346 z "},"Ö":{"ha":983,"x_min":45,"x_max":938,"o":"m 817 894 q 906 729 874 827 q 938 505 938 631 q 907 283 938 382 q 817 117 876 184 q 672 13 755 46 q 491 -21 590 -21 q 307 14 389 -21 q 165 117 224 48 q 76 282 107 184 q 45 505 45 380 q 76 728 45 632 q 166 894 108 825 q 307 996 224 961 q 491 1031 389 1031 q 677 995 594 1031 q 817 894 760 959 m 798 505 q 777 682 798 605 q 715 810 755 760 q 619 889 675 863 q 492 915 562 915 q 364 889 418 915 q 267 810 309 864 q 206 681 227 759 q 184 505 184 603 q 268 200 184 306 q 492 95 351 95 q 715 200 632 95 q 798 505 798 306 m 696 1137 l 560 1137 l 560 1270 l 696 1270 l 696 1137 m 416 1137 l 280 1137 l 280 1270 l 416 1270 l 416 1137 z "},"Ü":{"ha":911,"x_min":90,"x_max":821,"o":"m 455 -21 q 300 2 366 -21 q 186 72 233 26 q 112 198 134 125 q 90 380 90 272 l 90 1010 l 224 1010 l 224 380 q 233 262 224 310 q 268 176 242 214 q 341 115 295 136 q 455 94 388 94 q 567 115 518 94 q 643 176 616 136 q 677 262 668 215 q 686 376 686 309 l 686 1010 l 821 1010 l 821 380 q 799 199 821 275 q 724 72 778 124 q 612 2 676 25 q 455 -21 548 -21 m 681 1137 l 545 1137 l 545 1270 l 681 1270 l 681 1137 m 401 1137 l 264 1137 l 264 1270 l 401 1270 l 401 1137 z "},"á":{"ha":729,"x_min":39,"x_max":642,"o":"m 515 186 l 515 397 q 400 386 470 393 q 288 366 331 378 q 204 318 237 350 q 171 228 171 286 q 208 130 171 163 q 315 96 244 96 q 424 122 375 96 q 515 186 473 149 m 515 81 q 474 48 500 69 q 423 16 448 28 q 358 -12 389 -2 q 269 -21 326 -21 q 180 -3 222 -21 q 106 46 138 14 q 58 123 76 77 q 39 220 39 169 q 73 354 39 298 q 178 441 106 409 q 328 482 241 471 q 515 498 415 493 l 515 523 q 502 595 515 568 q 464 637 488 623 q 404 658 439 653 q 332 663 369 663 q 228 650 288 663 q 109 612 168 637 l 101 612 l 101 741 q 202 764 136 751 q 332 776 268 776 q 464 764 410 776 q 560 720 517 751 q 622 639 602 688 q 642 518 642 589 l 642 0 l 515 0 l 515 81 m 568 1137 l 382 883 l 281 883 l 403 1137 l 568 1137 z "},"à":{"ha":729,"x_min":39,"x_max":642,"o":"m 515 186 l 515 397 q 400 386 470 393 q 288 366 331 378 q 204 318 237 350 q 171 228 171 286 q 208 130 171 163 q 315 96 244 96 q 424 122 375 96 q 515 186 473 149 m 515 81 q 474 48 500 69 q 423 16 448 28 q 358 -12 389 -2 q 269 -21 326 -21 q 180 -3 222 -21 q 106 46 138 14 q 58 123 76 77 q 39 220 39 169 q 73 354 39 298 q 178 441 106 409 q 328 482 241 471 q 515 498 415 493 l 515 523 q 502 595 515 568 q 464 637 488 623 q 404 658 439 653 q 332 663 369 663 q 228 650 288 663 q 109 612 168 637 l 101 612 l 101 741 q 202 764 136 751 q 332 776 268 776 q 464 764 410 776 q 560 720 517 751 q 622 639 602 688 q 642 518 642 589 l 642 0 l 515 0 l 515 81 m 453 883 l 352 883 l 167 1137 l 332 1137 l 453 883 z "},"â":{"ha":729,"x_min":39,"x_max":642,"o":"m 515 186 l 515 397 q 400 386 470 393 q 288 366 331 378 q 204 318 237 350 q 171 228 171 286 q 208 130 171 163 q 315 96 244 96 q 424 122 375 96 q 515 186 473 149 m 515 81 q 474 48 500 69 q 423 16 448 28 q 358 -12 389 -2 q 269 -21 326 -21 q 180 -3 222 -21 q 106 46 138 14 q 58 123 76 77 q 39 220 39 169 q 73 354 39 298 q 178 441 106 409 q 328 482 241 471 q 515 498 415 493 l 515 523 q 502 595 515 568 q 464 637 488 623 q 404 658 439 653 q 332 663 369 663 q 228 650 288 663 q 109 612 168 637 l 101 612 l 101 741 q 202 764 136 751 q 332 776 268 776 q 464 764 410 776 q 560 720 517 751 q 622 639 602 688 q 642 518 642 589 l 642 0 l 515 0 l 515 81 m 594 880 l 486 880 l 361 1053 l 236 880 l 131 880 l 286 1137 l 439 1137 l 594 880 z "},"ä":{"ha":729,"x_min":39,"x_max":642,"o":"m 515 186 l 515 397 q 400 386 470 393 q 288 366 331 378 q 204 318 237 350 q 171 228 171 286 q 208 130 171 163 q 315 96 244 96 q 424 122 375 96 q 515 186 473 149 m 515 81 q 474 48 500 69 q 423 16 448 28 q 358 -12 389 -2 q 269 -21 326 -21 q 180 -3 222 -21 q 106 46 138 14 q 58 123 76 77 q 39 220 39 169 q 73 354 39 298 q 178 441 106 409 q 328 482 241 471 q 515 498 415 493 l 515 523 q 502 595 515 568 q 464 637 488 623 q 404 658 439 653 q 332 663 369 663 q 228 650 288 663 q 109 612 168 637 l 101 612 l 101 741 q 202 764 136 751 q 332 776 268 776 q 464 764 410 776 q 560 720 517 751 q 622 639 602 688 q 642 518 642 589 l 642 0 l 515 0 l 515 81 m 566 884 l 430 884 l 430 1017 l 566 1017 l 566 884 m 286 884 l 150 884 l 150 1017 l 286 1017 l 286 884 z "},"ã":{"ha":729,"x_min":39,"x_max":642,"o":"m 515 186 l 515 397 q 400 386 470 393 q 288 366 331 378 q 204 318 237 350 q 171 228 171 286 q 208 130 171 163 q 315 96 244 96 q 424 122 375 96 q 515 186 473 149 m 515 81 q 474 48 500 69 q 423 16 448 28 q 358 -12 389 -2 q 269 -21 326 -21 q 180 -3 222 -21 q 106 46 138 14 q 58 123 76 77 q 39 220 39 169 q 73 354 39 298 q 178 441 106 409 q 328 482 241 471 q 515 498 415 493 l 515 523 q 502 595 515 568 q 464 637 488 623 q 404 658 439 653 q 332 663 369 663 q 228 650 288 663 q 109 612 168 637 l 101 612 l 101 741 q 202 764 136 751 q 332 776 268 776 q 464 764 410 776 q 560 720 517 751 q 622 639 602 688 q 642 518 642 589 l 642 0 l 515 0 l 515 81 m 633 1107 q 582 948 626 1001 q 466 895 538 895 q 401 908 431 895 q 342 948 371 921 q 291 990 313 976 q 248 1005 269 1005 q 202 975 215 1005 q 186 892 189 944 l 91 892 q 142 1050 96 997 q 257 1103 189 1103 q 321 1090 292 1103 q 379 1051 350 1077 q 432 1011 408 1025 q 475 997 455 997 q 521 1027 507 997 q 538 1107 536 1058 l 633 1107 z "},"å":{"ha":729,"x_min":39,"x_max":642,"o":"m 515 186 l 515 397 q 400 386 470 393 q 288 366 331 378 q 204 318 237 350 q 171 228 171 286 q 208 130 171 163 q 315 96 244 96 q 424 122 375 96 q 515 186 473 149 m 515 81 q 474 49 500 69 q 423 16 448 28 q 358 -12 389 -2 q 269 -21 326 -21 q 180 -3 222 -21 q 106 46 138 14 q 57 123 75 77 q 39 220 39 169 q 73 354 39 298 q 178 441 106 409 q 328 482 241 471 q 515 498 415 493 l 515 523 q 502 595 515 568 q 464 637 488 623 q 404 658 439 653 q 332 663 369 663 q 261 656 296 663 q 202 644 225 650 q 146 626 171 635 q 109 612 122 617 l 101 612 l 101 741 q 181 760 133 751 q 289 772 229 768 q 189 847 228 797 q 149 964 149 897 q 210 1109 149 1050 q 357 1168 270 1168 q 504 1109 444 1168 q 564 964 564 1051 q 523 844 564 897 q 416 769 482 792 q 516 743 475 761 q 583 696 557 724 q 627 622 612 665 q 642 518 642 579 l 642 0 l 515 0 l 515 81 m 465 963 q 435 1045 465 1013 q 357 1078 405 1078 q 279 1045 309 1078 q 249 963 249 1013 q 279 880 249 913 q 357 846 310 846 q 434 880 404 846 q 465 963 465 913 z "},"ç":{"ha":641,"x_min":40,"x_max":617,"o":"m 393 -17 q 250 7 315 -17 q 138 80 185 31 q 66 203 92 129 q 40 378 40 277 q 67 550 40 477 q 138 672 94 623 q 250 748 183 722 q 393 775 317 775 q 514 758 456 775 q 617 717 572 740 l 617 574 l 610 574 q 575 600 596 585 q 523 631 553 615 q 460 654 496 644 q 391 665 425 665 q 232 590 292 665 q 172 378 172 515 q 230 169 172 243 q 391 94 288 94 q 510 119 454 94 q 610 186 566 145 l 617 186 l 617 43 q 573 23 598 34 q 527 5 548 12 q 529 -23 528 -5 q 530 -60 530 -41 q 475 -224 530 -161 q 321 -287 419 -287 q 262 -283 296 -287 q 201 -271 228 -279 l 201 -162 l 207 -162 q 250 -177 223 -170 q 303 -185 276 -185 q 397 -158 367 -185 q 427 -73 427 -132 q 426 -46 427 -60 q 425 -16 426 -33 q 410 -16 416 -16 q 393 -17 404 -17 z "},"é":{"ha":731,"x_min":40,"x_max":694,"o":"m 421 -18 q 140 84 240 -18 q 40 374 40 186 q 137 669 40 559 q 391 779 234 779 q 515 758 461 779 q 610 694 570 738 q 673 588 651 651 q 694 435 694 526 l 694 366 l 170 366 q 236 163 170 233 q 420 94 302 94 q 502 103 462 94 q 575 127 543 113 q 633 158 610 143 q 673 185 657 172 l 680 185 l 680 46 q 625 24 658 37 q 565 3 591 11 q 497 -12 528 -7 q 421 -18 467 -18 m 570 463 q 558 552 569 515 q 527 615 547 589 q 470 659 505 644 q 383 673 435 673 q 297 658 332 673 q 232 614 261 643 q 189 548 203 584 q 170 463 174 511 l 570 463 m 603 1137 l 418 883 l 317 883 l 438 1137 l 603 1137 z "},"è":{"ha":731,"x_min":40,"x_max":694,"o":"m 421 -18 q 140 84 240 -18 q 40 374 40 186 q 137 669 40 559 q 391 779 234 779 q 515 758 461 779 q 610 694 570 738 q 673 588 651 651 q 694 435 694 526 l 694 366 l 170 366 q 236 163 170 233 q 420 94 302 94 q 502 103 462 94 q 575 127 543 113 q 633 158 610 143 q 673 185 657 172 l 680 185 l 680 46 q 625 24 658 37 q 565 3 591 11 q 497 -12 528 -7 q 421 -18 467 -18 m 570 463 q 558 552 569 515 q 527 615 547 589 q 470 659 505 644 q 383 673 435 673 q 297 658 332 673 q 232 614 261 643 q 189 548 203 584 q 170 463 174 511 l 570 463 m 465 883 l 363 883 l 178 1137 l 343 1137 l 465 883 z "},"ê":{"ha":731,"x_min":40,"x_max":694,"o":"m 421 -18 q 140 84 240 -18 q 40 374 40 186 q 137 669 40 559 q 391 779 234 779 q 515 758 461 779 q 610 694 570 738 q 673 588 651 651 q 694 435 694 526 l 694 366 l 170 366 q 236 163 170 233 q 420 94 302 94 q 502 103 462 94 q 575 127 543 113 q 633 158 610 143 q 673 185 657 172 l 680 185 l 680 46 q 625 24 658 37 q 565 3 591 11 q 497 -12 528 -7 q 421 -18 467 -18 m 570 463 q 558 552 569 515 q 527 615 547 589 q 470 659 505 644 q 383 673 435 673 q 297 658 332 673 q 232 614 261 643 q 189 548 203 584 q 170 463 174 511 l 570 463 m 621 880 l 513 880 l 387 1053 l 262 880 l 157 880 l 312 1137 l 466 1137 l 621 880 z "},"ë":{"ha":731,"x_min":40,"x_max":694,"o":"m 421 -18 q 140 84 240 -18 q 40 374 40 186 q 137 669 40 559 q 391 779 234 779 q 515 758 461 779 q 610 694 570 738 q 673 588 651 651 q 694 435 694 526 l 694 366 l 170 366 q 236 163 170 233 q 420 94 302 94 q 502 103 462 94 q 575 127 543 113 q 633 158 610 143 q 673 185 657 172 l 680 185 l 680 46 q 625 24 658 37 q 565 3 591 11 q 497 -12 528 -7 q 421 -18 467 -18 m 570 463 q 558 552 569 515 q 527 615 547 589 q 470 659 505 644 q 383 673 435 673 q 297 658 332 673 q 232 614 261 643 q 189 548 203 584 q 170 463 174 511 l 570 463 m 597 884 l 460 884 l 460 1017 l 597 1017 l 597 884 m 317 884 l 180 884 l 180 1017 l 317 1017 l 317 884 z "},"í":{"ha":317,"x_min":81,"x_max":368,"o":"m 222 0 l 95 0 l 95 758 l 222 758 l 222 0 m 368 1137 l 182 883 l 81 883 l 203 1137 l 368 1137 z "},"ì":{"ha":317,"x_min":-1,"x_max":286,"o":"m 222 0 l 95 0 l 95 758 l 222 758 l 222 0 m 286 883 l 184 883 l -1 1137 l 164 1137 l 286 883 z "},"î":{"ha":317,"x_min":-37,"x_max":353,"o":"m 222 0 l 95 0 l 95 758 l 222 758 l 222 0 m 353 880 l 251 880 l 157 1058 l 63 880 l -37 880 l 81 1137 l 235 1137 l 353 880 z "},"ï":{"ha":317,"x_min":-26,"x_max":343,"o":"m 222 0 l 95 0 l 95 758 l 222 758 l 222 0 m 343 884 l 215 884 l 215 1017 l 343 1017 l 343 884 m 102 884 l -26 884 l -26 1017 l 102 1017 l 102 884 z "},"ñ":{"ha":774,"x_min":92,"x_max":688,"o":"m 688 0 l 560 0 l 560 431 q 555 529 560 484 q 536 601 550 574 q 492 643 520 629 q 416 657 465 657 q 318 632 369 657 q 220 566 268 606 l 220 0 l 92 0 l 92 758 l 220 758 l 220 673 q 332 751 277 724 q 450 779 388 779 q 625 705 562 779 q 688 492 688 631 l 688 0 m 663 1107 q 613 948 656 1001 q 496 895 569 895 q 431 908 461 895 q 373 948 401 921 q 321 990 343 976 q 279 1005 300 1005 q 232 975 245 1005 q 216 892 219 944 l 121 892 q 173 1050 126 997 q 288 1103 220 1103 q 351 1090 322 1103 q 410 1051 380 1077 q 462 1011 439 1025 q 505 997 486 997 q 552 1027 537 997 q 568 1107 566 1058 l 663 1107 z "},"ó":{"ha":754,"x_min":39,"x_max":715,"o":"m 715 378 q 623 83 715 187 q 378 -21 531 -21 q 129 86 220 -21 q 39 378 39 194 q 132 673 39 568 q 378 779 225 779 q 623 674 531 779 q 715 378 715 569 m 584 378 q 530 597 584 526 q 378 669 477 669 q 224 597 278 669 q 170 378 170 526 q 224 162 170 236 q 378 89 278 89 q 530 161 476 89 q 584 378 584 233 m 589 1137 l 404 883 l 302 883 l 424 1137 l 589 1137 z "},"ò":{"ha":754,"x_min":39,"x_max":715,"o":"m 715 378 q 623 83 715 187 q 378 -21 531 -21 q 129 86 220 -21 q 39 378 39 194 q 132 673 39 568 q 378 779 225 779 q 623 674 531 779 q 715 378 715 569 m 584 378 q 530 597 584 526 q 378 669 477 669 q 224 597 278 669 q 170 378 170 526 q 224 162 170 236 q 378 89 278 89 q 530 161 476 89 q 584 378 584 233 m 452 883 l 351 883 l 166 1137 l 331 1137 l 452 883 z "},"ô":{"ha":754,"x_min":39,"x_max":715,"o":"m 715 378 q 623 83 715 187 q 378 -21 531 -21 q 129 86 220 -21 q 39 378 39 194 q 132 673 39 568 q 378 779 225 779 q 623 674 531 779 q 715 378 715 569 m 584 378 q 530 597 584 526 q 378 669 477 669 q 224 597 278 669 q 170 378 170 526 q 224 162 170 236 q 378 89 278 89 q 530 161 476 89 q 584 378 584 233 m 610 880 l 503 880 l 377 1053 l 252 880 l 147 880 l 302 1137 l 456 1137 l 610 880 z "},"ö":{"ha":754,"x_min":39,"x_max":715,"o":"m 715 378 q 623 83 715 187 q 378 -21 531 -21 q 129 86 220 -21 q 39 378 39 194 q 132 673 39 568 q 378 779 225 779 q 623 674 531 779 q 715 378 715 569 m 584 378 q 530 597 584 526 q 378 669 477 669 q 224 597 278 669 q 170 378 170 526 q 224 162 170 236 q 378 89 278 89 q 530 161 476 89 q 584 378 584 233 m 586 884 l 450 884 l 450 1017 l 586 1017 l 586 884 m 306 884 l 170 884 l 170 1017 l 306 1017 l 306 884 z "},"õ":{"ha":754,"x_min":39,"x_max":715,"o":"m 715 378 q 623 83 715 187 q 378 -21 531 -21 q 129 86 220 -21 q 39 378 39 194 q 132 673 39 568 q 378 779 225 779 q 623 674 531 779 q 715 378 715 569 m 584 378 q 530 597 584 526 q 378 669 477 669 q 224 597 278 669 q 170 378 170 526 q 224 162 170 236 q 378 89 278 89 q 530 161 476 89 q 584 378 584 233 m 649 1107 q 598 948 642 1001 q 482 895 555 895 q 417 908 447 895 q 359 948 387 921 q 307 990 329 976 q 264 1005 286 1005 q 218 975 231 1005 q 202 892 205 944 l 107 892 q 159 1050 112 997 q 273 1103 205 1103 q 337 1090 308 1103 q 395 1051 366 1077 q 448 1011 425 1025 q 491 997 471 997 q 537 1027 523 997 q 554 1107 552 1058 l 649 1107 z "},"ú":{"ha":774,"x_min":87,"x_max":682,"o":"m 682 0 l 555 0 l 555 84 q 443 6 496 33 q 325 -21 390 -21 q 232 -5 275 -21 q 155 47 188 12 q 105 136 123 82 q 87 266 87 189 l 87 758 l 214 758 l 214 326 q 219 226 214 266 q 239 157 223 186 q 281 114 254 127 q 358 100 308 100 q 458 127 405 100 q 555 192 511 153 l 555 758 l 682 758 l 682 0 m 589 1137 l 404 883 l 302 883 l 424 1137 l 589 1137 z "},"ù":{"ha":774,"x_min":87,"x_max":682,"o":"m 682 0 l 555 0 l 555 84 q 443 6 496 33 q 325 -21 390 -21 q 232 -5 275 -21 q 155 47 188 12 q 105 136 123 82 q 87 266 87 189 l 87 758 l 214 758 l 214 326 q 219 226 214 266 q 239 157 223 186 q 281 114 254 127 q 358 100 308 100 q 458 127 405 100 q 555 192 511 153 l 555 758 l 682 758 l 682 0 m 466 883 l 365 883 l 180 1137 l 345 1137 l 466 883 z "},"û":{"ha":774,"x_min":87,"x_max":682,"o":"m 682 0 l 555 0 l 555 84 q 443 6 496 33 q 325 -21 390 -21 q 232 -5 275 -21 q 155 47 188 12 q 105 136 123 82 q 87 266 87 189 l 87 758 l 214 758 l 214 326 q 219 226 214 266 q 239 157 223 186 q 281 114 254 127 q 358 100 308 100 q 458 127 405 100 q 555 192 511 153 l 555 758 l 682 758 l 682 0 m 616 880 l 508 880 l 382 1053 l 258 880 l 153 880 l 307 1137 l 461 1137 l 616 880 z "},"ü":{"ha":774,"x_min":87,"x_max":682,"o":"m 682 0 l 555 0 l 555 84 q 443 6 496 33 q 325 -21 390 -21 q 232 -5 275 -21 q 155 47 188 12 q 105 136 123 82 q 87 266 87 189 l 87 758 l 214 758 l 214 326 q 219 226 214 266 q 239 157 223 186 q 281 114 254 127 q 358 100 308 100 q 458 127 405 100 q 555 192 511 153 l 555 758 l 682 758 l 682 0 m 596 884 l 460 884 l 460 1017 l 596 1017 l 596 884 m 316 884 l 180 884 l 180 1017 l 316 1017 l 316 884 z "},"†":{"ha":758,"x_min":92,"x_max":667,"o":"m 667 701 l 420 705 l 424 92 l 334 92 l 338 705 l 92 701 l 92 789 l 338 785 l 334 1055 l 424 1055 l 420 785 l 667 789 l 667 701 z "},"°":{"ha":654,"x_min":68,"x_max":585,"o":"m 585 770 q 511 587 585 661 q 327 512 436 512 q 144 586 219 512 q 68 770 68 660 q 143 953 68 878 q 327 1027 218 1027 q 511 953 436 1027 q 585 770 585 878 m 479 770 q 435 880 479 835 q 327 924 392 924 q 218 880 262 924 q 175 770 175 835 q 219 659 175 703 q 327 615 264 615 q 435 660 392 615 q 479 770 479 705 z "},"¢":{"ha":758,"x_min":77,"x_max":661,"o":"m 378 1 q 155 116 232 18 q 77 378 77 214 q 157 640 77 539 q 378 756 237 740 l 378 1000 l 455 1000 l 455 757 q 569 739 514 755 q 661 703 623 723 l 661 568 l 654 568 q 565 628 612 602 q 455 663 517 654 l 455 96 q 522 111 488 99 q 578 137 555 123 q 622 165 603 151 q 654 191 641 179 l 661 191 l 661 56 q 569 20 617 36 q 455 1 522 4 l 455 -245 l 378 -245 l 378 1 m 378 99 l 378 659 q 254 573 299 644 q 208 378 208 503 q 255 181 208 250 q 378 99 301 113 z "},"£":{"ha":758,"x_min":60,"x_max":699,"o":"m 699 0 l 60 0 l 60 140 q 166 227 136 163 q 197 416 197 292 l 88 416 l 88 509 l 197 509 l 197 726 q 276 946 197 863 q 480 1029 355 1029 q 593 1019 546 1029 q 679 997 640 1008 l 679 857 l 672 857 q 585 901 633 885 q 493 916 536 916 q 369 864 410 916 q 328 713 328 812 l 328 509 l 574 509 l 574 416 l 328 416 l 328 374 q 288 230 328 295 q 177 123 248 165 l 177 116 l 699 116 l 699 0 z "},"§":{"ha":758,"x_min":81,"x_max":677,"o":"m 515 272 q 540 318 531 296 q 549 376 549 340 q 539 434 549 410 q 513 474 530 458 q 475 500 496 490 q 425 519 453 511 q 372 535 402 526 q 305 555 342 543 q 277 535 292 547 q 245 500 262 523 q 220 453 231 483 q 209 393 209 423 q 235 305 209 338 q 334 250 260 273 q 386 234 357 243 q 452 214 416 225 q 482 236 465 222 q 515 272 499 250 m 123 -90 q 167 -110 141 -99 q 218 -129 193 -121 q 277 -144 250 -139 q 345 -149 304 -149 q 474 -118 422 -149 q 526 -24 526 -86 q 514 35 526 12 q 473 75 501 58 q 403 104 445 92 q 312 130 361 116 q 213 165 252 147 q 141 212 173 182 q 96 276 111 239 q 81 361 81 313 q 114 483 81 425 q 216 582 147 540 l 216 587 q 127 669 154 621 q 100 778 100 717 q 187 961 100 892 q 426 1030 274 1030 q 532 1021 484 1030 q 642 991 581 1013 l 642 860 l 635 860 q 521 905 574 890 q 412 919 469 919 q 283 888 336 919 q 231 798 231 857 q 244 734 231 759 q 285 694 258 710 q 352 665 311 678 q 446 639 393 652 q 624 552 570 605 q 677 408 677 498 q 640 279 677 334 q 542 188 603 224 l 542 183 q 629 104 601 152 q 657 -7 657 57 q 636 -105 657 -57 q 575 -186 614 -153 q 474 -241 533 -222 q 332 -261 416 -261 q 226 -252 279 -261 q 117 -222 173 -242 l 117 -90 l 123 -90 z "},"•":{"ha":631,"x_min":77,"x_max":554,"o":"m 554 449 q 484 281 554 351 q 315 211 414 211 q 147 281 217 211 q 77 449 77 351 q 147 617 77 547 q 315 687 217 687 q 484 617 414 687 q 554 449 554 547 z "},"¶":{"ha":758,"x_min":39,"x_max":666,"o":"m 666 -246 l 571 -246 l 571 922 l 444 922 l 444 -246 l 349 -246 l 349 402 q 124 490 210 406 q 39 712 39 574 q 127 931 39 852 q 380 1010 215 1010 l 666 1010 l 666 -246 z "},"ß":{"ha":762,"x_min":92,"x_max":724,"o":"m 724 326 q 633 81 724 178 q 395 -16 541 -16 q 352 -14 378 -16 q 312 -9 327 -12 l 312 103 l 319 103 q 359 95 338 98 q 400 92 380 92 q 489 110 452 92 q 549 161 526 129 q 582 236 572 195 q 592 332 592 277 q 522 500 592 446 q 316 554 452 554 l 316 661 q 474 700 419 661 q 530 829 530 739 q 523 875 530 851 q 500 918 516 899 q 458 950 484 938 q 392 962 432 962 q 327 952 356 962 q 272 915 298 942 q 234 845 248 890 q 220 736 220 800 l 220 0 l 92 0 l 92 732 q 115 880 92 821 q 180 982 138 940 q 276 1042 220 1023 q 395 1062 332 1062 q 584 1004 509 1062 q 660 842 660 947 q 612 705 660 766 q 487 623 564 645 l 487 617 q 661 517 598 592 q 724 326 724 443 z "},"®":{"ha":1290,"x_min":58,"x_max":1232,"o":"m 1232 444 q 1060 30 1232 201 q 645 -142 888 -142 q 230 30 402 -142 q 58 444 58 201 q 230 859 58 687 q 645 1030 402 1030 q 1060 859 888 1030 q 1232 444 1232 687 m 1154 444 q 1005 806 1154 656 q 646 956 856 956 q 287 806 435 956 q 138 444 138 656 q 287 82 138 232 q 646 -68 435 -68 q 1005 82 856 -68 q 1154 444 1154 232 m 982 146 l 828 146 l 636 387 l 553 387 l 553 146 l 441 146 l 441 766 l 630 766 q 731 762 694 766 q 806 735 768 757 q 865 680 846 712 q 883 596 883 647 q 845 485 883 528 q 747 417 808 441 l 982 146 m 760 589 q 751 632 760 614 q 723 663 743 650 q 685 678 706 674 q 631 682 664 682 l 553 682 l 553 472 l 619 472 q 680 478 652 472 q 726 500 709 485 q 752 536 744 516 q 760 589 760 557 z "},"©":{"ha":1290,"x_min":58,"x_max":1232,"o":"m 1232 444 q 1060 30 1232 201 q 645 -142 888 -142 q 230 30 402 -142 q 58 444 58 201 q 230 859 58 687 q 645 1030 402 1030 q 1060 859 888 1030 q 1232 444 1232 687 m 1154 444 q 1005 806 1154 656 q 646 956 856 956 q 287 806 435 956 q 138 444 138 656 q 287 82 138 232 q 646 -68 435 -68 q 1005 82 856 -68 q 1154 444 1154 232 m 864 173 q 773 137 819 153 q 666 122 728 122 q 442 206 524 122 q 360 448 360 290 q 445 689 360 604 q 666 775 530 775 q 774 760 722 775 q 864 726 825 745 l 864 603 l 853 603 q 772 652 824 629 q 669 675 721 675 q 535 620 585 675 q 486 448 486 564 q 533 280 486 338 q 669 222 581 222 q 777 247 726 222 q 853 294 827 271 l 864 294 l 864 173 z "},"™":{"ha":1217,"x_min":73,"x_max":1108,"o":"m 1108 532 l 1024 532 l 1024 950 l 1010 950 l 872 643 l 814 643 l 675 955 l 658 955 l 658 532 l 574 532 l 574 1010 l 736 1010 l 845 751 l 954 1010 l 1108 1010 l 1108 532 m 469 930 l 314 930 l 314 532 l 228 532 l 228 930 l 73 930 l 73 1010 l 469 1010 l 469 930 z "},"´":{"ha":758,"x_min":304,"x_max":591,"o":"m 591 1137 l 406 883 l 304 883 l 426 1137 l 591 1137 z "},"¨":{"ha":758,"x_min":172,"x_max":588,"o":"m 588 884 l 452 884 l 452 1017 l 588 1017 l 588 884 m 308 884 l 172 884 l 172 1017 l 308 1017 l 308 884 z "},"≠":{"ha":1010,"x_min":130,"x_max":880,"o":"m 880 245 l 495 245 l 424 18 l 320 18 l 391 245 l 130 245 l 130 351 l 425 351 l 481 533 l 130 533 l 130 639 l 514 639 l 585 866 l 689 866 l 618 639 l 880 639 l 880 533 l 585 533 l 528 351 l 880 351 l 880 245 z "},"Æ":{"ha":1268,"x_min":-26,"x_max":1222,"o":"m 1222 0 l 604 0 l 604 378 l 261 378 l 114 0 l -26 0 l 382 1010 l 1222 1010 l 1222 890 l 736 890 l 736 614 l 1188 614 l 1188 494 l 736 494 l 736 119 l 1222 119 l 1222 0 m 604 490 l 604 898 l 472 898 l 306 490 l 604 490 z "},"Ø":{"ha":983,"x_min":45,"x_max":938,"o":"m 938 505 q 816 117 938 255 q 491 -21 694 -21 q 352 -1 416 -21 q 236 54 288 18 l 146 -79 l 46 -79 l 174 110 q 79 276 113 177 q 45 505 45 375 q 167 892 45 754 q 491 1031 290 1031 q 629 1012 568 1031 q 744 956 690 994 l 822 1072 l 922 1072 l 806 902 q 903 737 868 834 q 938 505 938 640 m 675 854 q 593 900 640 884 q 492 915 547 915 q 267 810 351 915 q 183 505 183 706 q 201 342 183 413 q 250 220 218 271 l 675 854 m 800 505 q 781 671 800 598 q 731 793 762 745 l 305 157 q 387 111 344 126 q 492 95 430 95 q 715 200 631 95 q 800 505 800 306 z "},"∞":{"ha":1263,"x_min":75,"x_max":1188,"o":"m 1188 450 q 1111 200 1188 294 q 897 106 1034 106 q 738 161 810 106 q 624 309 665 216 q 504 156 572 205 q 344 106 437 106 q 148 199 220 106 q 75 435 75 292 q 154 687 75 595 q 366 779 234 779 q 525 724 452 779 q 639 576 597 669 q 759 728 690 677 q 919 779 828 779 q 1115 686 1042 779 q 1188 450 1188 593 m 592 494 q 494 613 551 574 q 376 653 437 653 q 238 597 287 653 q 190 435 190 542 q 232 286 190 339 q 346 233 275 233 q 443 258 404 233 q 527 362 482 283 q 561 425 544 392 q 592 494 577 457 m 1073 450 q 1030 600 1073 547 q 917 652 987 652 q 819 626 857 652 q 735 523 780 600 q 700 457 713 486 q 671 391 686 428 q 768 272 710 312 q 887 232 826 232 q 1024 287 976 232 q 1073 450 1073 342 z "},"±":{"ha":1010,"x_min":110,"x_max":901,"o":"m 901 108 l 110 108 l 110 215 l 449 215 l 449 501 l 110 501 l 110 608 l 449 608 l 449 951 l 562 951 l 562 608 l 901 608 l 901 501 l 562 501 l 562 215 l 901 215 l 901 108 z "},"≤":{"ha":1010,"x_min":136,"x_max":865,"o":"m 865 207 l 136 534 l 136 616 l 865 943 l 865 821 l 314 575 l 865 330 l 865 207 m 865 0 l 136 0 l 136 109 l 865 109 l 865 0 z "},"≥":{"ha":1010,"x_min":146,"x_max":874,"o":"m 874 534 l 146 207 l 146 330 l 696 575 l 146 821 l 146 943 l 874 616 l 874 534 m 874 0 l 146 0 l 146 109 l 874 109 l 874 0 z "},"¥":{"ha":758,"x_min":38,"x_max":718,"o":"m 718 1010 l 441 460 l 441 392 l 673 392 l 673 298 l 443 298 l 443 0 l 315 0 l 315 298 l 85 298 l 85 392 l 317 392 l 317 446 l 38 1010 l 180 1010 l 380 576 l 582 1010 l 718 1010 z "},"µ":{"ha":789,"x_min":92,"x_max":696,"o":"m 696 0 l 580 0 l 580 79 l 576 79 q 494 12 535 36 q 392 -12 453 -12 q 294 12 330 -12 q 220 78 258 36 l 220 -279 l 92 -279 l 92 758 l 220 758 l 220 186 q 291 132 248 153 q 392 111 334 111 q 495 131 453 111 q 569 186 536 151 l 569 758 l 696 758 l 696 0 z "},"∂":{"ha":758,"x_min":45,"x_max":701,"o":"m 701 568 q 695 464 701 522 q 678 348 690 406 q 646 233 666 290 q 595 129 625 175 q 474 12 540 45 q 335 -21 409 -21 q 126 63 206 -21 q 45 288 45 146 q 134 540 45 442 q 355 638 222 638 q 466 621 414 638 q 568 559 517 603 q 570 595 570 576 q 570 634 570 613 q 519 849 570 781 q 370 918 469 918 q 258 897 316 918 q 148 838 199 876 l 139 838 l 139 970 q 261 1015 193 1000 q 388 1030 329 1030 q 548 992 483 1030 q 654 872 614 954 q 691 743 682 814 q 701 568 701 671 m 564 460 q 477 510 526 491 q 380 528 427 528 q 235 468 289 528 q 181 290 181 408 q 224 139 181 191 q 339 87 267 87 q 495 184 436 87 q 564 460 554 281 z "},"∑":{"ha":884,"x_min":85,"x_max":833,"o":"m 833 -128 l 85 -128 l 85 1 l 510 454 l 92 882 l 92 1010 l 806 1010 l 806 890 l 259 890 l 667 485 l 667 436 l 241 -9 l 833 -9 l 833 -128 z "},"∏":{"ha":945,"x_min":106,"x_max":839,"o":"m 839 1010 l 839 -128 l 705 -128 l 705 890 l 240 890 l 240 -128 l 106 -128 l 106 1010 l 839 1010 z "},"∫":{"ha":758,"x_min":50,"x_max":711,"o":"m 711 928 l 704 928 q 649 941 684 935 q 595 947 614 947 q 476 906 509 947 q 443 763 443 866 l 443 1 q 371 -214 443 -141 q 179 -287 300 -287 q 115 -284 146 -287 q 50 -274 84 -281 l 50 -153 l 57 -153 q 113 -166 83 -161 q 163 -172 142 -172 q 282 -131 250 -172 q 315 12 315 -91 l 315 774 q 387 989 315 916 q 579 1062 458 1062 q 650 1058 618 1062 q 711 1049 682 1055 l 711 928 z "},"ª":{"ha":685,"x_min":77,"x_max":593,"o":"m 593 384 l 480 384 l 480 446 q 446 419 467 435 q 403 394 424 404 q 348 374 375 381 q 274 367 321 367 q 134 424 190 367 q 77 569 77 480 q 106 684 77 640 q 190 754 136 728 q 318 789 241 779 q 480 803 395 799 l 480 816 q 469 873 480 851 q 436 907 458 895 q 387 922 416 918 q 327 926 358 926 q 219 910 274 926 q 138 884 165 894 l 128 884 l 128 1000 q 217 1019 158 1008 q 328 1030 277 1030 q 525 978 458 1030 q 593 810 593 926 l 593 384 m 480 544 l 480 709 q 378 701 436 706 q 285 685 319 695 q 219 647 244 673 q 194 576 194 621 q 224 498 194 525 q 313 472 254 472 q 405 494 364 472 q 480 544 446 517 z "},"º":{"ha":685,"x_min":58,"x_max":628,"o":"m 628 699 q 549 453 628 540 q 343 366 469 366 q 135 455 212 366 q 58 699 58 545 q 137 944 58 857 q 343 1031 216 1031 q 549 945 470 1031 q 628 699 628 859 m 506 699 q 462 872 506 816 q 343 929 418 929 q 224 873 268 929 q 180 699 180 817 q 223 526 180 584 q 343 468 267 468 q 462 526 418 468 q 506 699 506 584 z "},"Ω":{"ha":975,"x_min":29,"x_max":951,"o":"m 951 0 l 572 0 l 572 262 q 654 319 614 288 q 722 388 694 350 q 768 478 752 430 q 784 606 784 526 q 766 727 784 670 q 711 825 748 784 q 619 891 675 867 q 490 915 563 915 q 361 891 416 915 q 266 825 305 867 q 211 727 230 785 q 191 606 191 668 q 209 478 191 532 q 257 387 227 425 q 328 318 288 349 q 408 262 368 288 l 408 0 l 29 0 l 29 118 l 296 118 l 296 202 q 202 271 246 231 q 124 362 158 311 q 71 475 90 414 q 52 606 52 536 q 81 775 52 700 q 168 909 111 850 q 307 998 223 966 q 490 1031 390 1031 q 672 999 591 1031 q 810 910 753 968 q 895 775 865 853 q 924 606 924 698 q 905 474 924 536 q 854 363 886 413 q 779 272 823 313 q 685 202 736 231 l 685 118 l 951 118 l 951 0 z "},"æ":{"ha":1222,"x_min":39,"x_max":1186,"o":"m 554 202 q 534 283 541 239 q 528 378 528 328 q 399 373 463 376 q 284 355 335 369 q 202 310 234 341 q 170 224 170 279 q 208 128 170 159 q 321 96 246 96 q 446 126 383 96 q 554 202 509 156 m 909 94 q 994 103 953 94 q 1066 127 1035 113 q 1124 158 1101 143 q 1164 185 1148 172 l 1171 185 l 1171 46 q 1115 24 1149 37 q 1055 3 1082 11 q 988 -12 1018 -7 q 910 -18 958 -18 q 723 18 801 -18 q 595 123 645 53 q 551 82 581 110 q 489 36 522 55 q 398 -5 445 10 q 276 -20 351 -20 q 108 46 177 -20 q 39 215 39 112 q 75 353 39 302 q 177 433 111 404 q 334 468 239 459 q 533 479 429 477 l 533 518 q 518 591 533 562 q 477 637 504 621 q 418 658 453 652 q 339 665 383 665 q 219 647 284 665 q 116 612 155 629 l 106 612 l 106 741 q 209 764 139 751 q 340 777 278 777 q 516 745 448 777 q 620 652 584 712 q 732 743 665 707 q 879 779 799 779 q 1108 687 1031 779 q 1186 435 1186 596 l 1186 379 l 652 379 q 672 247 652 302 q 728 157 692 191 q 810 108 764 123 q 909 94 855 94 m 1063 477 q 1049 553 1059 517 q 1017 616 1038 589 q 959 657 996 642 q 873 673 922 673 q 785 659 820 673 q 721 616 750 644 q 677 554 694 591 q 654 477 661 517 l 1063 477 z "},"ø":{"ha":754,"x_min":28,"x_max":716,"o":"m 715 378 q 623 83 715 187 q 378 -20 531 -20 q 279 -6 324 -20 q 195 32 235 7 l 112 -100 l 28 -100 l 142 77 q 66 204 93 129 q 39 378 39 279 q 132 673 39 568 q 378 778 225 778 q 474 764 429 778 q 558 726 519 751 l 631 841 l 716 841 l 613 681 q 688 555 661 629 q 715 378 715 481 m 498 632 q 446 659 475 650 q 378 669 416 669 q 223 596 278 669 q 168 378 168 523 q 178 263 168 313 q 208 178 188 214 l 498 632 m 586 378 q 576 496 586 446 q 547 581 566 546 l 256 127 q 310 98 282 107 q 378 89 338 89 q 531 161 476 89 q 586 378 586 233 z "},"¿":{"ha":658,"x_min":39,"x_max":584,"o":"m 429 867 l 290 867 l 290 1010 l 429 1010 l 429 867 m 584 27 q 471 -7 530 7 q 338 -20 411 -20 q 119 51 199 -20 q 39 237 39 121 q 60 351 39 301 q 120 447 80 401 q 203 519 156 487 q 301 584 250 551 l 301 739 l 422 739 l 422 532 q 333 477 374 503 q 255 416 292 451 q 199 342 220 384 q 178 248 178 301 q 226 133 178 171 q 351 96 274 96 q 481 119 418 96 q 576 165 543 142 l 584 165 l 584 27 z "},"¡":{"ha":461,"x_min":155,"x_max":307,"o":"m 300 867 l 161 867 l 161 1010 l 300 1010 l 300 867 m 307 0 l 155 0 l 174 732 l 286 732 l 307 0 z "},"¬":{"ha":1010,"x_min":106,"x_max":897,"o":"m 897 39 l 781 39 l 781 408 l 106 408 l 106 517 l 897 517 l 897 39 z "},"√":{"ha":1010,"x_min":55,"x_max":1054,"o":"m 1054 1213 l 518 -102 l 448 -102 l 216 571 l 55 571 l 55 665 l 321 665 l 501 125 l 944 1213 l 1054 1213 z "},"ƒ":{"ha":758,"x_min":-33,"x_max":737,"o":"m 737 895 l 730 895 q 677 911 712 902 q 616 920 642 920 q 507 879 541 920 q 458 734 473 838 l 438 600 l 636 600 l 636 506 l 426 506 l 378 159 q 286 -67 357 3 q 92 -137 214 -137 q 33 -134 65 -137 q -33 -125 1 -131 l -33 -2 l -26 -2 q 26 -18 -7 -9 q 87 -27 60 -27 q 198 14 163 -27 q 246 159 233 56 l 295 506 l 174 506 l 174 600 l 307 600 l 326 734 q 362 874 337 817 q 425 966 387 930 q 510 1015 460 1000 q 612 1030 559 1030 q 674 1027 646 1030 q 737 1018 702 1024 l 737 895 z "},"≈":{"ha":1010,"x_min":129,"x_max":881,"o":"m 880 749 q 812 550 867 616 q 652 483 757 483 q 560 508 606 483 q 478 564 514 533 q 417 608 459 581 q 345 636 374 636 q 274 604 296 636 q 234 488 252 572 l 129 488 q 199 677 143 610 q 357 743 256 743 q 449 719 402 743 q 532 663 495 694 q 596 616 556 642 q 665 590 635 590 q 736 626 711 590 q 774 749 762 663 l 880 749 m 881 399 q 811 208 865 273 q 652 142 758 142 q 561 167 607 142 q 477 223 514 192 q 413 270 452 244 q 345 295 374 295 q 272 257 296 295 q 235 137 248 220 l 129 137 q 198 335 140 267 q 357 402 256 402 q 451 377 405 402 q 531 321 496 351 q 592 276 552 304 q 664 249 632 249 q 734 283 711 249 q 774 399 758 317 l 881 399 z "},"∆":{"ha":860,"x_min":-7,"x_max":867,"o":"m 867 0 l -7 0 l 347 1010 l 513 1010 l 867 0 m 685 117 l 427 876 l 169 117 l 685 117 z "},"«":{"ha":796,"x_min":70,"x_max":707,"o":"m 707 130 l 376 414 l 376 471 l 707 755 l 707 627 l 492 442 l 707 257 l 707 130 m 416 110 l 70 412 l 70 473 l 416 774 l 416 642 l 191 442 l 416 243 l 416 110 z "},"»":{"ha":796,"x_min":89,"x_max":726,"o":"m 726 412 l 380 110 l 380 243 l 605 442 l 380 642 l 380 774 l 726 473 l 726 412 m 420 414 l 89 130 l 89 257 l 304 442 l 89 627 l 89 755 l 420 471 l 420 414 z "},"…":{"ha":1135,"x_min":120,"x_max":1015,"o":"m 1015 0 l 877 0 l 877 151 l 1015 151 l 1015 0 m 637 0 l 498 0 l 498 151 l 637 151 l 637 0 m 258 0 l 120 0 l 120 151 l 258 151 l 258 0 z "},"À":{"ha":833,"x_min":-7,"x_max":840,"o":"m -7 0 l 334 1010 l 499 1010 l 840 0 l 698 0 l 606 282 l 220 282 l 129 0 l -7 0 m 569 397 l 413 873 l 258 397 l 569 397 m 522 1136 l 420 1136 l 235 1390 l 400 1390 l 522 1136 z "},"Ã":{"ha":833,"x_min":-7,"x_max":840,"o":"m -7 0 l 334 1010 l 499 1010 l 840 0 l 698 0 l 606 282 l 220 282 l 129 0 l -7 0 m 569 397 l 413 873 l 258 397 l 569 397 m 685 1333 q 634 1174 678 1227 q 518 1121 591 1121 q 453 1134 483 1121 q 395 1174 423 1147 q 343 1216 365 1202 q 300 1231 321 1231 q 254 1200 267 1231 q 238 1118 241 1170 l 143 1118 q 195 1276 148 1223 q 309 1329 241 1329 q 373 1316 344 1329 q 431 1277 402 1303 q 484 1237 460 1251 q 527 1223 507 1223 q 573 1253 559 1223 q 590 1333 588 1284 l 685 1333 z "},"Õ":{"ha":983,"x_min":45,"x_max":938,"o":"m 817 894 q 906 729 874 827 q 938 505 938 631 q 907 283 938 382 q 817 117 876 184 q 672 13 755 46 q 491 -21 590 -21 q 307 14 389 -21 q 165 117 224 48 q 76 282 107 184 q 45 505 45 380 q 76 728 45 632 q 166 894 108 825 q 307 996 224 961 q 491 1031 389 1031 q 677 995 594 1031 q 817 894 760 959 m 798 505 q 777 682 798 605 q 715 810 755 760 q 619 889 675 863 q 492 915 562 915 q 364 889 418 915 q 267 810 309 864 q 206 681 227 759 q 184 505 184 603 q 268 200 184 306 q 492 95 351 95 q 715 200 632 95 q 798 505 798 306 m 753 1346 q 702 1187 746 1240 q 586 1135 659 1135 q 521 1147 551 1135 q 463 1187 491 1160 q 411 1230 433 1215 q 368 1244 389 1244 q 322 1214 335 1244 q 306 1132 309 1183 l 211 1132 q 262 1290 216 1236 q 377 1343 309 1343 q 441 1330 412 1343 q 499 1291 470 1316 q 552 1250 528 1264 q 595 1236 575 1236 q 641 1267 627 1236 q 658 1346 656 1297 l 753 1346 z "},"Œ":{"ha":1356,"x_min":45,"x_max":1310,"o":"m 1310 0 l 611 0 q 402 18 486 0 q 250 80 318 35 q 98 252 152 144 q 45 506 45 359 q 102 757 45 648 q 252 928 159 867 q 394 989 312 969 q 610 1010 475 1010 l 1310 1010 l 1310 890 l 820 890 l 820 614 l 1276 614 l 1276 494 l 820 494 l 820 119 l 1310 119 l 1310 0 m 686 116 l 686 894 l 606 894 q 442 879 505 894 q 325 827 378 863 q 220 700 255 781 q 184 504 184 618 q 223 305 184 387 q 338 176 262 222 q 455 129 394 142 q 604 116 517 116 l 686 116 z "},"œ":{"ha":1262,"x_min":39,"x_max":1226,"o":"m 1102 463 q 1054 622 1099 570 q 917 673 1008 673 q 771 618 830 673 q 705 463 713 562 l 1102 463 m 581 378 q 527 597 581 526 q 376 669 474 669 q 223 594 275 669 q 170 378 170 519 q 223 162 170 236 q 376 89 277 89 q 527 162 473 89 q 581 378 581 235 m 951 94 q 1034 103 994 94 q 1107 127 1074 113 q 1165 158 1141 143 q 1204 185 1189 172 l 1212 185 l 1212 46 q 1156 24 1190 37 q 1097 3 1123 11 q 1029 -12 1059 -7 q 953 -18 999 -18 q 773 18 853 -18 q 646 121 694 54 q 534 15 600 52 q 376 -21 468 -21 q 129 86 219 -21 q 39 378 39 193 q 130 673 39 567 q 376 779 222 779 q 535 741 465 779 q 648 635 605 704 q 765 741 694 704 q 924 779 837 779 q 1148 688 1070 779 q 1226 435 1226 598 l 1226 366 l 705 366 q 770 164 705 235 q 951 94 836 94 z "},"–":{"ha":758,"x_min":-3,"x_max":761,"o":"m 761 388 l -3 388 l -3 496 l 761 496 l 761 388 z "},"—":{"ha":1263,"x_min":-3,"x_max":1265,"o":"m 1265 388 l -3 388 l -3 496 l 1265 496 l 1265 388 z "},"“":{"ha":557,"x_min":-43,"x_max":492,"o":"m 492 676 l 401 676 l 224 1055 l 385 1055 l 492 676 m 224 676 l 134 676 l -43 1055 l 118 1055 l 224 676 z "},"”":{"ha":557,"x_min":73,"x_max":608,"o":"m 608 1055 l 431 676 l 340 676 l 446 1055 l 608 1055 m 340 1055 l 163 676 l 73 676 l 179 1055 l 340 1055 z "},"‘":{"ha":293,"x_min":-43,"x_max":227,"o":"m 227 676 l 134 676 l -43 1055 l 121 1055 l 227 676 z "},"’":{"ha":293,"x_min":66,"x_max":336,"o":"m 336 1055 l 159 676 l 66 676 l 172 1055 l 336 1055 z "},"÷":{"ha":1010,"x_min":106,"x_max":904,"o":"m 586 686 l 425 686 l 425 873 l 586 873 l 586 686 m 904 388 l 106 388 l 106 496 l 904 496 l 904 388 m 586 12 l 425 12 l 425 198 l 586 198 l 586 12 z "},"◊":{"ha":1010,"x_min":81,"x_max":930,"o":"m 930 444 l 505 -38 l 81 444 l 505 925 l 930 444 m 782 444 l 505 766 l 229 444 l 505 122 l 782 444 z "},"ÿ":{"ha":692,"x_min":4,"x_max":688,"o":"m 688 758 l 280 -279 l 144 -279 l 279 37 l 4 758 l 142 758 l 349 197 l 555 758 l 688 758 m 562 884 l 426 884 l 426 1017 l 562 1017 l 562 884 m 282 884 l 146 884 l 146 1017 l 282 1017 l 282 884 z "},"Ÿ":{"ha":800,"x_min":-7,"x_max":809,"o":"m 809 1010 l 468 447 l 468 0 l 334 0 l 334 433 l -7 1010 l 142 1010 l 402 564 l 667 1010 l 809 1010 m 610 1137 l 474 1137 l 474 1270 l 610 1270 l 610 1137 m 330 1137 l 194 1137 l 194 1270 l 330 1270 l 330 1137 z "},"⁄":{"ha":601,"x_min":-20,"x_max":621,"o":"m 621 1010 l 92 0 l -20 0 l 509 1010 l 621 1010 z "},"€":{"ha":758,"x_min":-19,"x_max":727,"o":"m 641 449 l 623 355 l 202 355 q 301 174 232 240 q 498 98 380 98 q 718 160 625 98 l 727 160 l 727 29 q 497 -18 612 -18 q 196 89 311 -18 q 58 355 92 186 l -19 355 l 0 449 l 47 449 q 45 504 45 476 q 45 543 45 524 l -19 543 l 0 636 l 56 636 q 197 917 87 814 q 499 1028 315 1028 q 727 980 620 1028 l 727 848 l 716 848 q 498 913 621 913 q 293 830 373 913 q 198 636 224 758 l 679 636 l 661 543 l 186 543 q 184 504 184 524 q 186 449 184 476 l 641 449 z "},"‹":{"ha":532,"x_min":83,"x_max":429,"o":"m 429 117 l 83 412 l 83 473 l 429 768 l 429 633 l 205 442 l 429 252 l 429 117 z "},"›":{"ha":532,"x_min":102,"x_max":448,"o":"m 448 412 l 102 117 l 102 252 l 327 442 l 102 633 l 102 768 l 448 473 l 448 412 z "},"ﬁ":{"ha":741,"x_min":20,"x_max":647,"o":"m 647 0 l 519 0 l 519 654 l 233 654 l 233 0 l 106 0 l 106 652 l 20 652 l 20 758 l 106 758 l 106 796 q 172 991 106 920 q 341 1062 237 1062 q 405 1058 376 1062 q 453 1052 434 1055 l 453 935 l 446 935 q 410 945 435 939 q 357 951 385 951 q 257 914 286 951 q 229 797 229 877 l 229 758 l 647 758 l 647 0 m 647 884 l 510 884 l 510 1017 l 647 1017 l 647 884 z "},"ﬂ":{"ha":736,"x_min":20,"x_max":643,"o":"m 643 0 l 515 0 l 515 952 q 470 956 497 954 q 427 957 444 957 q 273 921 317 957 q 229 789 229 884 l 229 758 l 394 758 l 394 652 l 233 652 l 233 0 l 106 0 l 106 652 l 20 652 l 20 758 l 106 758 l 106 791 q 127 911 106 861 q 189 996 149 961 q 285 1045 226 1028 q 412 1062 345 1062 q 501 1057 453 1062 q 576 1050 549 1053 l 643 1055 l 643 0 z "},"‡":{"ha":758,"x_min":92,"x_max":667,"o":"m 667 344 l 420 347 l 424 84 l 334 84 l 338 347 l 92 344 l 92 431 l 338 428 l 338 711 l 92 708 l 92 795 l 338 792 l 334 1055 l 424 1055 l 420 792 l 667 795 l 667 708 l 420 711 l 420 428 l 667 431 l 667 344 z "},"∙":{"ha":420,"x_min":129,"x_max":291,"o":"m 291 350 l 129 350 l 129 535 l 291 535 l 291 350 z "},"‚":{"ha":293,"x_min":-9,"x_max":262,"o":"m 262 192 l 85 -187 l -9 -187 l 98 192 l 262 192 z "},"„":{"ha":552,"x_min":-5,"x_max":530,"o":"m 530 192 l 353 -187 l 262 -187 l 368 192 l 530 192 m 262 192 l 85 -187 l -5 -187 l 101 192 l 262 192 z "},"‰":{"ha":1931,"x_min":69,"x_max":1859,"o":"m 547 730 q 486 504 547 577 q 309 430 425 430 q 130 505 191 430 q 69 729 69 579 q 131 955 69 881 q 309 1029 193 1029 q 487 954 427 1029 q 547 730 547 880 m 999 1010 l 470 0 l 358 0 l 887 1010 l 999 1010 m 1286 280 q 1225 54 1286 127 q 1048 -20 1164 -20 q 869 55 930 -20 q 808 279 808 130 q 870 505 808 431 q 1048 579 932 579 q 1226 505 1166 579 q 1286 280 1286 430 m 427 730 q 402 886 427 833 q 309 939 378 939 q 214 885 239 939 q 190 729 190 831 q 213 574 190 627 q 309 520 236 520 q 402 574 378 520 q 427 730 427 627 m 1166 280 q 1142 436 1166 383 q 1048 489 1118 489 q 954 435 978 489 q 929 279 929 382 q 952 124 929 178 q 1048 71 975 71 q 1142 124 1118 71 q 1166 280 1166 178 m 1859 280 q 1797 54 1859 127 q 1620 -20 1736 -20 q 1441 55 1502 -20 q 1381 279 1381 130 q 1442 505 1381 431 q 1620 579 1504 579 q 1799 505 1738 579 q 1859 280 1859 430 m 1738 280 q 1714 436 1738 383 q 1620 489 1690 489 q 1526 435 1550 489 q 1501 279 1501 382 q 1525 124 1501 178 q 1620 71 1548 71 q 1714 124 1690 71 q 1738 280 1738 178 z "},"Â":{"ha":833,"x_min":-7,"x_max":840,"o":"m -7 0 l 334 1010 l 499 1010 l 840 0 l 698 0 l 606 282 l 220 282 l 129 0 l -7 0 m 569 397 l 413 873 l 258 397 l 569 397 m 637 1119 l 530 1119 l 404 1293 l 279 1119 l 174 1119 l 329 1376 l 483 1376 l 637 1119 z "},"Ê":{"ha":779,"x_min":102,"x_max":734,"o":"m 102 0 l 102 1010 l 734 1010 l 734 890 l 237 890 l 237 614 l 700 614 l 700 494 l 237 494 l 237 119 l 734 119 l 734 0 l 102 0 m 652 1133 l 544 1133 l 418 1306 l 294 1133 l 189 1133 l 343 1390 l 497 1390 l 652 1133 z "},"Á":{"ha":833,"x_min":-7,"x_max":840,"o":"m -7 0 l 334 1010 l 499 1010 l 840 0 l 698 0 l 606 282 l 220 282 l 129 0 l -7 0 m 569 397 l 413 873 l 258 397 l 569 397 m 585 1390 l 399 1136 l 298 1136 l 420 1390 l 585 1390 z "},"Ë":{"ha":779,"x_min":102,"x_max":734,"o":"m 102 0 l 102 1010 l 734 1010 l 734 890 l 237 890 l 237 614 l 700 614 l 700 494 l 237 494 l 237 119 l 734 119 l 734 0 l 102 0 m 655 1137 l 519 1137 l 519 1270 l 655 1270 l 655 1137 m 375 1137 l 239 1137 l 239 1270 l 375 1270 l 375 1137 z "},"È":{"ha":779,"x_min":102,"x_max":734,"o":"m 102 0 l 102 1010 l 734 1010 l 734 890 l 237 890 l 237 614 l 700 614 l 700 494 l 237 494 l 237 119 l 734 119 l 734 0 l 102 0 m 511 1136 l 410 1136 l 225 1390 l 390 1390 l 511 1136 z "},"Í":{"ha":518,"x_min":63,"x_max":455,"o":"m 455 0 l 63 0 l 63 103 l 192 103 l 192 907 l 63 907 l 63 1010 l 455 1010 l 455 907 l 326 907 l 326 103 l 455 103 l 455 0 m 446 1390 l 260 1136 l 159 1136 l 281 1390 l 446 1390 z "},"Î":{"ha":518,"x_min":28,"x_max":492,"o":"m 455 0 l 63 0 l 63 103 l 192 103 l 192 907 l 63 907 l 63 1010 l 455 1010 l 455 907 l 326 907 l 326 103 l 455 103 l 455 0 m 492 1133 l 384 1133 l 258 1306 l 134 1133 l 28 1133 l 183 1390 l 337 1390 l 492 1133 z "},"Ï":{"ha":518,"x_min":52,"x_max":468,"o":"m 455 0 l 63 0 l 63 103 l 192 103 l 192 907 l 63 907 l 63 1010 l 455 1010 l 455 907 l 326 907 l 326 103 l 455 103 l 455 0 m 468 1137 l 332 1137 l 332 1270 l 468 1270 l 468 1137 m 188 1137 l 52 1137 l 52 1270 l 188 1270 l 188 1137 z "},"Ì":{"ha":518,"x_min":63,"x_max":455,"o":"m 455 0 l 63 0 l 63 103 l 192 103 l 192 907 l 63 907 l 63 1010 l 455 1010 l 455 907 l 326 907 l 326 103 l 455 103 l 455 0 m 359 1136 l 258 1136 l 73 1390 l 237 1390 l 359 1136 z "},"Ó":{"ha":983,"x_min":45,"x_max":938,"o":"m 817 894 q 906 729 874 827 q 938 505 938 631 q 907 283 938 382 q 817 117 876 184 q 672 13 755 46 q 491 -21 590 -21 q 307 14 389 -21 q 165 117 224 48 q 76 282 107 184 q 45 505 45 380 q 76 728 45 632 q 166 894 108 825 q 307 996 224 961 q 491 1031 389 1031 q 677 995 594 1031 q 817 894 760 959 m 798 505 q 777 682 798 605 q 715 810 755 760 q 619 889 675 863 q 492 915 562 915 q 364 889 418 915 q 267 810 309 864 q 206 681 227 759 q 184 505 184 603 q 268 200 184 306 q 492 95 351 95 q 715 200 632 95 q 798 505 798 306 m 680 1390 l 494 1136 l 393 1136 l 515 1390 l 680 1390 z "},"Ô":{"ha":983,"x_min":45,"x_max":938,"o":"m 817 894 q 906 729 874 827 q 938 505 938 631 q 907 283 938 382 q 817 117 876 184 q 672 13 755 46 q 491 -21 590 -21 q 307 14 389 -21 q 165 117 224 48 q 76 282 107 184 q 45 505 45 380 q 76 728 45 632 q 166 894 108 825 q 307 996 224 961 q 491 1031 389 1031 q 677 995 594 1031 q 817 894 760 959 m 798 505 q 777 682 798 605 q 715 810 755 760 q 619 889 675 863 q 492 915 562 915 q 364 889 418 915 q 267 810 309 864 q 206 681 227 759 q 184 505 184 603 q 268 200 184 306 q 492 95 351 95 q 715 200 632 95 q 798 505 798 306 m 715 1133 l 608 1133 l 482 1306 l 357 1133 l 252 1133 l 407 1390 l 561 1390 l 715 1133 z "},"Ò":{"ha":983,"x_min":45,"x_max":938,"o":"m 817 894 q 906 729 874 827 q 938 505 938 631 q 907 283 938 382 q 817 117 876 184 q 672 13 755 46 q 491 -21 590 -21 q 307 14 389 -21 q 165 117 224 48 q 76 282 107 184 q 45 505 45 380 q 76 728 45 632 q 166 894 108 825 q 307 996 224 961 q 491 1031 389 1031 q 677 995 594 1031 q 817 894 760 959 m 798 505 q 777 682 798 605 q 715 810 755 760 q 619 889 675 863 q 492 915 562 915 q 364 889 418 915 q 267 810 309 864 q 206 681 227 759 q 184 505 184 603 q 268 200 184 306 q 492 95 351 95 q 715 200 632 95 q 798 505 798 306 m 577 1136 l 476 1136 l 291 1390 l 456 1390 l 577 1136 z "},"Ú":{"ha":911,"x_min":90,"x_max":821,"o":"m 455 -21 q 300 2 366 -21 q 186 72 233 26 q 112 198 134 125 q 90 380 90 272 l 90 1010 l 224 1010 l 224 380 q 233 262 224 310 q 268 176 242 214 q 341 115 295 136 q 455 94 388 94 q 567 115 518 94 q 643 176 616 136 q 677 262 668 215 q 686 376 686 309 l 686 1010 l 821 1010 l 821 380 q 799 199 821 275 q 724 72 778 124 q 612 2 676 25 q 455 -21 548 -21 m 675 1390 l 490 1136 l 389 1136 l 510 1390 l 675 1390 z "},"Û":{"ha":911,"x_min":90,"x_max":821,"o":"m 455 -21 q 300 2 366 -21 q 186 72 233 26 q 112 198 134 125 q 90 380 90 272 l 90 1010 l 224 1010 l 224 380 q 233 262 224 310 q 268 176 242 214 q 341 115 295 136 q 455 94 388 94 q 567 115 518 94 q 643 176 616 136 q 677 262 668 215 q 686 376 686 309 l 686 1010 l 821 1010 l 821 380 q 799 199 821 275 q 724 72 778 124 q 612 2 676 25 q 455 -21 548 -21 m 682 1133 l 574 1133 l 449 1306 l 324 1133 l 219 1133 l 374 1390 l 528 1390 l 682 1133 z "},"Ù":{"ha":911,"x_min":90,"x_max":821,"o":"m 455 -21 q 300 2 366 -21 q 186 72 233 26 q 112 198 134 125 q 90 380 90 272 l 90 1010 l 224 1010 l 224 380 q 233 262 224 310 q 268 176 242 214 q 341 115 295 136 q 455 94 388 94 q 567 115 518 94 q 643 176 616 136 q 677 262 668 215 q 686 376 686 309 l 686 1010 l 821 1010 l 821 380 q 799 199 821 275 q 724 72 778 124 q 612 2 676 25 q 455 -21 548 -21 m 579 1136 l 478 1136 l 293 1390 l 458 1390 l 579 1136 z "},"ı":{"ha":317,"x_min":95,"x_max":222,"o":"m 222 0 l 95 0 l 95 758 l 222 758 l 222 0 z "},"ˆ":{"ha":758,"x_min":148,"x_max":611,"o":"m 611 880 l 503 880 l 378 1053 l 253 880 l 148 880 l 302 1137 l 456 1137 l 611 880 z "},"˜":{"ha":758,"x_min":109,"x_max":651,"o":"m 651 1107 q 601 948 644 1001 q 484 895 557 895 q 419 908 449 895 q 361 948 389 921 q 309 990 331 976 q 267 1005 288 1005 q 220 975 233 1005 q 204 892 207 944 l 109 892 q 161 1050 114 997 q 275 1103 208 1103 q 339 1090 310 1103 q 397 1051 368 1077 q 450 1011 427 1025 q 493 997 473 997 q 539 1027 525 997 q 556 1107 554 1058 l 651 1107 z "},"ˉ":{"ha":758,"x_min":123,"x_max":635,"o":"m 635 905 l 123 905 l 123 1010 l 635 1010 l 635 905 z "},"˘":{"ha":758,"x_min":156,"x_max":603,"o":"m 603 1109 q 589 1003 603 1051 q 548 923 574 956 q 479 869 517 887 q 380 851 440 851 q 282 870 324 851 q 212 923 241 888 q 170 1004 184 957 q 156 1109 156 1052 l 266 1109 q 294 978 266 1018 q 380 937 323 937 q 463 977 433 937 q 493 1109 493 1017 l 603 1109 z "},"˙":{"ha":758,"x_min":307,"x_max":452,"o":"m 452 884 l 307 884 l 307 1017 l 452 1017 l 452 884 z "},"˚":{"ha":758,"x_min":172,"x_max":587,"o":"m 587 964 q 527 818 587 876 q 379 760 467 760 q 232 818 292 760 q 172 964 172 877 q 232 1109 172 1050 q 379 1168 292 1168 q 527 1109 467 1168 q 587 964 587 1051 m 487 963 q 457 1047 487 1013 q 379 1080 427 1080 q 302 1046 332 1080 q 271 963 271 1013 q 301 880 271 913 q 379 847 332 847 q 457 881 427 847 q 487 963 487 914 z "},"¸":{"ha":758,"x_min":196,"x_max":524,"o":"m 520 14 q 523 -17 521 1 q 524 -60 524 -36 q 465 -229 524 -170 q 316 -287 406 -287 q 257 -283 291 -287 q 196 -271 223 -279 l 196 -162 l 202 -162 q 245 -177 218 -170 q 298 -185 271 -185 q 389 -158 362 -185 q 416 -73 416 -132 q 416 -34 416 -55 q 414 14 415 -13 l 520 14 z "},"˝":{"ha":758,"x_min":170,"x_max":713,"o":"m 713 1137 l 538 883 l 444 883 l 558 1137 l 713 1137 m 439 1137 l 264 883 l 170 883 l 284 1137 l 439 1137 z "},"˛":{"ha":758,"x_min":224,"x_max":434,"o":"m 402 0 q 350 -61 372 -24 q 328 -129 328 -97 q 341 -165 328 -151 q 379 -179 353 -179 q 406 -176 393 -179 q 427 -170 418 -173 l 434 -170 l 434 -264 q 393 -276 414 -273 q 353 -280 371 -280 q 258 -249 292 -280 q 224 -161 224 -217 q 248 -73 224 -117 q 301 0 271 -28 l 402 0 z "},"ˇ":{"ha":758,"x_min":145,"x_max":608,"o":"m 608 1137 l 454 880 l 300 880 l 145 1137 l 253 1137 l 378 963 l 503 1137 l 608 1137 z "},"Ł":{"ha":719,"x_min":16,"x_max":715,"o":"m 715 0 l 130 0 l 130 368 l 16 275 l 16 384 l 130 475 l 130 1010 l 264 1010 l 264 572 l 486 754 l 486 645 l 264 466 l 264 119 l 715 119 l 715 0 z "},"ł":{"ha":381,"x_min":16,"x_max":366,"o":"m 366 580 l 254 492 l 254 0 l 127 0 l 127 399 l 16 309 l 16 416 l 127 505 l 127 1055 l 254 1055 l 254 597 l 366 688 l 366 580 z "},"Š":{"ha":774,"x_min":52,"x_max":739,"o":"m 384 -18 q 197 4 274 -18 q 52 60 120 27 l 52 229 l 62 229 q 212 132 128 166 q 374 98 296 98 q 543 144 486 98 q 600 267 600 191 q 570 365 600 327 q 475 421 540 403 q 389 444 428 435 q 292 467 351 452 q 199 502 240 481 q 125 557 157 523 q 77 635 94 590 q 60 739 60 680 q 155 945 60 862 q 399 1028 251 1028 q 560 1011 484 1028 q 700 963 635 994 l 700 802 l 690 802 q 566 879 642 846 q 408 912 491 912 q 257 868 315 912 q 199 753 199 825 q 233 651 199 689 q 332 595 267 613 q 436 569 374 584 q 538 543 498 555 q 691 446 643 511 q 739 288 739 382 q 715 171 739 229 q 648 73 691 113 q 537 5 599 29 q 384 -18 476 -18 m 631 1390 l 476 1133 l 322 1133 l 168 1390 l 275 1390 l 401 1216 l 526 1390 l 631 1390 z "},"š":{"ha":620,"x_min":45,"x_max":593,"o":"m 297 -18 q 155 2 221 -18 q 45 45 89 22 l 45 189 l 52 189 q 91 160 68 176 q 149 127 113 144 q 221 101 182 113 q 302 90 260 90 q 367 97 332 90 q 418 115 401 104 q 453 148 442 130 q 463 201 463 165 q 438 269 463 246 q 351 308 414 292 q 287 322 326 314 q 214 340 248 330 q 88 417 127 365 q 49 545 49 470 q 126 711 49 647 q 332 776 203 776 q 458 760 395 776 q 566 721 522 745 l 566 585 l 559 585 q 450 646 510 623 q 329 668 390 668 q 222 642 266 668 q 179 562 179 615 q 205 491 179 514 q 288 452 231 467 q 351 438 316 445 q 425 421 386 431 q 551 351 509 400 q 593 218 593 302 q 574 126 593 170 q 517 51 555 82 q 426 -1 477 17 q 297 -18 374 -18 m 553 1137 l 398 880 l 244 880 l 90 1137 l 197 1137 l 323 963 l 448 1137 l 553 1137 z "},"Ž":{"ha":777,"x_min":41,"x_max":746,"o":"m 746 0 l 41 0 l 41 125 l 581 890 l 65 890 l 65 1010 l 732 1010 l 732 888 l 186 119 l 746 119 l 746 0 m 617 1390 l 463 1133 l 309 1133 l 154 1390 l 262 1390 l 387 1216 l 512 1390 l 617 1390 z "},"ž":{"ha":617,"x_min":33,"x_max":590,"o":"m 590 0 l 33 0 l 33 94 l 429 652 l 50 652 l 50 758 l 583 758 l 583 667 l 184 106 l 590 106 l 590 0 m 543 1137 l 388 880 l 234 880 l 79 1137 l 187 1137 l 313 963 l 437 1137 l 543 1137 z "},"¦":{"ha":531,"x_min":209,"x_max":322,"o":"m 322 514 l 209 514 l 209 1055 l 322 1055 l 322 514 m 322 -266 l 209 -266 l 209 275 l 322 275 l 322 -266 z "},"Ð":{"ha":970,"x_min":16,"x_max":926,"o":"m 926 504 q 870 254 926 366 q 720 81 814 143 q 565 15 645 31 q 363 0 486 0 l 130 0 l 130 502 l 16 502 l 16 599 l 130 599 l 130 1010 l 360 1010 q 584 988 503 1010 q 722 930 665 967 q 873 759 819 865 q 926 504 926 652 m 787 506 q 748 705 787 623 q 633 833 709 787 q 519 880 580 866 q 367 895 458 895 l 264 895 l 264 599 l 486 599 l 486 502 l 264 502 l 264 115 l 367 115 q 524 130 456 115 q 646 182 591 144 q 751 309 716 230 q 787 506 787 388 z "},"ð":{"ha":758,"x_min":39,"x_max":714,"o":"m 714 432 q 622 96 714 213 q 371 -21 530 -21 q 132 68 226 -21 q 39 328 39 157 q 132 573 39 485 q 351 661 224 661 q 469 643 419 661 q 576 589 519 625 q 510 738 555 665 q 411 859 465 812 l 233 750 l 189 816 l 350 913 q 244 985 294 959 q 135 1041 194 1011 l 135 1055 l 336 1055 q 390 1015 361 1036 q 446 975 418 994 l 589 1062 l 634 996 l 505 921 q 654 714 593 833 q 714 432 714 595 m 522 153 q 569 251 553 193 q 586 410 586 308 q 585 450 586 431 q 583 489 584 469 q 481 534 533 520 q 374 549 429 549 q 230 494 288 549 q 171 327 171 440 q 225 146 171 205 q 372 87 279 87 q 454 102 415 87 q 522 153 493 117 z "},"Ý":{"ha":800,"x_min":-7,"x_max":809,"o":"m 809 1010 l 468 447 l 468 0 l 334 0 l 334 433 l -7 1010 l 142 1010 l 402 564 l 667 1010 l 809 1010 m 604 1390 l 419 1136 l 318 1136 l 439 1390 l 604 1390 z "},"ý":{"ha":692,"x_min":4,"x_max":688,"o":"m 688 758 l 280 -279 l 144 -279 l 279 37 l 4 758 l 142 758 l 349 197 l 555 758 l 688 758 m 550 1137 l 365 883 l 264 883 l 385 1137 l 550 1137 z "},"Þ":{"ha":785,"x_min":102,"x_max":743,"o":"m 743 534 q 719 414 743 471 q 654 318 695 357 q 527 243 602 267 q 351 218 453 218 l 237 218 l 237 0 l 102 0 l 102 1010 l 237 1010 l 237 827 l 355 827 q 511 811 446 827 q 623 766 577 796 q 711 673 679 730 q 743 534 743 615 m 603 530 q 585 615 603 579 q 530 675 568 652 q 454 704 497 696 q 349 713 410 713 l 237 713 l 237 331 l 330 331 q 462 345 410 331 q 545 389 513 359 q 589 452 575 417 q 603 530 603 486 z "},"þ":{"ha":768,"x_min":92,"x_max":728,"o":"m 728 399 q 637 97 728 210 q 408 -15 547 -15 q 309 -2 352 -15 q 220 38 265 11 l 220 -279 l 92 -279 l 92 1055 l 220 1055 l 220 678 q 325 750 267 721 q 452 779 383 779 q 655 675 582 779 q 728 399 728 572 m 596 385 q 555 586 596 514 q 420 657 513 657 q 316 633 366 657 q 220 571 265 609 l 220 142 q 306 109 270 117 q 387 100 341 100 q 541 172 486 100 q 596 385 596 245 z "},"−":{"ha":1010,"x_min":123,"x_max":887,"o":"m 887 388 l 123 388 l 123 496 l 887 496 l 887 388 z "},"×":{"ha":1010,"x_min":141,"x_max":869,"o":"m 869 153 l 794 78 l 505 370 l 216 78 l 141 153 l 433 442 l 141 731 l 216 806 l 505 515 l 794 806 l 869 731 l 578 442 l 869 153 z "},"¹":{"ha":685,"x_min":168,"x_max":550,"o":"m 550 384 l 174 384 l 174 467 l 312 467 l 312 852 l 168 852 l 168 928 q 232 932 199 928 q 282 945 265 936 q 315 970 303 956 q 329 1013 327 985 l 420 1013 l 420 467 l 550 467 l 550 384 z "},"²":{"ha":685,"x_min":125,"x_max":587,"o":"m 587 384 l 125 384 l 125 487 q 225 564 178 527 q 303 630 273 601 q 397 738 375 699 q 420 832 420 777 q 391 904 420 879 q 310 930 361 930 q 215 909 263 930 q 140 867 168 889 l 130 867 l 130 989 q 224 1019 172 1007 q 326 1030 276 1030 q 489 977 432 1030 q 545 840 545 924 q 518 729 545 783 q 418 610 492 676 q 336 544 383 579 q 253 481 290 509 l 587 481 l 587 384 z "},"³":{"ha":685,"x_min":125,"x_max":568,"o":"m 568 562 q 547 475 568 513 q 494 414 527 437 q 417 378 458 389 q 321 368 375 368 q 217 378 266 368 q 125 407 169 388 l 125 526 l 136 526 q 214 482 161 502 q 319 462 266 462 q 414 487 376 462 q 451 560 451 511 q 421 633 451 609 q 321 656 392 656 l 227 656 l 227 751 l 311 751 q 402 777 370 751 q 435 847 435 802 q 407 912 435 888 q 320 936 379 936 q 223 915 275 936 q 146 870 172 894 l 135 870 l 135 989 q 229 1019 178 1007 q 334 1030 280 1030 q 494 983 437 1030 q 552 869 552 935 q 519 771 552 810 q 434 715 486 733 l 434 710 q 528 662 488 699 q 568 562 568 625 z "},"½":{"ha":1389,"x_min":116,"x_max":1320,"o":"m 370 383 l 258 383 l 258 845 l 116 845 l 116 924 q 228 939 185 924 q 277 1013 271 954 l 370 1013 l 370 383 m 956 1010 l 427 0 l 315 0 l 844 1010 l 956 1010 m 1320 0 l 858 0 l 858 97 q 958 174 910 137 q 1036 240 1006 211 q 1130 348 1107 309 q 1152 442 1152 387 q 1123 514 1152 489 q 1042 540 1094 540 q 948 519 996 540 q 872 477 900 499 l 862 477 l 862 599 q 957 629 905 617 q 1059 640 1008 640 q 1221 587 1164 640 q 1278 450 1278 534 q 1239 319 1278 373 q 1151 220 1201 265 q 1068 154 1113 187 q 987 94 1023 121 l 1320 94 l 1320 0 z "},"¼":{"ha":1389,"x_min":116,"x_max":1253,"o":"m 370 383 l 258 383 l 258 845 l 116 845 l 116 924 q 228 939 185 924 q 277 1013 271 954 l 370 1013 l 370 383 m 956 1010 l 427 0 l 315 0 l 844 1010 l 956 1010 m 1253 149 l 1142 149 l 1142 0 l 1040 0 l 1040 149 l 732 149 l 732 275 l 1041 640 l 1142 640 l 1142 239 l 1253 239 l 1253 149 m 1043 239 l 1043 511 l 810 239 l 1043 239 z "},"¾":{"ha":1389,"x_min":95,"x_max":1291,"o":"m 538 560 q 517 474 538 512 q 465 413 497 435 q 387 377 429 388 q 292 366 345 366 q 188 376 236 366 q 95 406 139 387 l 95 524 l 106 524 q 184 480 132 500 q 290 460 236 460 q 384 485 347 460 q 421 559 421 510 q 387 635 421 615 q 292 655 353 655 l 197 655 l 197 749 l 281 749 q 373 775 340 749 q 405 846 405 801 q 377 910 405 886 q 290 935 349 935 q 194 913 245 935 q 117 869 142 892 l 105 869 l 105 987 q 199 1017 149 1006 q 304 1029 250 1029 q 465 981 407 1029 q 522 867 522 934 q 489 770 522 808 q 404 714 456 732 l 404 709 q 498 661 458 698 q 538 560 538 624 m 1017 1010 l 488 0 l 376 0 l 905 1010 l 1017 1010 m 1291 149 l 1180 149 l 1180 0 l 1078 0 l 1078 149 l 770 149 l 770 275 l 1079 640 l 1180 640 l 1180 239 l 1291 239 l 1291 149 m 1081 239 l 1081 511 l 848 239 l 1081 239 z "},"₣":{"ha":758,"x_min":23,"x_max":707,"o":"m 707 890 l 278 890 l 278 606 l 688 606 l 688 486 l 278 486 l 278 303 l 493 303 l 493 209 l 278 209 l 278 0 l 144 0 l 144 209 l 23 209 l 23 303 l 144 303 l 144 1010 l 707 1010 l 707 890 z "},"Ğ":{"ha":927,"x_min":45,"x_max":861,"o":"m 525 -20 q 329 13 418 -20 q 176 112 240 45 q 79 278 113 179 q 45 506 45 377 q 79 725 45 628 q 177 890 113 821 q 329 992 239 956 q 526 1028 419 1028 q 624 1021 577 1028 q 713 1000 671 1013 q 789 972 747 990 q 857 941 831 954 l 857 779 l 845 779 q 793 822 820 802 q 718 865 766 842 q 624 899 677 885 q 510 912 571 912 q 274 802 364 912 q 184 510 184 692 q 208 332 184 408 q 277 203 232 256 q 381 124 320 151 q 519 96 443 96 q 633 104 576 96 q 728 129 689 113 l 728 390 l 494 390 l 494 508 l 861 508 l 861 67 q 792 38 835 56 q 711 10 749 20 q 622 -12 662 -5 q 525 -20 582 -20 m 724 1362 q 710 1256 724 1304 q 669 1176 696 1208 q 600 1122 639 1140 q 501 1104 562 1104 q 404 1123 446 1104 q 334 1176 362 1141 q 292 1257 306 1210 q 277 1362 277 1305 l 387 1362 q 416 1231 387 1271 q 501 1190 444 1190 q 585 1230 555 1190 q 614 1362 614 1270 l 724 1362 z "},"ğ":{"ha":768,"x_min":40,"x_max":675,"o":"m 548 205 l 548 621 q 460 654 500 644 q 380 664 420 664 q 227 593 283 664 q 172 389 172 522 q 214 197 172 262 q 351 131 256 131 q 453 151 401 131 q 548 205 506 170 m 119 -121 q 157 -136 132 -127 q 214 -153 182 -145 q 279 -168 250 -162 q 345 -173 309 -173 q 445 -157 404 -173 q 509 -114 486 -142 q 539 -50 530 -86 q 548 34 548 -13 l 548 100 q 447 34 496 56 q 323 13 397 13 q 117 109 193 13 q 40 386 40 205 q 66 553 40 480 q 138 677 93 626 q 239 752 180 726 q 359 779 297 779 q 461 765 418 779 q 548 725 505 751 l 555 758 l 675 758 l 675 86 q 591 -197 675 -106 q 334 -287 507 -287 q 221 -278 279 -287 q 113 -254 163 -269 l 113 -121 l 119 -121 m 606 1109 q 592 1003 606 1051 q 551 923 578 956 q 482 869 521 887 q 383 851 444 851 q 286 870 328 851 q 216 923 244 888 q 174 1004 188 957 q 159 1109 159 1052 l 269 1109 q 298 978 269 1018 q 383 937 326 937 q 467 977 437 937 q 496 1109 496 1017 l 606 1109 z "},"İ":{"ha":518,"x_min":63,"x_max":455,"o":"m 455 0 l 63 0 l 63 103 l 192 103 l 192 907 l 63 907 l 63 1010 l 455 1010 l 455 907 l 326 907 l 326 103 l 455 103 l 455 0 m 332 1137 l 187 1137 l 187 1270 l 332 1270 l 332 1137 z "},"Ş":{"ha":774,"x_min":52,"x_max":739,"o":"m 384 -18 q 197 5 274 -18 q 52 60 120 27 l 52 229 l 62 229 q 212 132 128 166 q 374 98 296 98 q 543 144 486 98 q 600 267 600 191 q 570 365 600 327 q 475 421 540 403 q 389 444 428 435 q 292 467 351 452 q 199 502 240 481 q 125 557 157 523 q 77 635 94 590 q 60 739 60 680 q 155 945 60 862 q 399 1028 251 1028 q 560 1011 484 1028 q 700 963 635 994 l 700 802 l 690 802 q 566 879 642 846 q 408 912 491 912 q 257 868 315 912 q 199 753 199 825 q 233 651 199 689 q 332 595 267 613 q 436 569 374 584 q 538 543 498 555 q 691 446 643 511 q 739 288 739 382 q 715 171 739 229 q 648 73 691 113 q 594 33 621 50 q 530 5 566 17 q 532 -23 531 -6 q 534 -60 534 -41 q 474 -229 534 -170 q 324 -287 414 -287 q 265 -283 299 -287 q 204 -271 231 -279 l 204 -162 l 210 -162 q 253 -177 227 -170 q 307 -185 279 -185 q 400 -158 370 -185 q 430 -73 430 -132 q 430 -46 430 -60 q 429 -16 429 -33 q 407 -17 417 -16 q 384 -18 397 -18 z "},"ş":{"ha":620,"x_min":45,"x_max":593,"o":"m 297 -18 q 155 2 221 -18 q 45 45 89 22 l 45 189 l 52 189 q 91 160 68 176 q 149 127 113 144 q 221 101 182 113 q 302 90 260 90 q 367 97 332 90 q 418 115 401 104 q 453 148 442 130 q 463 201 463 165 q 438 269 463 246 q 351 308 414 292 q 287 322 326 314 q 214 340 248 330 q 88 417 127 365 q 49 545 49 470 q 126 711 49 647 q 332 776 203 776 q 458 760 395 776 q 566 721 522 745 l 566 585 l 559 585 q 450 646 510 623 q 329 668 390 668 q 222 642 266 668 q 179 562 179 615 q 205 491 179 514 q 288 452 231 467 q 351 438 316 445 q 425 421 386 431 q 551 351 509 400 q 593 218 593 302 q 574 126 593 170 q 517 51 555 82 q 487 28 502 38 q 453 11 472 19 q 455 -19 454 -1 q 457 -60 457 -37 q 397 -229 457 -170 q 248 -287 338 -287 q 189 -283 222 -287 q 127 -271 155 -279 l 127 -162 l 134 -162 q 176 -177 150 -170 q 230 -185 203 -185 q 323 -158 294 -185 q 353 -73 353 -132 q 353 -46 353 -60 q 352 -15 353 -32 q 326 -17 338 -16 q 297 -18 313 -18 z "},"Ć":{"ha":834,"x_min":45,"x_max":811,"o":"m 497 -18 q 315 15 398 -18 q 172 114 232 48 q 78 278 111 180 q 45 504 45 376 q 77 725 45 631 q 171 889 109 819 q 314 992 231 957 q 499 1028 397 1028 q 594 1021 550 1028 q 677 1002 639 1013 q 744 976 709 991 q 811 943 778 961 l 811 781 l 800 781 q 755 820 783 797 q 687 865 727 843 q 603 900 648 886 q 498 913 557 913 q 376 887 433 913 q 275 809 318 861 q 208 680 232 758 q 184 504 184 602 q 210 325 184 400 q 278 199 235 250 q 377 123 320 149 q 498 98 434 98 q 606 112 556 98 q 694 148 655 126 q 758 191 731 169 q 801 229 785 213 l 811 229 l 811 68 q 748 39 778 53 q 677 11 719 24 q 595 -11 633 -3 q 497 -18 557 -18 m 659 1390 l 473 1136 l 372 1136 l 494 1390 l 659 1390 z "},"ć":{"ha":641,"x_min":40,"x_max":617,"o":"m 393 -17 q 250 7 315 -17 q 138 80 185 31 q 66 203 92 129 q 40 378 40 277 q 67 550 40 477 q 138 672 94 623 q 250 748 183 722 q 393 775 317 775 q 514 758 456 775 q 617 717 572 740 l 617 574 l 610 574 q 575 600 596 585 q 523 631 553 615 q 460 654 496 644 q 391 665 425 665 q 232 590 292 665 q 172 378 172 515 q 230 169 172 243 q 391 94 288 94 q 510 119 454 94 q 610 186 566 145 l 617 186 l 617 43 q 570 21 598 34 q 518 3 541 9 q 460 -12 486 -7 q 393 -17 434 -17 m 550 1137 l 365 883 l 264 883 l 385 1137 l 550 1137 z "},"Č":{"ha":834,"x_min":45,"x_max":811,"o":"m 497 -18 q 315 15 398 -18 q 172 114 232 48 q 78 278 111 180 q 45 504 45 376 q 77 725 45 631 q 171 889 109 819 q 314 992 231 957 q 499 1028 397 1028 q 594 1021 550 1028 q 677 1002 639 1013 q 744 976 709 991 q 811 943 778 961 l 811 781 l 800 781 q 755 820 783 797 q 687 865 727 843 q 603 900 648 886 q 498 913 557 913 q 376 887 433 913 q 275 809 318 861 q 208 680 232 758 q 184 504 184 602 q 210 325 184 400 q 278 199 235 250 q 377 123 320 149 q 498 98 434 98 q 606 112 556 98 q 694 148 655 126 q 758 191 731 169 q 801 229 785 213 l 811 229 l 811 68 q 748 39 778 53 q 677 11 719 24 q 595 -11 633 -3 q 497 -18 557 -18 m 710 1390 l 555 1133 l 401 1133 l 247 1390 l 355 1390 l 480 1216 l 605 1390 l 710 1390 z "},"č":{"ha":641,"x_min":40,"x_max":617,"o":"m 393 -17 q 250 7 315 -17 q 138 80 185 31 q 66 203 92 129 q 40 378 40 277 q 67 550 40 477 q 138 672 94 623 q 250 748 183 722 q 393 775 317 775 q 514 758 456 775 q 617 717 572 740 l 617 574 l 610 574 q 575 600 596 585 q 523 631 553 615 q 460 654 496 644 q 391 665 425 665 q 232 590 292 665 q 172 378 172 515 q 230 169 172 243 q 391 94 288 94 q 510 119 454 94 q 610 186 566 145 l 617 186 l 617 43 q 570 21 598 34 q 518 3 541 9 q 460 -12 486 -7 q 393 -17 434 -17 m 600 1137 l 446 880 l 292 880 l 137 1137 l 245 1137 l 370 963 l 495 1137 l 600 1137 z "},"đ":{"ha":796,"x_min":40,"x_max":788,"o":"m 675 0 l 548 0 l 548 77 q 496 36 518 52 q 446 6 475 20 q 389 -14 418 -7 q 321 -21 360 -21 q 207 5 260 -21 q 118 80 155 31 q 60 204 81 130 q 40 373 40 277 q 66 546 40 473 q 137 673 92 618 q 237 750 178 722 q 360 779 296 779 q 459 766 417 779 q 548 727 501 753 l 548 860 l 344 860 l 344 951 l 548 951 l 548 1055 l 675 1055 l 675 951 l 788 951 l 788 860 l 675 860 l 675 0 m 548 184 l 548 621 q 463 653 500 644 q 381 662 425 662 q 227 588 283 662 q 172 376 172 515 q 214 171 172 242 q 351 100 257 100 q 452 123 401 100 q 548 184 503 146 z "},"¯":{"ha":758,"x_min":-11,"x_max":769,"o":"m 769 1125 l -11 1125 l -11 1213 l 769 1213 l 769 1125 z "},"·":{"ha":491,"x_min":165,"x_max":327,"o":"m 327 564 l 165 564 l 165 758 l 327 758 l 327 564 z "},"Ă":{"ha":833,"x_min":-7,"x_max":840,"o":"m -7 0 l 334 1010 l 499 1010 l 840 0 l 698 0 l 606 282 l 220 282 l 129 0 l -7 0 m 569 397 l 413 873 l 258 397 l 569 397 m 640 1362 q 625 1256 640 1304 q 585 1176 611 1208 q 515 1122 554 1140 q 416 1104 477 1104 q 319 1123 361 1104 q 249 1176 277 1141 q 207 1257 221 1210 q 193 1362 193 1305 l 302 1362 q 331 1231 302 1271 q 416 1190 359 1190 q 500 1230 470 1190 q 530 1362 530 1270 l 640 1362 z "},"ă":{"ha":729,"x_min":39,"x_max":642,"o":"m 515 186 l 515 397 q 400 386 470 393 q 288 366 331 378 q 204 318 237 350 q 171 228 171 286 q 208 130 171 163 q 315 96 244 96 q 424 122 375 96 q 515 186 473 149 m 515 81 q 474 48 500 69 q 423 16 448 28 q 358 -12 389 -2 q 269 -21 326 -21 q 180 -3 222 -21 q 106 46 138 14 q 58 123 76 77 q 39 220 39 169 q 73 354 39 298 q 178 441 106 409 q 328 482 241 471 q 515 498 415 493 l 515 523 q 502 595 515 568 q 464 637 488 623 q 404 658 439 653 q 332 663 369 663 q 228 650 288 663 q 109 612 168 637 l 101 612 l 101 741 q 202 764 136 751 q 332 776 268 776 q 464 764 410 776 q 560 720 517 751 q 622 639 602 688 q 642 518 642 589 l 642 0 l 515 0 l 515 81 m 578 1109 q 564 1003 578 1051 q 523 923 549 956 q 454 869 492 887 q 355 851 415 851 q 257 870 299 851 q 187 923 216 888 q 145 1004 159 957 q 131 1109 131 1052 l 241 1109 q 269 978 241 1018 q 355 937 298 937 q 438 977 408 937 q 468 1109 468 1017 l 578 1109 z "},"Ą":{"ha":833,"x_min":-7,"x_max":846,"o":"m -7 0 l 334 1010 l 499 1010 l 840 0 l 698 0 l 606 282 l 220 282 l 129 0 l -7 0 m 569 397 l 413 873 l 258 397 l 569 397 m 814 0 q 763 -61 785 -24 q 741 -129 741 -97 q 753 -165 741 -151 q 791 -179 766 -179 q 818 -176 806 -179 q 839 -170 831 -173 l 846 -170 l 846 -264 q 805 -276 827 -273 q 765 -280 783 -280 q 670 -249 705 -280 q 636 -161 636 -217 q 660 -73 636 -117 q 713 0 684 -28 l 814 0 z "},"ą":{"ha":729,"x_min":39,"x_max":659,"o":"m 515 186 l 515 397 q 400 386 470 393 q 288 366 331 378 q 204 318 237 350 q 171 228 171 286 q 208 130 171 163 q 315 96 244 96 q 424 122 375 96 q 515 186 473 149 m 515 81 q 474 48 500 69 q 423 16 448 28 q 358 -12 389 -2 q 269 -21 326 -21 q 180 -3 222 -21 q 106 46 138 14 q 58 123 76 77 q 39 220 39 169 q 73 354 39 298 q 178 441 106 409 q 328 482 241 471 q 515 498 415 493 l 515 523 q 502 595 515 568 q 464 637 488 623 q 404 658 439 653 q 332 663 369 663 q 228 650 288 663 q 109 612 168 637 l 101 612 l 101 741 q 202 764 136 751 q 332 776 268 776 q 464 764 410 776 q 560 720 517 751 q 622 639 602 688 q 642 518 642 589 l 642 0 l 515 0 l 515 81 m 627 0 q 575 -61 597 -24 q 553 -129 553 -97 q 566 -165 553 -151 q 604 -179 578 -179 q 631 -176 618 -179 q 652 -170 644 -173 l 659 -170 l 659 -264 q 618 -276 640 -273 q 578 -280 596 -280 q 483 -249 517 -280 q 449 -161 449 -217 q 473 -73 449 -117 q 526 0 496 -28 l 627 0 z "},"Ď":{"ha":942,"x_min":102,"x_max":899,"o":"m 899 504 q 843 254 899 366 q 692 81 787 143 q 537 16 616 33 q 335 0 458 0 l 102 0 l 102 1010 l 332 1010 q 556 988 475 1010 q 694 930 637 967 q 845 759 791 865 q 899 504 899 652 m 759 506 q 720 705 759 623 q 606 833 682 787 q 491 880 552 866 q 339 895 430 895 l 237 895 l 237 115 l 339 115 q 496 130 429 115 q 618 182 563 144 q 724 309 688 230 q 759 506 759 388 m 669 1390 l 515 1133 l 361 1133 l 206 1390 l 314 1390 l 439 1216 l 564 1390 l 669 1390 z "},"ď":{"ha":954,"x_min":40,"x_max":999,"o":"m 675 0 l 548 0 l 548 77 q 496 36 518 52 q 446 6 475 20 q 389 -14 418 -7 q 321 -21 360 -21 q 207 5 260 -21 q 118 80 155 31 q 60 204 81 130 q 40 373 40 277 q 66 546 40 473 q 137 673 92 618 q 237 750 178 722 q 360 779 296 779 q 459 766 417 779 q 548 727 501 753 l 548 1055 l 675 1055 l 675 0 m 548 184 l 548 621 q 463 653 500 644 q 381 662 425 662 q 227 588 283 662 q 172 376 172 515 q 214 171 172 242 q 351 100 257 100 q 452 123 401 100 q 548 184 503 146 m 999 1055 l 836 713 l 750 713 l 846 1055 l 999 1055 z "},"Đ":{"ha":970,"x_min":16,"x_max":926,"o":"m 926 504 q 870 254 926 366 q 720 81 814 143 q 565 15 645 31 q 363 0 486 0 l 130 0 l 130 502 l 16 502 l 16 599 l 130 599 l 130 1010 l 360 1010 q 584 988 503 1010 q 722 930 665 967 q 873 759 819 865 q 926 504 926 652 m 787 506 q 748 705 787 623 q 633 833 709 787 q 519 880 580 866 q 367 895 458 895 l 264 895 l 264 599 l 486 599 l 486 502 l 264 502 l 264 115 l 367 115 q 524 130 456 115 q 646 182 591 144 q 751 309 716 230 q 787 506 787 388 z "},"Ę":{"ha":779,"x_min":102,"x_max":734,"o":"m 102 0 l 102 1010 l 734 1010 l 734 890 l 237 890 l 237 614 l 700 614 l 700 494 l 237 494 l 237 119 l 734 119 l 734 0 l 102 0 m 703 0 q 651 -61 673 -24 q 629 -129 629 -97 q 641 -165 629 -151 q 680 -179 654 -179 q 706 -176 694 -179 q 727 -170 719 -173 l 734 -170 l 734 -264 q 693 -276 715 -273 q 653 -280 671 -280 q 558 -249 593 -280 q 524 -161 524 -217 q 548 -73 524 -117 q 602 0 572 -28 l 703 0 z "},"ę":{"ha":731,"x_min":40,"x_max":694,"o":"m 421 -18 q 140 84 240 -18 q 40 374 40 186 q 137 669 40 559 q 391 779 234 779 q 515 758 461 779 q 610 694 570 738 q 673 588 651 651 q 694 435 694 526 l 694 366 l 170 366 q 236 163 170 233 q 420 94 302 94 q 502 103 462 94 q 575 127 543 113 q 633 158 610 143 q 673 185 657 172 l 680 185 l 680 46 q 654 36 667 41 q 623 24 641 31 q 583 -17 597 1 q 559 -49 568 -35 q 539 -88 548 -68 q 531 -129 531 -109 q 544 -165 531 -151 q 582 -179 557 -179 q 607 -176 595 -179 q 629 -170 619 -173 l 637 -170 l 637 -264 q 595 -276 617 -272 q 555 -280 574 -280 q 461 -248 496 -280 q 427 -161 427 -216 q 491 -14 427 -87 q 421 -18 461 -18 m 570 463 q 558 552 569 515 q 527 615 547 589 q 470 659 505 644 q 383 673 435 673 q 297 658 332 673 q 232 614 261 643 q 189 548 203 584 q 170 463 174 511 l 570 463 z "},"Ě":{"ha":779,"x_min":102,"x_max":734,"o":"m 102 0 l 102 1010 l 734 1010 l 734 890 l 237 890 l 237 614 l 700 614 l 700 494 l 237 494 l 237 119 l 734 119 l 734 0 l 102 0 m 669 1390 l 515 1133 l 361 1133 l 206 1390 l 314 1390 l 439 1216 l 564 1390 l 669 1390 z "},"ě":{"ha":731,"x_min":40,"x_max":694,"o":"m 421 -18 q 140 84 240 -18 q 40 374 40 186 q 137 669 40 559 q 391 779 234 779 q 515 758 461 779 q 610 694 570 738 q 673 588 651 651 q 694 435 694 526 l 694 366 l 170 366 q 236 163 170 233 q 420 94 302 94 q 502 103 462 94 q 575 127 543 113 q 633 158 610 143 q 673 185 657 172 l 680 185 l 680 46 q 625 24 658 37 q 565 3 591 11 q 497 -12 528 -7 q 421 -18 467 -18 m 570 463 q 558 552 569 515 q 527 615 547 589 q 470 659 505 644 q 383 673 435 673 q 297 658 332 673 q 232 614 261 643 q 189 548 203 584 q 170 463 174 511 l 570 463 m 615 1137 l 460 880 l 307 880 l 152 1137 l 260 1137 l 385 963 l 510 1137 l 615 1137 z "},"Ĺ":{"ha":691,"x_min":102,"x_max":688,"o":"m 688 0 l 102 0 l 102 1010 l 237 1010 l 237 119 l 688 119 l 688 0 m 469 1390 l 283 1136 l 182 1136 l 304 1390 l 469 1390 z "},"ĺ":{"ha":317,"x_min":77,"x_max":363,"o":"m 222 0 l 95 0 l 95 1055 l 222 1055 l 222 0 m 363 1390 l 178 1136 l 77 1136 l 199 1390 l 363 1390 z "},"Ľ":{"ha":691,"x_min":102,"x_max":688,"o":"m 688 0 l 102 0 l 102 1010 l 237 1010 l 237 119 l 688 119 l 688 0 m 645 1055 l 482 713 l 396 713 l 492 1055 l 645 1055 z "},"ľ":{"ha":501,"x_min":95,"x_max":546,"o":"m 222 0 l 95 0 l 95 1055 l 222 1055 l 222 0 m 546 1055 l 383 713 l 297 713 l 393 1055 l 546 1055 z "},"Ŀ":{"ha":691,"x_min":102,"x_max":688,"o":"m 688 0 l 102 0 l 102 1010 l 237 1010 l 237 119 l 688 119 l 688 0 m 594 352 l 436 352 l 436 533 l 594 533 l 594 352 z "},"ŀ":{"ha":618,"x_min":95,"x_max":547,"o":"m 222 0 l 95 0 l 95 1055 l 222 1055 l 222 0 m 547 353 l 390 353 l 390 532 l 547 532 l 547 353 z "},"Ń":{"ha":927,"x_min":102,"x_max":825,"o":"m 825 0 l 674 0 l 228 871 l 228 0 l 102 0 l 102 1010 l 293 1010 l 699 210 l 699 1010 l 825 1010 l 825 0 m 670 1390 l 485 1136 l 384 1136 l 505 1390 l 670 1390 z "},"ń":{"ha":774,"x_min":92,"x_max":688,"o":"m 688 0 l 560 0 l 560 431 q 555 529 560 484 q 536 601 550 574 q 492 643 520 629 q 416 657 465 657 q 318 632 369 657 q 220 566 268 606 l 220 0 l 92 0 l 92 758 l 220 758 l 220 673 q 332 751 277 724 q 450 779 388 779 q 625 705 562 779 q 688 492 688 631 l 688 0 m 591 1137 l 406 883 l 304 883 l 426 1137 l 591 1137 z "},"Ň":{"ha":927,"x_min":102,"x_max":825,"o":"m 825 0 l 674 0 l 228 871 l 228 0 l 102 0 l 102 1010 l 293 1010 l 699 210 l 699 1010 l 825 1010 l 825 0 m 707 1390 l 552 1133 l 398 1133 l 243 1390 l 351 1390 l 477 1216 l 602 1390 l 707 1390 z "},"ň":{"ha":774,"x_min":92,"x_max":688,"o":"m 688 0 l 560 0 l 560 431 q 555 529 560 484 q 536 601 550 574 q 492 643 520 629 q 416 657 465 657 q 318 632 369 657 q 220 566 268 606 l 220 0 l 92 0 l 92 758 l 220 758 l 220 673 q 332 751 277 724 q 450 779 388 779 q 625 705 562 779 q 688 492 688 631 l 688 0 m 627 1137 l 473 880 l 319 880 l 164 1137 l 272 1137 l 397 963 l 522 1137 l 627 1137 z "},"Ő":{"ha":983,"x_min":45,"x_max":938,"o":"m 817 894 q 906 729 874 827 q 938 505 938 631 q 907 283 938 382 q 817 117 876 184 q 672 13 755 46 q 491 -21 590 -21 q 307 14 389 -21 q 165 117 224 48 q 76 282 107 184 q 45 505 45 380 q 76 728 45 632 q 166 894 108 825 q 307 996 224 961 q 491 1031 389 1031 q 677 995 594 1031 q 817 894 760 959 m 798 505 q 777 682 798 605 q 715 810 755 760 q 619 889 675 863 q 492 915 562 915 q 364 889 418 915 q 267 810 309 864 q 206 681 227 759 q 184 505 184 603 q 268 200 184 306 q 492 95 351 95 q 715 200 632 95 q 798 505 798 306 m 814 1390 l 640 1136 l 545 1136 l 660 1390 l 814 1390 m 541 1390 l 366 1136 l 271 1136 l 386 1390 l 541 1390 z "},"ő":{"ha":754,"x_min":39,"x_max":715,"o":"m 715 378 q 623 83 715 187 q 378 -21 531 -21 q 129 86 220 -21 q 39 378 39 194 q 132 673 39 568 q 378 779 225 779 q 623 674 531 779 q 715 378 715 569 m 584 378 q 530 597 584 526 q 378 669 477 669 q 224 597 278 669 q 170 378 170 526 q 224 162 170 236 q 378 89 278 89 q 530 161 476 89 q 584 378 584 233 m 705 1137 l 530 883 l 435 883 l 550 1137 l 705 1137 m 431 1137 l 256 883 l 161 883 l 276 1137 l 431 1137 z "},"Ŕ":{"ha":862,"x_min":102,"x_max":884,"o":"m 884 0 l 710 0 l 390 401 l 237 401 l 237 0 l 102 0 l 102 1010 l 363 1010 q 508 1000 450 1010 q 620 956 567 991 q 704 869 673 922 q 734 736 734 815 q 678 550 734 625 q 525 439 622 475 l 884 0 m 594 726 q 578 804 594 770 q 530 860 563 838 q 464 887 502 879 q 370 895 426 895 l 237 895 l 237 513 l 355 513 q 458 524 412 513 q 537 566 505 534 q 580 633 566 594 q 594 726 594 673 m 604 1390 l 419 1136 l 318 1136 l 439 1390 l 604 1390 z "},"ŕ":{"ha":500,"x_min":92,"x_max":494,"o":"m 494 621 l 487 621 q 457 626 473 625 q 418 627 441 627 q 316 604 367 627 q 220 538 265 582 l 220 0 l 92 0 l 92 758 l 220 758 l 220 645 q 341 732 290 707 q 442 758 393 758 q 472 756 462 758 q 494 753 481 755 l 494 621 m 471 1137 l 286 883 l 185 883 l 307 1137 l 471 1137 z "},"Ř":{"ha":862,"x_min":102,"x_max":884,"o":"m 884 0 l 710 0 l 390 401 l 237 401 l 237 0 l 102 0 l 102 1010 l 363 1010 q 508 1000 450 1010 q 620 956 567 991 q 704 869 673 922 q 734 736 734 815 q 678 550 734 625 q 525 439 622 475 l 884 0 m 594 726 q 578 804 594 770 q 530 860 563 838 q 464 887 502 879 q 370 895 426 895 l 237 895 l 237 513 l 355 513 q 458 524 412 513 q 537 566 505 534 q 580 633 566 594 q 594 726 594 673 m 642 1390 l 488 1133 l 334 1133 l 179 1390 l 287 1390 l 412 1216 l 537 1390 l 642 1390 z "},"ř":{"ha":500,"x_min":37,"x_max":500,"o":"m 494 621 l 487 621 q 457 626 473 625 q 418 627 441 627 q 316 604 367 627 q 220 538 265 582 l 220 0 l 92 0 l 92 758 l 220 758 l 220 645 q 341 732 290 707 q 442 758 393 758 q 472 756 462 758 q 494 753 481 755 l 494 621 m 500 1137 l 345 880 l 191 880 l 37 1137 l 144 1137 l 270 963 l 395 1137 l 500 1137 z "},"Ś":{"ha":774,"x_min":52,"x_max":739,"o":"m 384 -18 q 197 4 274 -18 q 52 60 120 27 l 52 229 l 62 229 q 212 132 128 166 q 374 98 296 98 q 543 144 486 98 q 600 267 600 191 q 570 365 600 327 q 475 421 540 403 q 389 444 428 435 q 292 467 351 452 q 199 502 240 481 q 125 557 157 523 q 77 635 94 590 q 60 739 60 680 q 155 945 60 862 q 399 1028 251 1028 q 560 1011 484 1028 q 700 963 635 994 l 700 802 l 690 802 q 566 879 642 846 q 408 912 491 912 q 257 868 315 912 q 199 753 199 825 q 233 651 199 689 q 332 595 267 613 q 436 569 374 584 q 538 543 498 555 q 691 446 643 511 q 739 288 739 382 q 715 171 739 229 q 648 73 691 113 q 537 5 599 29 q 384 -18 476 -18 m 591 1390 l 406 1136 l 304 1136 l 426 1390 l 591 1390 z "},"ś":{"ha":620,"x_min":45,"x_max":593,"o":"m 297 -18 q 155 2 221 -18 q 45 45 89 22 l 45 189 l 52 189 q 91 160 68 176 q 149 127 113 144 q 221 101 182 113 q 302 90 260 90 q 367 97 332 90 q 418 115 401 104 q 453 148 442 130 q 463 201 463 165 q 438 269 463 246 q 351 308 414 292 q 287 322 326 314 q 214 340 248 330 q 88 417 127 365 q 49 545 49 470 q 126 711 49 647 q 332 776 203 776 q 458 760 395 776 q 566 721 522 745 l 566 585 l 559 585 q 450 646 510 623 q 329 668 390 668 q 222 642 266 668 q 179 562 179 615 q 205 491 179 514 q 288 452 231 467 q 351 438 316 445 q 425 421 386 431 q 551 351 509 400 q 593 218 593 302 q 574 126 593 170 q 517 51 555 82 q 426 -1 477 17 q 297 -18 374 -18 m 501 1137 l 316 883 l 215 883 l 336 1137 l 501 1137 z "},"Ţ":{"ha":811,"x_min":-1,"x_max":812,"o":"m 338 0 l 338 890 l -1 890 l -1 1010 l 812 1010 l 812 890 l 473 890 l 473 14 l 557 14 q 560 -17 558 1 q 562 -60 562 -36 q 503 -229 562 -170 q 353 -287 444 -287 q 294 -283 328 -287 q 233 -271 260 -279 l 233 -162 l 239 -162 q 282 -177 256 -170 q 336 -185 309 -185 q 427 -158 399 -185 q 455 -73 455 -132 q 455 -41 455 -58 q 453 0 454 -24 l 338 0 z "},"ţ":{"ha":465,"x_min":14,"x_max":463,"o":"m 316 -14 q 157 46 214 -12 q 100 232 100 105 l 100 652 l 14 652 l 14 758 l 100 758 l 100 975 l 228 975 l 228 758 l 463 758 l 463 652 l 228 652 l 228 292 q 230 203 228 234 q 245 144 232 172 q 283 109 257 121 q 353 97 309 97 q 413 106 384 97 q 455 121 442 115 l 463 121 l 463 7 q 442 1 454 5 q 416 -4 429 -2 q 417 -28 416 -14 q 418 -60 418 -42 q 359 -229 418 -170 q 210 -287 300 -287 q 151 -283 185 -287 q 90 -271 117 -279 l 90 -162 l 96 -162 q 139 -177 113 -170 q 193 -185 165 -185 q 287 -158 256 -185 q 317 -73 317 -132 q 317 -46 317 -60 q 316 -14 317 -31 z "},"Ť":{"ha":811,"x_min":-1,"x_max":812,"o":"m 338 0 l 338 890 l -1 890 l -1 1010 l 812 1010 l 812 890 l 473 890 l 473 0 l 338 0 m 638 1390 l 484 1133 l 330 1133 l 175 1390 l 283 1390 l 408 1216 l 533 1390 l 638 1390 z "},"ť":{"ha":650,"x_min":14,"x_max":695,"o":"m 321 -15 q 159 44 217 -15 q 100 232 100 104 l 100 652 l 14 652 l 14 758 l 100 758 l 100 975 l 228 975 l 228 758 l 426 758 l 426 652 l 228 652 l 228 292 q 230 203 228 234 q 245 144 232 172 q 283 109 257 121 q 353 97 309 97 q 413 106 384 97 q 455 121 442 115 l 463 121 l 463 7 q 390 -9 427 -3 q 321 -15 353 -15 m 695 1055 l 532 713 l 446 713 l 543 1055 l 695 1055 z "},"Ů":{"ha":911,"x_min":90,"x_max":821,"o":"m 455 -21 q 300 2 366 -21 q 186 72 233 26 q 112 198 134 125 q 90 380 90 272 l 90 1010 l 224 1010 l 224 380 q 233 262 224 310 q 268 176 242 214 q 341 115 295 136 q 455 94 388 94 q 567 115 518 94 q 643 176 616 136 q 677 262 668 215 q 686 376 686 309 l 686 1010 l 821 1010 l 821 380 q 799 199 821 275 q 724 72 778 124 q 612 2 676 25 q 455 -21 548 -21 m 663 1201 q 603 1055 663 1114 q 456 997 543 997 q 309 1056 369 997 q 248 1201 248 1114 q 309 1347 248 1288 q 456 1405 369 1405 q 603 1347 543 1405 q 663 1201 663 1289 m 564 1200 q 533 1284 564 1251 q 456 1318 503 1318 q 378 1284 409 1318 q 348 1200 348 1250 q 378 1118 348 1151 q 456 1084 408 1084 q 533 1118 503 1084 q 564 1200 564 1152 z "},"ů":{"ha":774,"x_min":87,"x_max":682,"o":"m 682 0 l 555 0 l 555 84 q 443 6 496 33 q 325 -21 390 -21 q 232 -5 275 -21 q 155 47 188 12 q 105 136 123 82 q 87 266 87 189 l 87 758 l 214 758 l 214 326 q 219 226 214 266 q 239 157 223 186 q 281 114 254 127 q 358 100 308 100 q 458 127 405 100 q 555 192 511 153 l 555 758 l 682 758 l 682 0 m 595 964 q 535 818 595 876 q 388 760 475 760 q 241 818 301 760 q 180 964 180 877 q 241 1109 180 1050 q 388 1168 301 1168 q 535 1109 475 1168 q 595 964 595 1051 m 496 963 q 466 1047 496 1013 q 388 1080 435 1080 q 311 1046 341 1080 q 280 963 280 1013 q 310 880 280 913 q 388 847 340 847 q 466 881 435 847 q 496 963 496 914 z "},"Ű":{"ha":911,"x_min":90,"x_max":821,"o":"m 455 -21 q 300 2 366 -21 q 186 72 233 26 q 112 198 134 125 q 90 380 90 272 l 90 1010 l 224 1010 l 224 380 q 233 262 224 310 q 268 176 242 214 q 341 115 295 136 q 455 94 388 94 q 567 115 518 94 q 643 176 616 136 q 677 262 668 215 q 686 376 686 309 l 686 1010 l 821 1010 l 821 380 q 799 199 821 275 q 724 72 778 124 q 612 2 676 25 q 455 -21 548 -21 m 789 1390 l 614 1136 l 519 1136 l 634 1390 l 789 1390 m 515 1390 l 340 1136 l 245 1136 l 360 1390 l 515 1390 z "},"ű":{"ha":774,"x_min":87,"x_max":713,"o":"m 682 0 l 555 0 l 555 84 q 443 6 496 33 q 325 -21 390 -21 q 232 -5 275 -21 q 155 47 188 12 q 105 136 123 82 q 87 266 87 189 l 87 758 l 214 758 l 214 326 q 219 226 214 266 q 239 157 223 186 q 281 114 254 127 q 358 100 308 100 q 458 127 405 100 q 555 192 511 153 l 555 758 l 682 758 l 682 0 m 713 1137 l 538 883 l 444 883 l 558 1137 l 713 1137 m 439 1137 l 264 883 l 170 883 l 284 1137 l 439 1137 z "},"Ź":{"ha":777,"x_min":41,"x_max":746,"o":"m 746 0 l 41 0 l 41 125 l 581 890 l 65 890 l 65 1010 l 732 1010 l 732 888 l 186 119 l 746 119 l 746 0 m 591 1390 l 406 1136 l 304 1136 l 426 1390 l 591 1390 z "},"ź":{"ha":617,"x_min":33,"x_max":590,"o":"m 590 0 l 33 0 l 33 94 l 429 652 l 50 652 l 50 758 l 583 758 l 583 667 l 184 106 l 590 106 l 590 0 m 498 1137 l 313 883 l 212 883 l 334 1137 l 498 1137 z "},"Ż":{"ha":777,"x_min":41,"x_max":746,"o":"m 746 0 l 41 0 l 41 125 l 581 890 l 65 890 l 65 1010 l 732 1010 l 732 888 l 186 119 l 746 119 l 746 0 m 465 1137 l 320 1137 l 320 1270 l 465 1270 l 465 1137 z "},"ż":{"ha":617,"x_min":33,"x_max":590,"o":"m 590 0 l 33 0 l 33 94 l 429 652 l 50 652 l 50 758 l 583 758 l 583 667 l 184 106 l 590 106 l 590 0 m 377 884 l 232 884 l 232 1017 l 377 1017 l 377 884 z "},"Γ":{"ha":705,"x_min":102,"x_max":701,"o":"m 701 890 l 237 890 l 237 0 l 102 0 l 102 1010 l 701 1010 l 701 890 z "},"Θ":{"ha":983,"x_min":45,"x_max":938,"o":"m 817 894 q 906 729 874 827 q 938 505 938 631 q 907 283 938 382 q 817 117 876 184 q 672 13 755 46 q 491 -21 590 -21 q 307 14 389 -21 q 165 117 224 48 q 76 282 107 184 q 45 505 45 380 q 76 728 45 632 q 166 894 108 825 q 307 996 224 961 q 491 1031 389 1031 q 677 995 594 1031 q 817 894 760 959 m 798 505 q 777 682 798 605 q 715 810 755 760 q 619 889 675 863 q 492 915 562 915 q 364 889 418 915 q 267 810 309 864 q 206 681 227 759 q 184 505 184 603 q 268 200 184 306 q 492 95 351 95 q 715 200 632 95 q 798 505 798 306 m 690 484 l 292 484 l 292 605 l 690 605 l 690 484 z "},"Φ":{"ha":1040,"x_min":45,"x_max":995,"o":"m 453 807 q 342 788 389 806 q 260 734 295 770 q 203 640 222 696 q 184 517 184 583 q 204 379 184 437 q 265 280 224 320 q 344 231 296 250 q 453 210 392 211 l 453 807 m 587 911 q 762 877 682 909 q 893 792 841 846 q 968 672 942 742 q 995 512 995 602 q 966 346 995 418 q 887 224 938 273 q 752 140 832 170 q 587 109 672 111 l 587 -8 l 453 -8 l 453 109 q 288 139 368 111 q 152 222 208 167 q 73 345 101 272 q 45 512 45 418 q 72 670 45 600 q 148 791 99 741 q 279 877 200 846 q 453 911 357 908 l 453 1018 l 587 1018 l 587 911 m 587 210 q 695 230 648 212 q 774 280 743 249 q 836 379 816 321 q 855 517 855 437 q 836 640 855 585 q 780 734 817 695 q 698 788 745 770 q 587 807 651 806 l 587 210 z "},"α":{"ha":770,"x_min":40,"x_max":678,"o":"m 678 0 l 551 0 l 551 77 q 443 3 496 27 q 323 -21 389 -21 q 117 84 193 -21 q 40 373 40 189 q 65 542 40 467 q 138 673 91 617 q 239 750 180 722 q 362 779 298 779 q 461 765 419 779 q 551 726 504 752 l 553 726 l 553 758 l 678 758 l 678 0 m 551 184 l 551 621 q 465 653 503 644 q 383 662 427 662 q 225 583 278 662 q 172 376 172 504 q 215 171 172 242 q 353 100 259 100 q 455 123 404 100 q 551 184 506 146 z "},"δ":{"ha":754,"x_min":39,"x_max":715,"o":"m 715 373 q 624 82 715 184 q 378 -21 532 -21 q 130 81 220 -21 q 39 362 39 184 q 63 517 39 448 q 132 635 87 585 q 233 711 174 683 q 353 751 291 739 q 235 848 290 805 q 122 934 180 891 l 122 1055 l 648 1055 l 648 948 l 288 948 l 288 941 q 401 857 330 910 q 540 742 473 804 q 679 564 642 647 q 715 373 715 481 m 584 373 q 547 547 584 469 q 439 677 511 624 q 350 656 395 672 q 262 604 304 640 q 196 509 221 568 q 170 366 170 450 q 224 159 170 230 q 378 89 278 89 q 530 160 476 89 q 584 373 584 231 z "},"ε":{"ha":632,"x_min":41,"x_max":613,"o":"m 613 43 q 481 -3 544 11 q 340 -18 418 -18 q 236 -6 290 -18 q 140 31 183 5 q 68 101 96 58 q 41 208 41 144 q 77 321 41 271 q 191 396 113 370 l 191 401 q 99 462 134 416 q 65 569 65 507 q 94 668 65 628 q 165 732 123 708 q 259 765 207 755 q 359 776 312 776 q 474 765 422 776 q 584 734 526 753 l 584 595 l 576 595 q 473 648 534 630 q 350 667 412 667 q 298 663 321 667 q 248 646 274 659 q 211 613 226 635 q 195 560 195 591 q 213 496 195 519 q 260 463 230 473 q 321 452 287 453 q 386 451 355 451 l 446 451 l 446 338 l 357 338 q 287 336 319 338 q 228 321 256 333 q 186 284 202 309 q 171 219 171 259 q 188 157 171 181 q 229 119 205 132 q 284 99 252 106 q 351 92 316 92 q 488 117 417 92 q 605 184 559 141 l 613 184 l 613 43 z "},"σ":{"ha":808,"x_min":39,"x_max":810,"o":"m 810 646 l 631 646 q 692 531 669 598 q 715 378 715 465 q 623 83 715 187 q 378 -21 531 -21 q 129 86 220 -21 q 39 378 39 194 q 132 673 39 568 q 378 779 225 779 q 444 772 410 779 q 506 758 477 766 l 810 758 l 810 646 m 584 378 q 530 597 584 526 q 378 669 477 669 q 224 596 279 669 q 170 378 170 523 q 224 162 170 236 q 378 89 278 89 q 530 161 476 89 q 584 378 584 233 z "},"τ":{"ha":648,"x_min":3,"x_max":646,"o":"m 646 646 l 388 646 l 388 0 l 260 0 l 260 646 l 3 646 l 3 758 l 646 758 l 646 646 z "},"φ":{"ha":981,"x_min":39,"x_max":942,"o":"m 942 391 q 834 110 942 219 q 554 -9 727 1 l 554 -279 l 427 -279 l 427 -9 q 277 20 348 -5 q 153 96 207 46 q 68 215 98 146 q 39 370 39 284 q 77 573 39 482 q 198 758 116 665 l 352 758 l 352 746 q 213 579 256 668 q 170 385 170 490 q 239 179 170 256 q 427 97 309 101 l 427 775 q 473 777 449 777 q 524 777 497 777 q 831 675 720 777 q 942 391 942 574 m 811 397 q 741 596 811 522 q 554 670 671 670 l 554 97 q 746 184 682 104 q 811 397 811 264 z "},"‗":{"ha":758,"x_min":-11,"x_max":769,"o":"m 769 -144 l -11 -144 l -11 -56 l 769 -56 l 769 -144 m 769 -287 l -11 -287 l -11 -199 l 769 -199 l 769 -287 z "},"‼":{"ha":776,"x_min":155,"x_max":621,"o":"m 307 1010 l 288 278 l 175 278 l 155 1010 l 307 1010 m 300 0 l 161 0 l 161 143 l 300 143 l 300 0 m 621 1010 l 602 278 l 490 278 l 469 1010 l 621 1010 m 614 0 l 476 0 l 476 143 l 614 143 l 614 0 z "},"ⁿ":{"ha":685,"x_min":85,"x_max":604,"o":"m 604 384 l 487 384 l 487 738 q 484 821 487 786 q 469 880 481 855 q 432 916 456 905 q 367 928 408 928 q 283 906 324 928 q 201 850 242 884 l 201 384 l 85 384 l 85 1009 l 201 1009 l 201 941 q 296 1007 250 984 q 397 1030 342 1030 q 550 969 496 1030 q 604 789 604 907 l 604 384 z "},"₧":{"ha":1325,"x_min":113,"x_max":1253,"o":"m 1253 186 q 1238 110 1253 147 q 1195 45 1223 73 q 1123 0 1164 16 q 1019 -16 1082 -16 q 899 1 949 -16 q 815 37 848 18 l 815 163 l 825 163 q 916 105 867 127 q 1013 83 966 83 q 1099 103 1068 83 q 1130 175 1130 123 q 1111 229 1130 209 q 1042 262 1093 248 q 1000 274 1023 267 q 951 290 977 281 q 852 357 882 313 q 823 465 823 401 q 826 495 823 481 q 832 520 829 508 l 699 520 l 699 0 l 579 0 l 579 572 q 472 484 537 516 q 306 452 408 452 l 241 452 l 241 0 l 113 0 l 113 1010 l 311 1010 q 441 996 386 1010 q 533 954 496 981 q 602 877 575 924 q 632 764 628 831 l 699 764 l 699 624 l 905 624 q 965 651 928 640 q 1041 661 1002 661 q 1139 649 1088 661 q 1221 618 1190 637 l 1221 496 l 1211 496 q 1132 547 1172 530 q 1050 564 1093 564 q 974 539 1003 564 q 944 475 944 515 q 964 419 944 437 q 1024 389 984 401 q 1064 376 1042 383 q 1115 360 1086 369 q 1216 298 1180 340 q 1253 186 1253 255 m 501 738 q 487 812 501 780 q 444 863 473 844 q 382 888 418 881 q 300 895 346 895 l 241 895 l 241 565 l 283 565 q 387 575 344 565 q 456 614 429 586 q 491 669 480 640 q 501 738 501 698 z "},"Ĳ":{"ha":1015,"x_min":63,"x_max":920,"o":"m 448 0 l 63 0 l 63 103 l 192 103 l 192 907 l 63 907 l 63 1010 l 455 1010 l 455 907 l 326 907 l 326 103 l 448 103 l 448 0 m 920 262 q 839 58 920 130 q 623 -14 759 -14 q 576 -13 605 -14 q 519 -7 548 -12 l 519 113 l 526 113 q 568 104 549 107 q 604 101 587 101 q 703 115 667 101 q 758 156 739 129 q 781 222 776 183 q 785 313 785 262 l 785 903 l 600 903 l 600 1010 l 920 1010 l 920 262 z "},"ĳ":{"ha":716,"x_min":86,"x_max":625,"o":"m 624 -22 q 554 -219 624 -151 q 363 -287 485 -287 q 312 -285 342 -287 q 257 -279 283 -283 l 257 -165 l 264 -165 q 301 -171 279 -168 q 338 -174 322 -174 q 422 -162 389 -174 q 471 -122 455 -149 q 491 -60 486 -98 q 496 31 496 -23 l 496 652 l 353 652 l 353 758 l 624 758 l 624 -22 m 222 0 l 95 0 l 95 758 l 222 758 l 222 0 m 231 884 l 86 884 l 86 1017 l 231 1017 l 231 884 m 625 884 l 479 884 l 479 1017 l 625 1017 l 625 884 z "},"ŉ":{"ha":962,"x_min":22,"x_max":875,"o":"m 875 0 l 747 0 l 747 431 q 743 529 747 484 q 723 601 738 574 q 680 643 707 629 q 604 657 652 657 q 506 632 556 657 q 407 566 455 606 l 407 0 l 279 0 l 279 758 l 407 758 l 407 673 q 519 751 464 724 q 637 779 575 779 q 812 705 749 779 q 875 492 875 631 l 875 0 m 293 1055 l 116 676 l 22 676 l 129 1055 l 293 1055 z "},"′":{"ha":408,"x_min":93,"x_max":387,"o":"m 387 1010 l 185 590 l 93 590 l 224 1010 l 387 1010 z "},"″":{"ha":659,"x_min":93,"x_max":652,"o":"m 385 1010 l 182 590 l 93 590 l 224 1010 l 385 1010 m 652 1010 l 450 590 l 360 590 l 492 1010 l 652 1010 z "},"℅":{"ha":1356,"x_min":69,"x_max":1291,"o":"m 517 476 q 484 460 500 469 q 441 445 467 452 q 396 434 416 437 q 345 430 376 430 q 234 448 286 430 q 146 503 182 467 q 89 596 109 541 q 69 728 69 652 q 89 856 69 801 q 146 951 109 911 q 234 1009 182 989 q 345 1029 286 1029 q 432 1018 390 1029 q 517 984 473 1006 l 517 868 l 507 868 q 483 887 495 878 q 446 911 470 897 q 403 929 427 922 q 351 937 380 937 q 235 885 277 937 q 192 728 192 834 q 204 635 192 675 q 237 570 216 595 q 286 534 257 547 q 351 522 315 522 q 406 530 380 522 q 449 549 432 538 q 483 571 468 559 q 507 591 498 583 l 517 591 l 517 476 m 999 1010 l 470 0 l 358 0 l 887 1010 l 999 1010 m 1291 281 q 1222 58 1291 136 q 1041 -20 1153 -20 q 859 61 926 -20 q 791 281 791 142 q 861 502 791 424 q 1041 579 930 579 q 1222 502 1154 579 q 1291 281 1291 424 m 1170 279 q 1136 437 1170 385 q 1041 489 1103 489 q 947 438 981 489 q 912 279 912 388 q 946 123 912 175 q 1041 71 979 71 q 1136 123 1102 71 q 1170 279 1170 176 z "},"ℓ":{"ha":449,"x_min":10,"x_max":438,"o":"m 10 286 l 130 446 l 130 754 q 172 959 130 907 q 289 1011 214 1011 q 396 967 354 1011 q 438 849 438 923 q 397 697 438 787 q 245 451 357 607 l 245 170 q 255 95 245 109 q 283 80 264 80 q 323 91 300 80 q 418 153 347 102 l 418 43 q 342 -2 380 13 q 265 -16 304 -16 q 166 22 203 -16 q 130 147 130 61 l 130 300 l 77 233 l 10 286 m 245 610 q 327 768 311 724 q 343 848 343 811 q 339 885 343 869 q 326 913 334 901 q 310 925 319 921 q 292 930 302 930 q 273 926 281 930 q 260 912 264 922 q 249 861 253 898 q 245 764 245 823 l 245 610 z "},"□":{"ha":839,"x_min":99,"x_max":739,"o":"m 99 640 l 739 640 l 739 0 l 99 0 l 99 640 m 151 589 l 151 52 l 688 52 l 688 589 l 151 589 z "},"▪":{"ha":492,"x_min":89,"x_max":403,"o":"m 403 616 l 403 302 l 89 302 l 89 616 l 403 616 z "},"▫":{"ha":492,"x_min":89,"x_max":403,"o":"m 403 616 l 403 302 l 89 302 l 89 616 l 403 616 m 351 564 l 140 564 l 140 353 l 351 353 l 351 564 z "},"●":{"ha":839,"x_min":120,"x_max":718,"o":"m 120 391 q 208 602 120 515 q 419 690 295 690 q 630 602 543 690 q 718 391 718 515 q 630 180 718 267 q 419 92 543 92 q 208 180 295 92 q 120 391 120 267 z "},"◦":{"ha":492,"x_min":76,"x_max":416,"o":"m 246 629 q 367 579 317 629 q 416 459 416 530 q 367 339 416 389 q 246 289 317 289 q 126 339 176 289 q 76 459 76 389 q 125 579 76 530 q 246 629 175 629 m 246 578 q 162 543 197 578 q 127 459 127 508 q 162 375 127 410 q 246 340 197 340 q 330 375 295 340 q 365 459 365 410 q 330 543 365 508 q 246 578 296 578 z "},"Ā":{"ha":833,"x_min":-7,"x_max":840,"o":"m -7 0 l 334 1010 l 499 1010 l 840 0 l 698 0 l 606 282 l 220 282 l 129 0 l -7 0 m 569 397 l 413 873 l 258 397 l 569 397 m 672 1152 l 161 1152 l 161 1256 l 672 1256 l 672 1152 z "},"ā":{"ha":729,"x_min":39,"x_max":642,"o":"m 515 186 l 515 397 q 400 386 470 393 q 288 366 331 378 q 204 318 237 350 q 171 228 171 286 q 208 130 171 163 q 315 96 244 96 q 424 122 375 96 q 515 186 473 149 m 515 81 q 474 48 500 69 q 423 16 448 28 q 358 -12 389 -2 q 269 -21 326 -21 q 180 -3 222 -21 q 106 46 138 14 q 58 123 76 77 q 39 220 39 169 q 73 354 39 298 q 178 441 106 409 q 328 482 241 471 q 515 498 415 493 l 515 523 q 502 595 515 568 q 464 637 488 623 q 404 658 439 653 q 332 663 369 663 q 228 650 288 663 q 109 612 168 637 l 101 612 l 101 741 q 202 764 136 751 q 332 776 268 776 q 464 764 410 776 q 560 720 517 751 q 622 639 602 688 q 642 518 642 589 l 642 0 l 515 0 l 515 81 m 614 905 l 103 905 l 103 1010 l 614 1010 l 614 905 z "},"Ĉ":{"ha":834,"x_min":45,"x_max":811,"o":"m 497 -18 q 315 15 398 -18 q 172 114 232 48 q 78 278 111 180 q 45 504 45 376 q 77 725 45 631 q 171 889 109 819 q 314 992 231 957 q 499 1028 397 1028 q 594 1021 550 1028 q 677 1002 639 1013 q 744 976 709 991 q 811 943 778 961 l 811 781 l 800 781 q 755 820 783 797 q 687 865 727 843 q 603 900 648 886 q 498 913 557 913 q 376 887 433 913 q 275 809 318 861 q 208 680 232 758 q 184 504 184 602 q 210 325 184 400 q 278 199 235 250 q 377 123 320 149 q 498 98 434 98 q 606 112 556 98 q 694 148 655 126 q 758 191 731 169 q 801 229 785 213 l 811 229 l 811 68 q 748 39 778 53 q 677 11 719 24 q 595 -11 633 -3 q 497 -18 557 -18 m 713 1133 l 606 1133 l 480 1306 l 355 1133 l 250 1133 l 405 1390 l 559 1390 l 713 1133 z "},"ĉ":{"ha":641,"x_min":40,"x_max":617,"o":"m 393 -17 q 250 7 315 -17 q 138 80 185 31 q 66 203 92 129 q 40 378 40 277 q 67 550 40 477 q 138 672 94 623 q 250 748 183 722 q 393 775 317 775 q 514 758 456 775 q 617 717 572 740 l 617 574 l 610 574 q 575 600 596 585 q 523 631 553 615 q 460 654 496 644 q 391 665 425 665 q 232 590 292 665 q 172 378 172 515 q 230 169 172 243 q 391 94 288 94 q 510 119 454 94 q 610 186 566 145 l 617 186 l 617 43 q 570 21 598 34 q 518 3 541 9 q 460 -12 486 -7 q 393 -17 434 -17 m 604 880 l 496 880 l 371 1053 l 246 880 l 141 880 l 296 1137 l 450 1137 l 604 880 z "},"Ċ":{"ha":834,"x_min":45,"x_max":811,"o":"m 497 -18 q 315 15 398 -18 q 172 114 232 48 q 78 278 111 180 q 45 504 45 376 q 77 725 45 631 q 171 889 109 819 q 314 992 231 957 q 499 1028 397 1028 q 594 1021 550 1028 q 677 1002 639 1013 q 744 976 709 991 q 811 943 778 961 l 811 781 l 800 781 q 755 820 783 797 q 687 865 727 843 q 603 900 648 886 q 498 913 557 913 q 376 887 433 913 q 275 809 318 861 q 208 680 232 758 q 184 504 184 602 q 210 325 184 400 q 278 199 235 250 q 377 123 320 149 q 498 98 434 98 q 606 112 556 98 q 694 148 655 126 q 758 191 731 169 q 801 229 785 213 l 811 229 l 811 68 q 748 39 778 53 q 677 11 719 24 q 595 -11 633 -3 q 497 -18 557 -18 m 549 1137 l 404 1137 l 404 1270 l 549 1270 l 549 1137 z "},"ċ":{"ha":641,"x_min":40,"x_max":617,"o":"m 393 -17 q 250 7 315 -17 q 138 80 185 31 q 66 203 92 129 q 40 378 40 277 q 67 550 40 477 q 138 672 94 623 q 250 748 183 722 q 393 775 317 775 q 514 758 456 775 q 617 717 572 740 l 617 574 l 610 574 q 575 600 596 585 q 523 631 553 615 q 460 654 496 644 q 391 665 425 665 q 232 590 292 665 q 172 378 172 515 q 230 169 172 243 q 391 94 288 94 q 510 119 454 94 q 610 186 566 145 l 617 186 l 617 43 q 570 21 598 34 q 518 3 541 9 q 460 -12 486 -7 q 393 -17 434 -17 m 444 884 l 298 884 l 298 1017 l 444 1017 l 444 884 z "},"Ē":{"ha":779,"x_min":102,"x_max":734,"o":"m 102 0 l 102 1010 l 734 1010 l 734 890 l 237 890 l 237 614 l 700 614 l 700 494 l 237 494 l 237 119 l 734 119 l 734 0 l 102 0 m 673 1152 l 161 1152 l 161 1256 l 673 1256 l 673 1152 z "},"ē":{"ha":731,"x_min":40,"x_max":694,"o":"m 421 -18 q 140 84 240 -18 q 40 374 40 186 q 137 669 40 559 q 391 779 234 779 q 515 758 461 779 q 610 694 570 738 q 673 588 651 651 q 694 435 694 526 l 694 366 l 170 366 q 236 163 170 233 q 420 94 302 94 q 502 103 462 94 q 575 127 543 113 q 633 158 610 143 q 673 185 657 172 l 680 185 l 680 46 q 625 24 658 37 q 565 3 591 11 q 497 -12 528 -7 q 421 -18 467 -18 m 570 463 q 558 552 569 515 q 527 615 547 589 q 470 659 505 644 q 383 673 435 673 q 297 658 332 673 q 232 614 261 643 q 189 548 203 584 q 170 463 174 511 l 570 463 m 647 905 l 136 905 l 136 1010 l 647 1010 l 647 905 z "},"Ĕ":{"ha":779,"x_min":102,"x_max":734,"o":"m 102 0 l 102 1010 l 734 1010 l 734 890 l 237 890 l 237 614 l 700 614 l 700 494 l 237 494 l 237 119 l 734 119 l 734 0 l 102 0 m 641 1362 q 627 1256 641 1304 q 586 1176 612 1208 q 517 1122 555 1140 q 418 1104 478 1104 q 320 1123 362 1104 q 250 1176 279 1141 q 208 1257 222 1210 q 194 1362 194 1305 l 304 1362 q 332 1231 304 1271 q 418 1190 361 1190 q 501 1230 471 1190 q 531 1362 531 1270 l 641 1362 z "},"ĕ":{"ha":731,"x_min":40,"x_max":694,"o":"m 421 -18 q 140 84 240 -18 q 40 374 40 186 q 137 669 40 559 q 391 779 234 779 q 515 758 461 779 q 610 694 570 738 q 673 588 651 651 q 694 435 694 526 l 694 366 l 170 366 q 236 163 170 233 q 420 94 302 94 q 502 103 462 94 q 575 127 543 113 q 633 158 610 143 q 673 185 657 172 l 680 185 l 680 46 q 625 24 658 37 q 565 3 591 11 q 497 -12 528 -7 q 421 -18 467 -18 m 570 463 q 558 552 569 515 q 527 615 547 589 q 470 659 505 644 q 383 673 435 673 q 297 658 332 673 q 232 614 261 643 q 189 548 203 584 q 170 463 174 511 l 570 463 m 612 1109 q 597 1003 612 1051 q 557 923 583 956 q 488 869 526 887 q 389 851 449 851 q 291 870 333 851 q 221 923 250 888 q 179 1004 193 957 q 165 1109 165 1052 l 275 1109 q 303 978 275 1018 q 389 937 332 937 q 472 977 442 937 q 502 1109 502 1017 l 612 1109 z "},"Ė":{"ha":779,"x_min":102,"x_max":734,"o":"m 102 0 l 102 1010 l 734 1010 l 734 890 l 237 890 l 237 614 l 700 614 l 700 494 l 237 494 l 237 119 l 734 119 l 734 0 l 102 0 m 513 1137 l 368 1137 l 368 1270 l 513 1270 l 513 1137 z "},"ė":{"ha":731,"x_min":40,"x_max":694,"o":"m 421 -18 q 140 84 240 -18 q 40 374 40 186 q 137 669 40 559 q 391 779 234 779 q 515 758 461 779 q 610 694 570 738 q 673 588 651 651 q 694 435 694 526 l 694 366 l 170 366 q 236 163 170 233 q 420 94 302 94 q 502 103 462 94 q 575 127 543 113 q 633 158 610 143 q 673 185 657 172 l 680 185 l 680 46 q 625 24 658 37 q 565 3 591 11 q 497 -12 528 -7 q 421 -18 467 -18 m 570 463 q 558 552 569 515 q 527 615 547 589 q 470 659 505 644 q 383 673 435 673 q 297 658 332 673 q 232 614 261 643 q 189 548 203 584 q 170 463 174 511 l 570 463 m 465 884 l 320 884 l 320 1017 l 465 1017 l 465 884 z "},"Ĝ":{"ha":927,"x_min":45,"x_max":861,"o":"m 525 -20 q 329 13 418 -20 q 176 112 240 45 q 79 278 113 179 q 45 506 45 377 q 79 725 45 628 q 177 890 113 821 q 329 992 239 956 q 526 1028 419 1028 q 624 1021 577 1028 q 713 1000 671 1013 q 789 972 747 990 q 857 941 831 954 l 857 779 l 845 779 q 793 822 820 802 q 718 865 766 842 q 624 899 677 885 q 510 912 571 912 q 274 802 364 912 q 184 510 184 692 q 208 332 184 408 q 277 203 232 256 q 381 124 320 151 q 519 96 443 96 q 633 104 576 96 q 728 129 689 113 l 728 390 l 494 390 l 494 508 l 861 508 l 861 67 q 792 38 835 56 q 711 10 749 20 q 622 -12 662 -5 q 525 -20 582 -20 m 733 1133 l 625 1133 l 500 1306 l 375 1133 l 270 1133 l 425 1390 l 578 1390 l 733 1133 z "},"ĝ":{"ha":768,"x_min":40,"x_max":675,"o":"m 548 205 l 548 621 q 460 654 500 644 q 380 664 420 664 q 227 593 283 664 q 172 389 172 522 q 214 197 172 262 q 351 131 256 131 q 453 151 401 131 q 548 205 506 170 m 119 -121 q 157 -136 132 -127 q 214 -153 182 -145 q 279 -168 250 -162 q 345 -173 309 -173 q 445 -157 404 -173 q 509 -114 486 -142 q 539 -50 530 -86 q 548 34 548 -13 l 548 100 q 447 34 496 56 q 323 13 397 13 q 117 109 193 13 q 40 386 40 205 q 66 553 40 480 q 138 677 93 626 q 239 752 180 726 q 359 779 297 779 q 461 765 418 779 q 548 725 505 751 l 555 758 l 675 758 l 675 86 q 591 -197 675 -106 q 334 -287 507 -287 q 221 -278 279 -287 q 113 -254 163 -269 l 113 -121 l 119 -121 m 618 880 l 510 880 l 385 1053 l 260 880 l 155 880 l 309 1137 l 463 1137 l 618 880 z "},"Ġ":{"ha":927,"x_min":45,"x_max":861,"o":"m 525 -20 q 329 13 418 -20 q 176 112 240 45 q 79 278 113 179 q 45 506 45 377 q 79 725 45 628 q 177 890 113 821 q 329 992 239 956 q 526 1028 419 1028 q 624 1021 577 1028 q 713 1000 671 1013 q 789 972 747 990 q 857 941 831 954 l 857 779 l 845 779 q 793 822 820 802 q 718 865 766 842 q 624 899 677 885 q 510 912 571 912 q 274 802 364 912 q 184 510 184 692 q 208 332 184 408 q 277 203 232 256 q 381 124 320 151 q 519 96 443 96 q 633 104 576 96 q 728 129 689 113 l 728 390 l 494 390 l 494 508 l 861 508 l 861 67 q 792 38 835 56 q 711 10 749 20 q 622 -12 662 -5 q 525 -20 582 -20 m 567 1137 l 422 1137 l 422 1270 l 567 1270 l 567 1137 z "},"ġ":{"ha":768,"x_min":40,"x_max":675,"o":"m 548 205 l 548 621 q 460 654 500 644 q 380 664 420 664 q 227 593 283 664 q 172 389 172 522 q 214 197 172 262 q 351 131 256 131 q 453 151 401 131 q 548 205 506 170 m 119 -121 q 157 -136 132 -127 q 214 -153 182 -145 q 279 -168 250 -162 q 345 -173 309 -173 q 445 -157 404 -173 q 509 -114 486 -142 q 539 -50 530 -86 q 548 34 548 -13 l 548 100 q 447 34 496 56 q 323 13 397 13 q 117 109 193 13 q 40 386 40 205 q 66 553 40 480 q 138 677 93 626 q 239 752 180 726 q 359 779 297 779 q 461 765 418 779 q 548 725 505 751 l 555 758 l 675 758 l 675 86 q 591 -197 675 -106 q 334 -287 507 -287 q 221 -278 279 -287 q 113 -254 163 -269 l 113 -121 l 119 -121 m 447 884 l 302 884 l 302 1017 l 447 1017 l 447 884 z "},"Ģ":{"ha":927,"x_min":45,"x_max":861,"o":"m 525 -20 q 329 13 418 -20 q 176 112 240 45 q 79 278 113 179 q 45 506 45 377 q 79 725 45 628 q 177 890 113 821 q 329 992 239 956 q 526 1028 419 1028 q 624 1021 577 1028 q 713 1000 671 1013 q 789 972 747 990 q 857 941 831 954 l 857 779 l 845 779 q 793 822 820 802 q 718 865 766 842 q 624 899 677 885 q 510 912 571 912 q 274 802 364 912 q 184 510 184 692 q 208 332 184 408 q 277 203 232 256 q 381 124 320 151 q 519 96 443 96 q 633 104 576 96 q 728 129 689 113 l 728 390 l 494 390 l 494 508 l 861 508 l 861 67 q 792 38 835 56 q 711 10 749 20 q 622 -12 662 -5 q 525 -20 582 -20 m 385 -287 l 477 -104 l 642 -104 l 478 -287 l 385 -287 z "},"ģ":{"ha":768,"x_min":40,"x_max":675,"o":"m 548 205 l 548 621 q 460 654 500 644 q 380 664 420 664 q 227 593 283 664 q 172 389 172 522 q 214 197 172 262 q 351 131 256 131 q 453 151 401 131 q 548 205 506 170 m 119 -121 q 157 -136 132 -127 q 214 -153 182 -145 q 279 -168 250 -162 q 345 -173 309 -173 q 445 -157 404 -173 q 509 -114 486 -142 q 539 -50 530 -86 q 548 34 548 -13 l 548 100 q 447 34 496 56 q 323 13 397 13 q 117 109 193 13 q 40 386 40 205 q 66 553 40 480 q 138 677 93 626 q 239 752 180 726 q 359 779 297 779 q 461 765 418 779 q 548 725 505 751 l 555 758 l 675 758 l 675 86 q 591 -197 675 -106 q 334 -287 507 -287 q 221 -278 279 -287 q 113 -254 163 -269 l 113 -121 l 119 -121 m 551 1137 l 429 883 l 264 883 l 450 1137 l 551 1137 z "},"Ĥ":{"ha":938,"x_min":102,"x_max":836,"o":"m 836 0 l 701 0 l 701 494 l 237 494 l 237 0 l 102 0 l 102 1010 l 237 1010 l 237 614 l 701 614 l 701 1010 l 836 1010 l 836 0 m 701 1133 l 593 1133 l 468 1306 l 343 1133 l 238 1133 l 393 1390 l 547 1390 l 701 1133 z "},"ĥ":{"ha":774,"x_min":92,"x_max":688,"o":"m 688 0 l 560 0 l 560 431 q 555 529 560 484 q 536 601 550 574 q 492 643 520 629 q 416 657 465 657 q 318 632 369 657 q 220 566 268 606 l 220 0 l 92 0 l 92 1055 l 220 1055 l 220 673 q 332 751 277 724 q 450 779 388 779 q 625 705 562 779 q 688 492 688 631 l 688 0 m 637 1133 l 530 1133 l 404 1306 l 279 1133 l 174 1133 l 329 1390 l 483 1390 l 637 1133 z "},"Ħ":{"ha":994,"x_min":16,"x_max":977,"o":"m 863 0 l 729 0 l 729 494 l 264 494 l 264 0 l 130 0 l 130 752 l 16 752 l 16 847 l 130 847 l 130 1010 l 264 1010 l 264 847 l 729 847 l 729 1010 l 863 1010 l 863 847 l 977 847 l 977 752 l 863 752 l 863 0 m 729 614 l 729 752 l 264 752 l 264 614 l 729 614 z "},"ħ":{"ha":803,"x_min":8,"x_max":715,"o":"m 715 0 l 588 0 l 588 431 q 583 529 588 484 q 564 601 578 574 q 520 643 548 629 q 444 657 492 657 q 346 632 397 657 q 248 566 296 606 l 248 0 l 120 0 l 121 860 l 8 860 l 8 951 l 121 951 l 120 1055 l 248 1055 l 248 951 l 452 951 l 452 860 l 248 860 l 248 673 q 360 751 304 724 q 477 779 416 779 q 652 705 589 779 q 715 492 715 631 l 715 0 z "},"Ĩ":{"ha":518,"x_min":7,"x_max":512,"o":"m 455 0 l 63 0 l 63 103 l 192 103 l 192 907 l 63 907 l 63 1010 l 455 1010 l 455 907 l 326 907 l 326 103 l 455 103 l 455 0 m 512 1351 q 467 1197 507 1248 q 359 1145 426 1145 q 298 1157 324 1145 q 247 1196 272 1169 q 198 1238 220 1223 q 157 1253 177 1253 q 112 1223 126 1253 q 96 1141 97 1192 l 7 1141 q 53 1294 9 1243 q 159 1345 97 1345 q 218 1333 191 1345 q 271 1296 245 1320 q 320 1254 300 1267 q 361 1241 341 1241 q 407 1272 391 1241 q 423 1351 422 1303 l 512 1351 z "},"ĩ":{"ha":317,"x_min":-37,"x_max":356,"o":"m 222 0 l 95 0 l 95 758 l 222 758 l 222 0 m 356 1082 q 323 951 356 995 q 236 907 290 907 q 189 916 209 907 q 149 946 170 924 q 112 981 127 970 q 81 993 97 993 q 46 969 58 993 q 35 902 35 946 l -37 902 q -4 1033 -37 989 q 83 1078 29 1078 q 132 1068 115 1078 q 170 1038 149 1059 q 208 1003 193 1015 q 237 991 222 991 q 273 1016 262 991 q 284 1082 284 1040 l 356 1082 z "},"Ī":{"ha":518,"x_min":37,"x_max":481,"o":"m 455 0 l 63 0 l 63 103 l 192 103 l 192 907 l 63 907 l 63 1010 l 455 1010 l 455 907 l 326 907 l 326 103 l 455 103 l 455 0 m 481 1152 l 37 1152 l 37 1256 l 481 1256 l 481 1152 z "},"ī":{"ha":317,"x_min":-22,"x_max":340,"o":"m 222 0 l 95 0 l 95 758 l 222 758 l 222 0 m 340 905 l -22 905 l -22 1010 l 340 1010 l 340 905 z "},"Ĭ":{"ha":518,"x_min":57,"x_max":462,"o":"m 455 0 l 63 0 l 63 103 l 192 103 l 192 907 l 63 907 l 63 1010 l 455 1010 l 455 907 l 326 907 l 326 103 l 455 103 l 455 0 m 462 1358 q 413 1174 462 1244 q 260 1104 363 1104 q 107 1174 157 1104 q 57 1358 57 1244 l 164 1358 q 186 1229 164 1267 q 260 1190 209 1190 q 331 1226 308 1190 q 355 1358 355 1263 l 462 1358 z "},"ĭ":{"ha":317,"x_min":-31,"x_max":348,"o":"m 222 0 l 95 0 l 95 758 l 222 758 l 222 0 m 348 1093 q 301 923 348 988 q 159 858 254 858 q 17 922 65 858 q -31 1093 -31 987 l 68 1093 q 90 974 68 1010 q 159 937 112 937 q 226 970 203 937 q 249 1093 249 1004 l 348 1093 z "},"Į":{"ha":518,"x_min":63,"x_max":455,"o":"m 455 0 l 63 0 l 63 103 l 192 103 l 192 907 l 63 907 l 63 1010 l 455 1010 l 455 907 l 326 907 l 326 103 l 455 103 l 455 0 m 314 0 q 262 -61 284 -24 q 240 -129 240 -97 q 253 -165 240 -151 q 291 -179 265 -179 q 318 -176 305 -179 q 338 -170 330 -173 l 346 -170 l 346 -264 q 304 -276 326 -273 q 264 -280 283 -280 q 170 -249 204 -280 q 136 -161 136 -217 q 159 -73 136 -117 q 213 0 183 -28 l 314 0 z "},"į":{"ha":317,"x_min":32,"x_max":242,"o":"m 222 0 l 95 0 l 95 758 l 222 758 l 222 0 m 231 884 l 86 884 l 86 1017 l 231 1017 l 231 884 m 210 0 q 158 -61 180 -24 q 136 -129 136 -97 q 149 -165 136 -151 q 187 -179 161 -179 q 214 -176 201 -179 q 235 -170 227 -173 l 242 -170 l 242 -264 q 201 -276 222 -273 q 161 -280 179 -280 q 66 -249 100 -280 q 32 -161 32 -217 q 56 -73 32 -117 q 109 0 79 -28 l 210 0 z "},"Ĵ":{"ha":578,"x_min":6,"x_max":550,"o":"m 483 262 q 402 58 483 130 q 184 -14 321 -14 q 97 -8 152 -14 q 6 5 43 -3 l 6 134 l 14 134 q 82 113 41 124 q 166 101 123 101 q 266 115 229 101 q 320 156 302 130 q 343 222 338 183 q 349 313 349 262 l 349 903 l 135 903 l 135 1010 l 483 1010 l 483 262 m 550 1133 l 442 1133 l 317 1306 l 192 1133 l 87 1133 l 241 1390 l 395 1390 l 550 1133 z "},"ĵ":{"ha":391,"x_min":-61,"x_max":390,"o":"m 299 -22 q 230 -219 299 -151 q 38 -287 160 -287 q -9 -285 17 -287 q -61 -279 -35 -283 l -61 -165 l -54 -165 q -21 -171 -39 -168 q 14 -174 -3 -174 q 97 -162 64 -174 q 146 -122 130 -149 q 166 -60 161 -98 q 172 31 172 -23 l 172 652 l 35 652 l 35 758 l 299 758 l 299 -22 m 390 880 l 288 880 l 186 1061 l 86 880 l -14 880 l 111 1137 l 265 1137 l 390 880 z "},"Ķ":{"ha":817,"x_min":102,"x_max":838,"o":"m 838 0 l 664 0 l 296 470 l 237 404 l 237 0 l 102 0 l 102 1010 l 237 1010 l 237 545 l 650 1010 l 814 1010 l 396 559 l 838 0 m 303 -287 l 396 -104 l 560 -104 l 397 -287 l 303 -287 z "},"ķ":{"ha":692,"x_min":92,"x_max":720,"o":"m 720 0 l 553 0 l 270 366 l 220 317 l 220 0 l 92 0 l 92 1055 l 220 1055 l 220 437 l 519 758 l 678 758 l 367 441 l 720 0 m 235 -287 l 328 -104 l 492 -104 l 329 -287 l 235 -287 z "},"ĸ":{"ha":692,"x_min":92,"x_max":720,"o":"m 720 0 l 553 0 l 270 366 l 220 317 l 220 0 l 92 0 l 92 758 l 220 758 l 220 437 l 519 758 l 678 758 l 367 441 l 720 0 z "},"Ļ":{"ha":691,"x_min":102,"x_max":688,"o":"m 688 0 l 102 0 l 102 1010 l 237 1010 l 237 119 l 688 119 l 688 0 m 262 -287 l 355 -104 l 519 -104 l 356 -287 l 262 -287 z "},"ļ":{"ha":317,"x_min":45,"x_max":302,"o":"m 222 0 l 95 0 l 95 1055 l 222 1055 l 222 0 m 45 -287 l 138 -104 l 302 -104 l 139 -287 l 45 -287 z "},"Ņ":{"ha":927,"x_min":102,"x_max":825,"o":"m 825 0 l 674 0 l 228 871 l 228 0 l 102 0 l 102 1010 l 293 1010 l 699 210 l 699 1010 l 825 1010 l 825 0 m 303 -287 l 396 -104 l 560 -104 l 397 -287 l 303 -287 z "},"ņ":{"ha":774,"x_min":92,"x_max":688,"o":"m 688 0 l 560 0 l 560 431 q 555 529 560 484 q 536 601 550 574 q 492 643 520 629 q 416 657 465 657 q 318 632 369 657 q 220 566 268 606 l 220 0 l 92 0 l 92 758 l 220 758 l 220 673 q 332 751 277 724 q 450 779 388 779 q 625 705 562 779 q 688 492 688 631 l 688 0 m 235 -287 l 328 -104 l 492 -104 l 329 -287 l 235 -287 z "},"Ŋ":{"ha":927,"x_min":102,"x_max":825,"o":"m 700 -7 l 228 871 l 228 0 l 102 0 l 102 1010 l 293 1010 l 699 252 l 699 1010 l 825 1010 l 825 -18 q 755 -217 825 -148 q 564 -287 686 -287 q 517 -285 543 -287 q 466 -279 492 -283 l 466 -165 l 473 -165 q 506 -171 488 -168 q 540 -174 524 -174 q 668 -132 637 -174 q 700 -7 700 -90 z "},"ŋ":{"ha":774,"x_min":92,"x_max":688,"o":"m 688 -22 q 618 -219 688 -151 q 427 -287 549 -287 q 380 -285 406 -287 q 329 -279 355 -283 l 329 -165 l 336 -165 q 369 -171 351 -168 q 403 -174 387 -174 q 487 -161 454 -174 q 536 -123 520 -149 q 555 -61 551 -97 q 560 33 560 -25 l 560 431 q 555 529 560 484 q 536 601 550 574 q 492 643 520 629 q 416 657 465 657 q 318 632 369 657 q 220 566 268 606 l 220 0 l 92 0 l 92 758 l 220 758 l 220 673 q 332 751 277 724 q 450 779 388 779 q 625 705 562 779 q 688 492 688 631 l 688 -22 z "},"Ō":{"ha":983,"x_min":45,"x_max":938,"o":"m 817 894 q 906 729 874 827 q 938 505 938 631 q 907 283 938 382 q 817 117 876 184 q 672 13 755 46 q 491 -21 590 -21 q 307 14 389 -21 q 165 117 224 48 q 76 282 107 184 q 45 505 45 380 q 76 728 45 632 q 166 894 108 825 q 307 996 224 961 q 491 1031 389 1031 q 677 995 594 1031 q 817 894 760 959 m 798 505 q 777 682 798 605 q 715 810 755 760 q 619 889 675 863 q 492 915 562 915 q 364 889 418 915 q 267 810 309 864 q 206 681 227 759 q 184 505 184 603 q 268 200 184 306 q 492 95 351 95 q 715 200 632 95 q 798 505 798 306 m 747 1152 l 235 1152 l 235 1256 l 747 1256 l 747 1152 z "},"ō":{"ha":754,"x_min":39,"x_max":715,"o":"m 715 378 q 623 83 715 187 q 378 -21 531 -21 q 129 86 220 -21 q 39 378 39 194 q 132 673 39 568 q 378 779 225 779 q 623 674 531 779 q 715 378 715 569 m 584 378 q 530 597 584 526 q 378 669 477 669 q 224 597 278 669 q 170 378 170 526 q 224 162 170 236 q 378 89 278 89 q 530 161 476 89 q 584 378 584 233 m 633 905 l 121 905 l 121 1010 l 633 1010 l 633 905 z "},"Ŏ":{"ha":983,"x_min":45,"x_max":938,"o":"m 817 894 q 906 729 874 827 q 938 505 938 631 q 907 283 938 382 q 817 117 876 184 q 672 13 755 46 q 491 -21 590 -21 q 307 14 389 -21 q 165 117 224 48 q 76 282 107 184 q 45 505 45 380 q 76 728 45 632 q 166 894 108 825 q 307 996 224 961 q 491 1031 389 1031 q 677 995 594 1031 q 817 894 760 959 m 798 505 q 777 682 798 605 q 715 810 755 760 q 619 889 675 863 q 492 915 562 915 q 364 889 418 915 q 267 810 309 864 q 206 681 227 759 q 184 505 184 603 q 268 200 184 306 q 492 95 351 95 q 715 200 632 95 q 798 505 798 306 m 714 1362 q 700 1256 714 1304 q 659 1176 686 1208 q 590 1122 629 1140 q 491 1104 551 1104 q 394 1123 435 1104 q 323 1176 352 1141 q 281 1257 296 1210 q 267 1362 267 1305 l 377 1362 q 406 1231 377 1271 q 491 1190 434 1190 q 574 1230 545 1190 q 604 1362 604 1270 l 714 1362 z "},"ŏ":{"ha":754,"x_min":39,"x_max":715,"o":"m 715 378 q 623 83 715 187 q 378 -21 531 -21 q 129 86 220 -21 q 39 378 39 194 q 132 673 39 568 q 378 779 225 779 q 623 674 531 779 q 715 378 715 569 m 584 378 q 530 597 584 526 q 378 669 477 669 q 224 597 278 669 q 170 378 170 526 q 224 162 170 236 q 378 89 278 89 q 530 161 476 89 q 584 378 584 233 m 600 1109 q 586 1003 600 1051 q 545 923 572 956 q 476 869 515 887 q 377 851 437 851 q 280 870 321 851 q 210 923 238 888 q 168 1004 182 957 q 153 1109 153 1052 l 263 1109 q 292 978 263 1018 q 377 937 320 937 q 460 977 431 937 q 490 1109 490 1017 l 600 1109 z "},"Ŗ":{"ha":862,"x_min":102,"x_max":884,"o":"m 884 0 l 710 0 l 390 401 l 237 401 l 237 0 l 102 0 l 102 1010 l 363 1010 q 508 1000 450 1010 q 620 956 567 991 q 704 869 673 922 q 734 736 734 815 q 678 550 734 625 q 525 439 622 475 l 884 0 m 594 726 q 578 804 594 770 q 530 860 563 838 q 464 887 502 879 q 370 895 426 895 l 237 895 l 237 513 l 355 513 q 458 524 412 513 q 537 566 505 534 q 580 633 566 594 q 594 726 594 673 m 303 -287 l 396 -104 l 560 -104 l 397 -287 l 303 -287 z "},"ŗ":{"ha":500,"x_min":73,"x_max":494,"o":"m 494 621 l 487 621 q 457 626 473 625 q 418 627 441 627 q 316 604 367 627 q 220 538 265 582 l 220 0 l 92 0 l 92 758 l 220 758 l 220 645 q 341 732 290 707 q 442 758 393 758 q 472 756 462 758 q 494 753 481 755 l 494 621 m 73 -287 l 165 -104 l 330 -104 l 166 -287 l 73 -287 z "},"Ŝ":{"ha":774,"x_min":52,"x_max":739,"o":"m 384 -18 q 197 4 274 -18 q 52 60 120 27 l 52 229 l 62 229 q 212 132 128 166 q 374 98 296 98 q 543 144 486 98 q 600 267 600 191 q 570 365 600 327 q 475 421 540 403 q 389 444 428 435 q 292 467 351 452 q 199 502 240 481 q 125 557 157 523 q 77 635 94 590 q 60 739 60 680 q 155 945 60 862 q 399 1028 251 1028 q 560 1011 484 1028 q 700 963 635 994 l 700 802 l 690 802 q 566 879 642 846 q 408 912 491 912 q 257 868 315 912 q 199 753 199 825 q 233 651 199 689 q 332 595 267 613 q 436 569 374 584 q 538 543 498 555 q 691 446 643 511 q 739 288 739 382 q 715 171 739 229 q 648 73 691 113 q 537 5 599 29 q 384 -18 476 -18 m 631 1133 l 524 1133 l 398 1306 l 273 1133 l 168 1133 l 323 1390 l 477 1390 l 631 1133 z "},"ŝ":{"ha":620,"x_min":45,"x_max":593,"o":"m 297 -18 q 155 2 221 -18 q 45 45 89 22 l 45 189 l 52 189 q 91 160 68 176 q 149 127 113 144 q 221 101 182 113 q 302 90 260 90 q 367 97 332 90 q 418 115 401 104 q 453 148 442 130 q 463 201 463 165 q 438 269 463 246 q 351 308 414 292 q 287 322 326 314 q 214 340 248 330 q 88 417 127 365 q 49 545 49 470 q 126 711 49 647 q 332 776 203 776 q 458 760 395 776 q 566 721 522 745 l 566 585 l 559 585 q 450 646 510 623 q 329 668 390 668 q 222 642 266 668 q 179 562 179 615 q 205 491 179 514 q 288 452 231 467 q 351 438 316 445 q 425 421 386 431 q 551 351 509 400 q 593 218 593 302 q 574 126 593 170 q 517 51 555 82 q 426 -1 477 17 q 297 -18 374 -18 m 560 880 l 452 880 l 327 1053 l 202 880 l 97 880 l 252 1137 l 406 1137 l 560 880 z "},"Ŧ":{"ha":811,"x_min":-1,"x_max":812,"o":"m 812 890 l 473 890 l 473 599 l 688 599 l 688 502 l 473 502 l 473 0 l 338 0 l 338 502 l 123 502 l 123 599 l 338 599 l 338 890 l -1 890 l -1 1010 l 812 1010 l 812 890 z "},"ŧ":{"ha":471,"x_min":21,"x_max":469,"o":"m 328 -15 q 165 44 224 -15 q 107 232 107 104 l 107 361 l 21 361 l 21 452 l 107 452 l 107 652 l 21 652 l 21 758 l 107 758 l 107 975 l 235 975 l 235 758 l 469 758 l 469 652 l 235 652 l 235 452 l 418 452 l 418 361 l 235 361 l 235 292 q 237 203 235 234 q 252 144 239 172 q 290 109 264 121 q 359 97 315 97 q 420 106 391 97 q 462 121 449 115 l 469 121 l 469 7 q 396 -9 433 -3 q 328 -15 359 -15 z "},"Ũ":{"ha":911,"x_min":90,"x_max":821,"o":"m 455 -21 q 300 2 366 -21 q 186 72 233 26 q 112 198 134 125 q 90 380 90 272 l 90 1010 l 224 1010 l 224 380 q 233 262 224 310 q 268 176 242 214 q 341 115 295 136 q 455 94 388 94 q 567 115 518 94 q 643 176 616 136 q 677 262 668 215 q 686 376 686 309 l 686 1010 l 821 1010 l 821 380 q 799 199 821 275 q 724 72 778 124 q 612 2 676 25 q 455 -21 548 -21 m 726 1353 q 675 1194 719 1247 q 559 1141 631 1141 q 494 1154 524 1141 q 435 1194 464 1167 q 384 1237 406 1222 q 341 1251 362 1251 q 295 1221 308 1251 q 279 1139 281 1190 l 184 1139 q 235 1296 189 1243 q 350 1350 282 1350 q 414 1336 385 1350 q 472 1297 443 1323 q 525 1257 501 1271 q 568 1243 548 1243 q 614 1274 600 1243 q 631 1353 629 1304 l 726 1353 z "},"ũ":{"ha":774,"x_min":87,"x_max":682,"o":"m 682 0 l 555 0 l 555 84 q 443 6 496 33 q 325 -21 390 -21 q 232 -5 275 -21 q 155 47 188 12 q 105 136 123 82 q 87 266 87 189 l 87 758 l 214 758 l 214 326 q 219 226 214 266 q 239 157 223 186 q 281 114 254 127 q 358 100 308 100 q 458 127 405 100 q 555 192 511 153 l 555 758 l 682 758 l 682 0 m 655 1107 q 605 948 648 1001 q 488 895 561 895 q 423 908 453 895 q 365 948 393 921 q 313 990 335 976 q 271 1005 292 1005 q 224 975 237 1005 q 208 892 211 944 l 113 892 q 165 1050 118 997 q 279 1103 212 1103 q 343 1090 314 1103 q 401 1051 372 1077 q 454 1011 431 1025 q 497 997 477 997 q 544 1027 529 997 q 560 1107 558 1058 l 655 1107 z "},"Ū":{"ha":911,"x_min":90,"x_max":821,"o":"m 455 -21 q 300 2 366 -21 q 186 72 233 26 q 112 198 134 125 q 90 380 90 272 l 90 1010 l 224 1010 l 224 380 q 233 262 224 310 q 268 176 242 214 q 341 115 295 136 q 455 94 388 94 q 567 115 518 94 q 643 176 616 136 q 677 262 668 215 q 686 376 686 309 l 686 1010 l 821 1010 l 821 380 q 799 199 821 275 q 724 72 778 124 q 612 2 676 25 q 455 -21 548 -21 m 711 1152 l 199 1152 l 199 1256 l 711 1256 l 711 1152 z "},"ū":{"ha":774,"x_min":87,"x_max":682,"o":"m 682 0 l 555 0 l 555 84 q 443 6 496 33 q 325 -21 390 -21 q 232 -5 275 -21 q 155 47 188 12 q 105 136 123 82 q 87 266 87 189 l 87 758 l 214 758 l 214 326 q 219 226 214 266 q 239 157 223 186 q 281 114 254 127 q 358 100 308 100 q 458 127 405 100 q 555 192 511 153 l 555 758 l 682 758 l 682 0 m 643 905 l 132 905 l 132 1010 l 643 1010 l 643 905 z "},"Ŭ":{"ha":911,"x_min":90,"x_max":821,"o":"m 455 -21 q 300 2 366 -21 q 186 72 233 26 q 112 198 134 125 q 90 380 90 272 l 90 1010 l 224 1010 l 224 380 q 233 262 224 310 q 268 176 242 214 q 341 115 295 136 q 455 94 388 94 q 567 115 518 94 q 643 176 616 136 q 677 262 668 215 q 686 376 686 309 l 686 1010 l 821 1010 l 821 380 q 799 199 821 275 q 724 72 778 124 q 612 2 676 25 q 455 -21 548 -21 m 678 1362 q 664 1256 678 1304 q 623 1176 650 1208 q 554 1122 593 1140 q 455 1104 515 1104 q 358 1123 399 1104 q 288 1176 316 1141 q 245 1257 260 1210 q 231 1362 231 1305 l 341 1362 q 370 1231 341 1271 q 455 1190 398 1190 q 538 1230 509 1190 q 568 1362 568 1270 l 678 1362 z "},"ŭ":{"ha":774,"x_min":87,"x_max":682,"o":"m 682 0 l 555 0 l 555 84 q 443 6 496 33 q 325 -21 390 -21 q 232 -5 275 -21 q 155 47 188 12 q 105 136 123 82 q 87 266 87 189 l 87 758 l 214 758 l 214 326 q 219 226 214 266 q 239 157 223 186 q 281 114 254 127 q 358 100 308 100 q 458 127 405 100 q 555 192 511 153 l 555 758 l 682 758 l 682 0 m 610 1109 q 596 1003 610 1051 q 555 923 582 956 q 486 869 525 887 q 387 851 448 851 q 290 870 332 851 q 220 923 248 888 q 178 1004 192 957 q 163 1109 163 1052 l 273 1109 q 302 978 273 1018 q 387 937 330 937 q 471 977 441 937 q 500 1109 500 1017 l 610 1109 z "},"Ų":{"ha":911,"x_min":90,"x_max":821,"o":"m 455 -21 q 300 2 366 -21 q 186 72 233 26 q 112 198 134 125 q 90 380 90 272 l 90 1010 l 224 1010 l 224 380 q 233 262 224 310 q 268 176 242 214 q 341 115 295 136 q 455 94 388 94 q 567 115 518 94 q 643 176 616 136 q 677 262 668 215 q 686 376 686 309 l 686 1010 l 821 1010 l 821 380 q 799 199 821 275 q 724 72 778 124 q 612 2 676 25 q 455 -21 548 -21 m 606 0 q 554 -61 576 -24 q 532 -129 532 -97 q 545 -165 532 -151 q 583 -179 557 -179 q 610 -176 597 -179 q 631 -170 623 -173 l 638 -170 l 638 -264 q 597 -276 618 -273 q 557 -280 575 -280 q 462 -249 496 -280 q 428 -161 428 -217 q 452 -73 428 -117 q 505 0 475 -28 l 606 0 z "},"ų":{"ha":774,"x_min":87,"x_max":701,"o":"m 682 0 l 555 0 l 555 84 q 443 6 496 33 q 325 -21 390 -21 q 232 -5 275 -21 q 155 47 188 12 q 105 136 123 82 q 87 266 87 189 l 87 758 l 214 758 l 214 326 q 219 226 214 266 q 239 157 223 186 q 281 114 254 127 q 358 100 308 100 q 458 127 405 100 q 555 192 511 153 l 555 758 l 682 758 l 682 0 m 669 0 q 617 -61 640 -24 q 595 -129 595 -97 q 608 -165 595 -151 q 646 -179 621 -179 q 673 -176 661 -179 q 694 -170 686 -173 l 701 -170 l 701 -264 q 660 -276 682 -273 q 620 -280 638 -280 q 525 -249 559 -280 q 491 -161 491 -217 q 515 -73 491 -117 q 568 0 538 -28 l 669 0 z "},"Ŵ":{"ha":1253,"x_min":18,"x_max":1235,"o":"m 1235 1010 l 981 0 l 830 0 l 625 838 l 424 0 l 276 0 l 18 1010 l 155 1010 l 359 170 l 561 1010 l 697 1010 l 901 162 l 1103 1010 l 1235 1010 m 863 1133 l 755 1133 l 629 1306 l 505 1133 l 399 1133 l 554 1390 l 708 1390 l 863 1133 z "},"ŵ":{"ha":1031,"x_min":20,"x_max":1010,"o":"m 1010 758 l 819 0 l 701 0 l 515 584 l 332 0 l 214 0 l 20 758 l 153 758 l 287 171 l 467 758 l 572 758 l 756 171 l 882 758 l 1010 758 m 752 880 l 644 880 l 519 1053 l 394 880 l 289 880 l 444 1137 l 597 1137 l 752 880 z "},"Ŷ":{"ha":800,"x_min":-7,"x_max":809,"o":"m 809 1010 l 468 447 l 468 0 l 334 0 l 334 433 l -7 1010 l 142 1010 l 402 564 l 667 1010 l 809 1010 m 634 1133 l 526 1133 l 401 1306 l 276 1133 l 171 1133 l 326 1390 l 479 1390 l 634 1133 z "},"ŷ":{"ha":692,"x_min":4,"x_max":688,"o":"m 688 758 l 280 -279 l 144 -279 l 279 37 l 4 758 l 142 758 l 349 197 l 555 758 l 688 758 m 582 880 l 474 880 l 349 1053 l 224 880 l 119 880 l 273 1137 l 427 1137 l 582 880 z "},"ſ":{"ha":353,"x_min":95,"x_max":480,"o":"m 480 933 l 473 933 q 425 945 456 939 q 368 951 393 951 q 255 913 288 951 q 222 788 222 876 l 222 0 l 95 0 l 95 781 q 163 992 95 923 q 349 1062 232 1062 q 418 1058 385 1062 q 480 1050 452 1055 l 480 933 z "},"Ǻ":{"ha":833,"x_min":-7,"x_max":840,"o":"m 603 1060 q 583 982 603 1017 q 528 925 563 946 l 840 0 l 698 0 l 606 282 l 220 282 l 129 0 l -7 0 l 304 925 q 250 981 270 946 q 229 1060 229 1015 q 284 1183 229 1134 q 416 1232 338 1232 q 549 1183 494 1232 q 603 1060 603 1134 m 569 396 l 413 874 l 258 396 l 569 396 m 503 1060 q 479 1122 503 1097 q 416 1147 455 1147 q 353 1122 378 1147 q 329 1060 329 1097 q 354 996 329 1021 q 416 970 378 970 q 479 996 454 970 q 503 1060 503 1022 m 604 1436 l 439 1250 l 338 1250 l 439 1436 l 604 1436 z "},"ǻ":{"ha":729,"x_min":39,"x_max":642,"o":"m 515 186 l 515 397 q 400 386 470 393 q 288 366 331 378 q 204 318 237 350 q 171 228 171 286 q 208 130 171 163 q 315 96 244 96 q 424 122 375 96 q 515 186 473 149 m 515 81 q 474 48 500 69 q 423 16 448 28 q 358 -12 389 -2 q 269 -21 326 -21 q 180 -3 222 -21 q 106 46 138 14 q 58 123 76 77 q 39 220 39 169 q 73 354 39 298 q 178 441 106 409 q 328 482 241 471 q 515 498 415 493 l 515 523 q 502 595 515 568 q 464 637 488 623 q 409 659 439 653 q 332 665 378 665 q 219 649 275 665 q 109 612 163 634 l 101 612 l 101 741 q 151 752 121 747 q 218 763 180 758 q 184 812 197 785 q 171 874 171 840 q 225 997 171 948 q 357 1046 279 1046 q 488 997 435 1046 q 542 874 542 948 q 525 805 542 836 q 482 753 507 773 q 600 676 558 729 q 642 518 642 623 l 642 0 l 515 0 l 515 81 m 444 874 q 419 936 444 911 q 357 962 395 962 q 294 937 318 962 q 269 874 269 911 q 294 810 269 836 q 357 785 319 785 q 419 810 395 785 q 444 874 444 836 m 545 1250 l 380 1064 l 279 1064 l 380 1250 l 545 1250 z "},"Ǽ":{"ha":1268,"x_min":-26,"x_max":1222,"o":"m 1222 0 l 604 0 l 604 378 l 261 378 l 114 0 l -26 0 l 382 1010 l 1222 1010 l 1222 890 l 736 890 l 736 614 l 1188 614 l 1188 494 l 736 494 l 736 119 l 1222 119 l 1222 0 m 604 490 l 604 898 l 472 898 l 306 490 l 604 490 m 929 1390 l 744 1136 l 643 1136 l 764 1390 l 929 1390 z "},"ǽ":{"ha":1222,"x_min":39,"x_max":1186,"o":"m 554 202 q 534 283 541 239 q 528 378 528 328 q 399 373 463 376 q 284 355 335 369 q 202 310 234 341 q 170 224 170 279 q 208 128 170 159 q 321 96 246 96 q 446 126 383 96 q 554 202 509 156 m 909 94 q 994 103 953 94 q 1066 127 1035 113 q 1124 158 1101 143 q 1164 185 1148 172 l 1171 185 l 1171 46 q 1115 24 1149 37 q 1055 3 1082 11 q 988 -12 1018 -7 q 910 -18 958 -18 q 723 18 801 -18 q 595 123 645 53 q 551 82 581 110 q 489 36 522 55 q 398 -5 445 10 q 276 -20 351 -20 q 108 46 177 -20 q 39 215 39 112 q 75 353 39 302 q 177 433 111 404 q 334 468 239 459 q 533 479 429 477 l 533 518 q 518 591 533 562 q 477 637 504 621 q 418 658 453 652 q 339 665 383 665 q 219 647 284 665 q 116 612 155 629 l 106 612 l 106 741 q 209 764 139 751 q 340 777 278 777 q 516 745 448 777 q 620 652 584 712 q 732 743 665 707 q 879 779 799 779 q 1108 687 1031 779 q 1186 435 1186 596 l 1186 379 l 652 379 q 672 247 652 302 q 728 157 692 191 q 810 108 764 123 q 909 94 855 94 m 1063 477 q 1049 553 1059 517 q 1017 616 1038 589 q 959 657 996 642 q 873 673 922 673 q 785 659 820 673 q 721 616 750 644 q 677 554 694 591 q 654 477 661 517 l 1063 477 m 847 1137 l 662 883 l 561 883 l 682 1137 l 847 1137 z "},"Ǿ":{"ha":983,"x_min":45,"x_max":938,"o":"m 938 505 q 816 117 938 255 q 491 -21 694 -21 q 352 -1 416 -21 q 236 54 288 18 l 146 -79 l 46 -79 l 174 110 q 79 276 113 177 q 45 505 45 375 q 167 892 45 754 q 491 1031 290 1031 q 629 1012 568 1031 q 744 956 690 994 l 822 1072 l 922 1072 l 806 902 q 903 737 868 834 q 938 505 938 640 m 675 854 q 593 900 640 884 q 492 915 547 915 q 267 810 351 915 q 183 505 183 706 q 201 342 183 413 q 250 220 218 271 l 675 854 m 800 505 q 781 671 800 598 q 731 793 762 745 l 305 157 q 387 111 344 126 q 492 95 430 95 q 715 200 631 95 q 800 505 800 306 m 699 1390 l 514 1136 l 413 1136 l 534 1390 l 699 1390 z "},"ǿ":{"ha":754,"x_min":28,"x_max":716,"o":"m 715 378 q 623 83 715 187 q 378 -20 531 -20 q 279 -6 324 -20 q 195 32 235 7 l 112 -100 l 28 -100 l 142 77 q 66 204 93 129 q 39 378 39 279 q 132 673 39 568 q 378 778 225 778 q 474 764 429 778 q 558 726 519 751 l 631 841 l 716 841 l 613 681 q 688 555 661 629 q 715 378 715 481 m 498 632 q 446 659 475 650 q 378 669 416 669 q 223 596 278 669 q 168 378 168 523 q 178 263 168 313 q 208 178 188 214 l 498 632 m 586 378 q 576 496 586 446 q 547 581 566 546 l 256 127 q 310 98 282 107 q 378 89 338 89 q 531 161 476 89 q 586 378 586 233 m 593 1137 l 408 883 l 307 883 l 428 1137 l 593 1137 z "},"·":{"ha":491,"x_min":165,"x_max":327,"o":"m 327 564 l 165 564 l 165 758 l 327 758 l 327 564 z "},"Ẁ":{"ha":1253,"x_min":18,"x_max":1235,"o":"m 1235 1010 l 981 0 l 830 0 l 625 838 l 424 0 l 276 0 l 18 1010 l 155 1010 l 359 170 l 561 1010 l 697 1010 l 901 162 l 1103 1010 l 1235 1010 m 708 1136 l 607 1136 l 422 1390 l 587 1390 l 708 1136 z "},"ẁ":{"ha":1031,"x_min":20,"x_max":1010,"o":"m 1010 758 l 819 0 l 701 0 l 515 584 l 332 0 l 214 0 l 20 758 l 153 758 l 287 171 l 467 758 l 572 758 l 756 171 l 882 758 l 1010 758 m 596 883 l 495 883 l 310 1137 l 475 1137 l 596 883 z "},"Ẃ":{"ha":1253,"x_min":18,"x_max":1235,"o":"m 1235 1010 l 981 0 l 830 0 l 625 838 l 424 0 l 276 0 l 18 1010 l 155 1010 l 359 170 l 561 1010 l 697 1010 l 901 162 l 1103 1010 l 1235 1010 m 838 1390 l 652 1136 l 551 1136 l 673 1390 l 838 1390 z "},"ẃ":{"ha":1031,"x_min":20,"x_max":1010,"o":"m 1010 758 l 819 0 l 701 0 l 515 584 l 332 0 l 214 0 l 20 758 l 153 758 l 287 171 l 467 758 l 572 758 l 756 171 l 882 758 l 1010 758 m 730 1137 l 545 883 l 444 883 l 565 1137 l 730 1137 z "},"Ẅ":{"ha":1253,"x_min":18,"x_max":1235,"o":"m 1235 1010 l 981 0 l 830 0 l 625 838 l 424 0 l 276 0 l 18 1010 l 155 1010 l 359 170 l 561 1010 l 697 1010 l 901 162 l 1103 1010 l 1235 1010 m 837 1137 l 701 1137 l 701 1270 l 837 1270 l 837 1137 m 557 1137 l 420 1137 l 420 1270 l 557 1270 l 557 1137 z "},"ẅ":{"ha":1031,"x_min":20,"x_max":1010,"o":"m 1010 758 l 819 0 l 701 0 l 515 584 l 332 0 l 214 0 l 20 758 l 153 758 l 287 171 l 467 758 l 572 758 l 756 171 l 882 758 l 1010 758 m 727 884 l 591 884 l 591 1017 l 727 1017 l 727 884 m 447 884 l 311 884 l 311 1017 l 447 1017 l 447 884 z "},"Ỳ":{"ha":800,"x_min":-7,"x_max":809,"o":"m 809 1010 l 468 447 l 468 0 l 334 0 l 334 433 l -7 1010 l 142 1010 l 402 564 l 667 1010 l 809 1010 m 498 1136 l 397 1136 l 212 1390 l 376 1390 l 498 1136 z "},"ỳ":{"ha":692,"x_min":4,"x_max":688,"o":"m 688 758 l 280 -279 l 144 -279 l 279 37 l 4 758 l 142 758 l 349 197 l 555 758 l 688 758 m 450 883 l 349 883 l 163 1137 l 328 1137 l 450 883 z "},"‛":{"ha":293,"x_min":-43,"x_max":227,"o":"m 227 1055 l 121 676 l -43 676 l 134 1055 l 227 1055 z "},"‾":{"ha":758,"x_min":-33,"x_max":758,"o":"m 758 1124 l -33 1124 l -33 1213 l 758 1213 l 758 1124 z "},"₤":{"ha":758,"x_min":60,"x_max":699,"o":"m 699 0 l 60 0 l 60 140 q 155 202 121 159 q 197 330 189 246 l 88 330 l 88 420 l 199 420 l 199 515 l 88 515 l 88 606 l 197 606 l 197 726 q 276 946 197 863 q 480 1029 355 1029 q 593 1019 546 1029 q 679 997 640 1008 l 679 857 l 672 857 q 600 895 646 874 q 493 916 553 916 q 369 864 410 916 q 328 713 328 812 l 328 606 l 574 606 l 574 515 l 326 515 l 326 420 l 574 420 l 574 330 l 324 330 q 274 205 314 254 q 177 123 234 157 l 177 116 l 699 116 l 699 0 z "},"℮":{"ha":879,"x_min":60,"x_max":820,"o":"m 820 429 l 195 429 q 217 278 195 339 q 280 174 239 216 q 375 114 319 134 q 495 94 430 94 q 680 133 600 94 q 797 201 761 172 l 806 201 l 806 56 q 672 5 734 28 q 501 -18 610 -18 q 178 98 295 -18 q 60 435 60 214 q 172 778 60 654 q 465 902 284 902 q 722 805 625 902 q 820 505 820 708 l 820 429 m 691 533 q 677 639 690 590 q 636 723 664 688 q 563 777 609 758 q 456 797 517 797 q 272 722 340 797 q 195 533 204 646 l 691 533 z "},"⅛":{"ha":1389,"x_min":116,"x_max":1304,"o":"m 370 383 l 258 383 l 258 845 l 116 845 l 116 924 q 228 939 185 924 q 277 1013 271 954 l 370 1013 l 370 383 m 956 1010 l 427 0 l 315 0 l 844 1010 l 956 1010 m 1304 170 q 1235 34 1304 88 q 1061 -21 1166 -21 q 883 33 948 -21 q 819 168 819 87 q 850 262 819 222 q 943 329 882 303 l 943 332 q 863 393 887 359 q 840 475 840 427 q 902 595 840 547 q 1063 643 965 643 q 1225 597 1164 643 q 1286 481 1286 551 q 1259 396 1286 438 q 1177 330 1232 353 l 1177 327 q 1273 264 1242 300 q 1304 170 1304 228 m 1175 469 q 1146 528 1175 504 q 1063 553 1116 553 q 984 531 1015 553 q 952 473 952 510 q 968 427 952 448 q 1015 393 985 406 q 1055 375 1031 385 q 1111 357 1080 365 q 1162 409 1149 382 q 1175 469 1175 436 m 1192 171 q 1173 225 1192 205 q 1109 265 1154 245 q 1064 282 1094 273 q 1006 301 1034 291 q 947 248 966 279 q 928 184 928 216 q 968 101 928 134 q 1063 69 1008 69 q 1155 96 1118 69 q 1192 171 1192 122 z "},"⅜":{"ha":1389,"x_min":95,"x_max":1326,"o":"m 538 560 q 517 474 538 512 q 465 413 497 435 q 387 377 429 388 q 292 366 345 366 q 188 376 236 366 q 95 406 139 387 l 95 524 l 106 524 q 184 480 132 500 q 290 460 236 460 q 384 485 347 460 q 421 559 421 510 q 387 635 421 615 q 292 655 353 655 l 197 655 l 197 749 l 281 749 q 373 775 340 749 q 405 846 405 801 q 377 910 405 886 q 290 935 349 935 q 194 913 245 935 q 117 869 142 892 l 105 869 l 105 987 q 199 1017 149 1006 q 304 1029 250 1029 q 465 981 407 1029 q 522 867 522 934 q 489 770 522 808 q 404 714 456 732 l 404 709 q 498 661 458 698 q 538 560 538 624 m 1017 1010 l 488 0 l 376 0 l 905 1010 l 1017 1010 m 1326 170 q 1258 34 1326 88 q 1084 -21 1189 -21 q 906 33 970 -21 q 841 168 841 87 q 873 262 841 222 q 965 329 905 303 l 965 332 q 886 393 909 359 q 862 475 862 427 q 925 595 862 547 q 1085 643 987 643 q 1247 597 1186 643 q 1309 481 1309 551 q 1282 396 1309 438 q 1199 330 1255 353 l 1199 327 q 1296 264 1265 300 q 1326 170 1326 228 m 1198 469 q 1168 528 1198 504 q 1085 553 1139 553 q 1006 531 1038 553 q 975 473 975 510 q 991 427 975 448 q 1038 393 1007 406 q 1078 375 1053 385 q 1133 357 1102 365 q 1185 409 1172 382 q 1198 469 1198 436 m 1214 171 q 1195 225 1214 205 q 1132 265 1177 245 q 1086 282 1116 273 q 1028 301 1057 291 q 970 248 989 279 q 951 184 951 216 q 991 101 951 134 q 1085 69 1031 69 q 1177 96 1140 69 q 1214 171 1214 122 z "},"⅝":{"ha":1389,"x_min":94,"x_max":1326,"o":"m 538 588 q 520 500 538 541 q 472 430 503 460 q 393 384 439 401 q 288 366 347 366 q 185 376 235 366 q 94 403 134 385 l 94 511 l 104 511 q 179 479 130 497 q 281 460 229 460 q 338 469 311 460 q 386 495 366 477 q 413 537 406 515 q 421 587 421 560 q 411 635 421 615 q 380 667 401 654 q 330 687 360 682 q 264 693 300 693 q 187 688 224 693 q 125 680 151 684 l 125 1016 l 530 1016 l 530 922 l 231 922 l 231 781 q 261 783 245 783 q 288 784 278 784 q 385 777 345 784 q 460 745 425 769 q 517 683 497 721 q 538 588 538 646 m 1017 1010 l 488 0 l 376 0 l 905 1010 l 1017 1010 m 1326 170 q 1258 34 1326 88 q 1084 -21 1189 -21 q 906 33 970 -21 q 841 168 841 87 q 873 262 841 222 q 965 329 905 303 l 965 332 q 886 393 909 359 q 862 475 862 427 q 925 595 862 547 q 1085 643 987 643 q 1247 597 1186 643 q 1309 481 1309 551 q 1282 396 1309 438 q 1199 330 1255 353 l 1199 327 q 1296 264 1265 300 q 1326 170 1326 228 m 1198 469 q 1168 528 1198 504 q 1085 553 1139 553 q 1006 531 1038 553 q 975 473 975 510 q 991 427 975 448 q 1038 393 1007 406 q 1078 375 1053 385 q 1133 357 1102 365 q 1185 409 1172 382 q 1198 469 1198 436 m 1214 171 q 1195 225 1214 205 q 1132 265 1177 245 q 1086 282 1116 273 q 1028 301 1057 291 q 970 248 989 279 q 951 184 951 216 q 991 101 951 134 q 1085 69 1031 69 q 1177 96 1140 69 q 1214 171 1214 122 z "},"⅞":{"ha":1389,"x_min":104,"x_max":1291,"o":"m 572 921 l 253 383 l 127 383 l 464 922 l 104 922 l 104 1016 l 572 1016 l 572 921 m 952 1010 l 423 0 l 311 0 l 840 1010 l 952 1010 m 1291 170 q 1222 34 1291 88 q 1048 -21 1153 -21 q 870 33 935 -21 q 805 168 805 87 q 837 262 805 222 q 929 329 869 303 l 929 332 q 850 393 873 359 q 826 475 826 427 q 889 595 826 547 q 1049 643 951 643 q 1212 597 1150 643 q 1273 481 1273 551 q 1246 396 1273 438 q 1163 330 1219 353 l 1163 327 q 1260 264 1229 300 q 1291 170 1291 228 m 1162 469 q 1132 528 1162 504 q 1049 553 1103 553 q 970 531 1002 553 q 939 473 939 510 q 955 427 939 448 q 1002 393 971 406 q 1042 375 1017 385 q 1097 357 1066 365 q 1149 409 1136 382 q 1162 469 1162 436 m 1178 171 q 1159 225 1178 205 q 1096 265 1141 245 q 1050 282 1080 273 q 992 301 1021 291 q 934 248 953 279 q 915 184 915 216 q 955 101 915 134 q 1049 69 995 69 q 1141 96 1104 69 q 1178 171 1178 122 z "},"΄":{"ha":758,"x_min":297,"x_max":462,"o":"m 462 1137 l 429 876 l 330 876 l 297 1137 l 462 1137 z "},"΅":{"ha":758,"x_min":118,"x_max":642,"o":"m 456 1137 l 423 876 l 336 876 l 303 1137 l 456 1137 m 642 884 l 512 884 l 512 1017 l 642 1017 l 642 884 m 248 884 l 118 884 l 118 1017 l 248 1017 l 248 884 z "},"Ά":{"ha":833,"x_min":-7,"x_max":840,"o":"m -7 0 l 334 1010 l 499 1010 l 840 0 l 698 0 l 606 282 l 220 282 l 129 0 l -7 0 m 569 397 l 413 873 l 258 397 l 569 397 m 173 1010 l 140 749 l 41 749 l 8 1010 l 173 1010 z "},"Έ":{"ha":942,"x_min":0,"x_max":897,"o":"m 265 0 l 265 1010 l 897 1010 l 897 890 l 399 890 l 399 614 l 863 614 l 863 494 l 399 494 l 399 119 l 897 119 l 897 0 l 265 0 m 165 1010 l 132 749 l 33 749 l 0 1010 l 165 1010 z "},"Ή":{"ha":1101,"x_min":0,"x_max":998,"o":"m 998 0 l 864 0 l 864 494 l 399 494 l 399 0 l 265 0 l 265 1010 l 399 1010 l 399 614 l 864 614 l 864 1010 l 998 1010 l 998 0 m 165 1010 l 132 749 l 33 749 l 0 1010 l 165 1010 z "},"Ί":{"ha":674,"x_min":0,"x_max":611,"o":"m 611 0 l 219 0 l 219 103 l 348 103 l 348 907 l 219 907 l 219 1010 l 611 1010 l 611 907 l 482 907 l 482 103 l 611 103 l 611 0 m 165 1010 l 132 749 l 33 749 l 0 1010 l 165 1010 z "},"Ό":{"ha":1112,"x_min":0,"x_max":1067,"o":"m 945 894 q 1035 729 1003 827 q 1067 505 1067 631 q 1036 283 1067 382 q 945 117 1004 184 q 801 13 884 46 q 620 -21 719 -21 q 435 14 517 -21 q 294 117 353 48 q 205 282 236 184 q 174 505 174 380 q 205 728 174 632 q 295 894 237 825 q 436 996 353 961 q 620 1031 518 1031 q 806 995 723 1031 q 945 894 888 959 m 927 505 q 905 682 927 605 q 844 810 884 760 q 748 889 804 863 q 621 915 691 915 q 493 889 547 915 q 396 810 438 864 q 335 681 356 759 q 313 505 313 603 q 397 200 313 306 q 621 95 480 95 q 844 200 761 95 q 927 505 927 306 m 165 1010 l 132 749 l 33 749 l 0 1010 l 165 1010 z "},"Ύ":{"ha":997,"x_min":0,"x_max":1006,"o":"m 1006 1010 l 665 447 l 665 0 l 530 0 l 530 433 l 189 1010 l 338 1010 l 599 564 l 863 1010 l 1006 1010 m 165 1010 l 132 749 l 33 749 l 0 1010 l 165 1010 z "},"Ώ":{"ha":1111,"x_min":0,"x_max":1086,"o":"m 1086 0 l 707 0 l 707 262 q 789 319 749 288 q 857 388 829 350 q 903 478 887 430 q 919 606 919 526 q 901 727 919 670 q 846 825 883 784 q 754 891 810 867 q 625 915 698 915 q 496 891 551 915 q 401 825 440 867 q 346 727 365 785 q 326 606 326 668 q 344 478 326 532 q 392 387 362 425 q 463 318 422 349 q 543 262 503 288 l 543 0 l 164 0 l 164 118 l 431 118 l 431 202 q 337 271 381 231 q 259 362 293 311 q 206 475 225 414 q 186 606 186 536 q 216 775 186 700 q 303 909 245 850 q 441 998 358 966 q 625 1031 525 1031 q 807 999 726 1031 q 945 910 888 968 q 1029 775 1000 853 q 1059 606 1059 698 q 1040 474 1059 536 q 989 363 1021 413 q 914 272 958 313 q 820 202 871 231 l 820 118 l 1086 118 l 1086 0 m 165 1010 l 132 749 l 33 749 l 0 1010 l 165 1010 z "},"ΐ":{"ha":317,"x_min":-68,"x_max":385,"o":"m 225 1137 l 187 876 l 130 876 l 92 1137 l 225 1137 m 385 884 l 269 884 l 269 1017 l 385 1017 l 385 884 m 48 884 l -68 884 l -68 1017 l 48 1017 l 48 884 m 222 0 l 95 0 l 95 758 l 222 758 l 222 0 z "},"Α":{"ha":833,"x_min":-7,"x_max":840,"o":"m -7 0 l 334 1010 l 499 1010 l 840 0 l 698 0 l 606 282 l 220 282 l 129 0 l -7 0 m 569 397 l 413 873 l 258 397 l 569 397 z "},"Β":{"ha":819,"x_min":102,"x_max":787,"o":"m 787 310 q 759 177 787 235 q 682 82 730 119 q 560 19 625 37 q 392 0 495 0 l 102 0 l 102 1010 l 370 1010 q 532 1003 478 1010 q 635 969 586 996 q 715 893 690 940 q 740 782 740 846 q 702 654 740 711 q 598 566 665 598 l 598 561 q 738 472 688 536 q 787 310 787 407 m 600 763 q 588 826 600 800 q 549 869 576 853 q 476 891 516 887 q 366 895 436 895 l 237 895 l 237 600 l 389 600 q 482 606 452 600 q 544 633 512 612 q 587 684 574 652 q 600 763 600 716 m 648 304 q 631 398 648 361 q 566 461 615 435 q 496 483 534 478 q 389 488 458 488 l 237 488 l 237 115 l 346 115 q 485 123 434 115 q 574 157 536 131 q 630 217 612 184 q 648 304 648 251 z "},"Δ":{"ha":860,"x_min":-7,"x_max":867,"o":"m 867 0 l -7 0 l 347 1010 l 513 1010 l 867 0 m 685 117 l 427 876 l 169 117 l 685 117 z "},"Ε":{"ha":779,"x_min":102,"x_max":734,"o":"m 102 0 l 102 1010 l 734 1010 l 734 890 l 237 890 l 237 614 l 700 614 l 700 494 l 237 494 l 237 119 l 734 119 l 734 0 l 102 0 z "},"Ζ":{"ha":777,"x_min":41,"x_max":746,"o":"m 746 0 l 41 0 l 41 125 l 581 890 l 65 890 l 65 1010 l 732 1010 l 732 888 l 186 119 l 746 119 l 746 0 z "},"Η":{"ha":938,"x_min":102,"x_max":836,"o":"m 836 0 l 701 0 l 701 494 l 237 494 l 237 0 l 102 0 l 102 1010 l 237 1010 l 237 614 l 701 614 l 701 1010 l 836 1010 l 836 0 z "},"Ι":{"ha":518,"x_min":63,"x_max":455,"o":"m 455 0 l 63 0 l 63 103 l 192 103 l 192 907 l 63 907 l 63 1010 l 455 1010 l 455 907 l 326 907 l 326 103 l 455 103 l 455 0 z "},"Κ":{"ha":817,"x_min":102,"x_max":838,"o":"m 838 0 l 664 0 l 296 470 l 237 404 l 237 0 l 102 0 l 102 1010 l 237 1010 l 237 545 l 650 1010 l 814 1010 l 396 559 l 838 0 z "},"Λ":{"ha":829,"x_min":-7,"x_max":836,"o":"m 836 0 l 692 0 l 414 838 l 130 0 l -7 0 l 345 1010 l 490 1010 l 836 0 z "},"Μ":{"ha":1070,"x_min":102,"x_max":968,"o":"m 968 0 l 833 0 l 833 870 l 570 278 l 489 278 l 228 870 l 228 0 l 102 0 l 102 1010 l 286 1010 l 538 448 l 781 1010 l 968 1010 l 968 0 z "},"Ν":{"ha":927,"x_min":102,"x_max":825,"o":"m 825 0 l 674 0 l 228 871 l 228 0 l 102 0 l 102 1010 l 293 1010 l 699 210 l 699 1010 l 825 1010 l 825 0 z "},"Ξ":{"ha":787,"x_min":45,"x_max":741,"o":"m 741 890 l 45 890 l 45 1010 l 741 1010 l 741 890 m 707 494 l 79 494 l 79 614 l 707 614 l 707 494 m 741 0 l 45 0 l 45 119 l 741 119 l 741 0 z "},"Ο":{"ha":983,"x_min":45,"x_max":938,"o":"m 817 894 q 906 729 874 827 q 938 505 938 631 q 907 283 938 382 q 817 117 876 184 q 672 13 755 46 q 491 -21 590 -21 q 307 14 389 -21 q 165 117 224 48 q 76 282 107 184 q 45 505 45 380 q 76 728 45 632 q 166 894 108 825 q 307 996 224 961 q 491 1031 389 1031 q 677 995 594 1031 q 817 894 760 959 m 798 505 q 777 682 798 605 q 715 810 755 760 q 619 889 675 863 q 492 915 562 915 q 364 889 418 915 q 267 810 309 864 q 206 681 227 759 q 184 505 184 603 q 268 200 184 306 q 492 95 351 95 q 715 200 632 95 q 798 505 798 306 z "},"Π":{"ha":938,"x_min":102,"x_max":836,"o":"m 836 0 l 701 0 l 701 890 l 237 890 l 237 0 l 102 0 l 102 1010 l 836 1010 l 836 0 z "},"Ρ":{"ha":766,"x_min":102,"x_max":740,"o":"m 740 705 q 716 581 740 640 q 652 481 693 522 q 529 403 600 429 q 351 376 458 376 l 237 376 l 237 0 l 102 0 l 102 1010 l 356 1010 q 509 995 446 1010 q 620 947 572 980 q 708 849 676 908 q 740 705 740 789 m 600 702 q 582 793 600 754 q 528 856 564 831 q 453 886 496 877 q 348 895 411 895 l 237 895 l 237 491 l 328 491 q 460 504 410 491 q 543 551 510 517 q 587 618 573 582 q 600 702 600 654 z "},"Σ":{"ha":772,"x_min":44,"x_max":758,"o":"m 758 0 l 44 0 l 44 125 l 414 534 l 58 888 l 58 1010 l 726 1010 l 726 890 l 224 890 l 572 549 l 572 532 l 196 119 l 758 119 l 758 0 z "},"Τ":{"ha":811,"x_min":-1,"x_max":812,"o":"m 338 0 l 338 890 l -1 890 l -1 1010 l 812 1010 l 812 890 l 473 890 l 473 0 l 338 0 z "},"Υ":{"ha":800,"x_min":-7,"x_max":809,"o":"m 809 1010 l 468 447 l 468 0 l 334 0 l 334 433 l -7 1010 l 142 1010 l 402 564 l 667 1010 l 809 1010 z "},"Χ":{"ha":806,"x_min":5,"x_max":801,"o":"m 801 0 l 647 0 l 401 404 l 151 0 l 5 0 l 326 505 l 15 1010 l 168 1010 l 410 613 l 654 1010 l 800 1010 l 484 512 l 801 0 z "},"Ψ":{"ha":1102,"x_min":88,"x_max":1014,"o":"m 292 399 q 374 355 326 370 q 484 336 423 340 l 484 1010 l 618 1010 l 618 336 q 728 355 679 341 q 810 399 777 370 q 862 476 844 429 q 880 595 880 524 l 880 1010 l 1014 1010 l 1014 611 q 988 433 1014 505 q 911 317 962 361 q 787 249 860 271 q 618 219 715 226 l 618 0 l 484 0 l 484 219 q 315 249 389 227 q 191 317 242 271 q 115 432 141 361 q 88 611 88 504 l 88 1010 l 222 1010 l 222 595 q 240 476 222 524 q 292 399 258 429 z "},"Ω":{"ha":975,"x_min":29,"x_max":951,"o":"m 951 0 l 572 0 l 572 262 q 654 319 614 288 q 722 388 694 350 q 768 478 752 430 q 784 606 784 526 q 766 727 784 670 q 711 825 748 784 q 619 891 675 867 q 490 915 563 915 q 361 891 416 915 q 266 825 305 867 q 211 727 230 785 q 191 606 191 668 q 209 478 191 532 q 257 387 227 425 q 328 318 288 349 q 408 262 368 288 l 408 0 l 29 0 l 29 118 l 296 118 l 296 202 q 202 271 246 231 q 124 362 158 311 q 71 475 90 414 q 52 606 52 536 q 81 775 52 700 q 168 909 111 850 q 307 998 223 966 q 490 1031 390 1031 q 672 999 591 1031 q 810 910 753 968 q 895 775 865 853 q 924 606 924 698 q 905 474 924 536 q 854 363 886 413 q 779 272 823 313 q 685 202 736 231 l 685 118 l 951 118 l 951 0 z "},"Ϊ":{"ha":518,"x_min":52,"x_max":468,"o":"m 455 0 l 63 0 l 63 103 l 192 103 l 192 907 l 63 907 l 63 1010 l 455 1010 l 455 907 l 326 907 l 326 103 l 455 103 l 455 0 m 468 1137 l 332 1137 l 332 1270 l 468 1270 l 468 1137 m 188 1137 l 52 1137 l 52 1270 l 188 1270 l 188 1137 z "},"Ϋ":{"ha":800,"x_min":-7,"x_max":809,"o":"m 809 1010 l 468 447 l 468 0 l 334 0 l 334 433 l -7 1010 l 142 1010 l 402 564 l 667 1010 l 809 1010 m 610 1137 l 474 1137 l 474 1270 l 610 1270 l 610 1137 m 330 1137 l 194 1137 l 194 1270 l 330 1270 l 330 1137 z "},"ά":{"ha":770,"x_min":40,"x_max":678,"o":"m 678 0 l 551 0 l 551 77 q 443 3 496 27 q 323 -21 389 -21 q 117 84 193 -21 q 40 373 40 189 q 65 542 40 467 q 138 673 91 617 q 239 750 180 722 q 362 779 298 779 q 461 765 419 779 q 551 726 504 752 l 553 726 l 553 758 l 678 758 l 678 0 m 551 184 l 551 621 q 465 653 503 644 q 383 662 427 662 q 225 583 278 662 q 172 376 172 504 q 215 171 172 242 q 353 100 259 100 q 455 123 404 100 q 551 184 506 146 m 458 1137 l 425 876 l 326 876 l 293 1137 l 458 1137 z "},"έ":{"ha":632,"x_min":41,"x_max":613,"o":"m 613 43 q 481 -3 544 11 q 340 -18 418 -18 q 236 -6 290 -18 q 140 31 183 5 q 68 101 96 58 q 41 208 41 144 q 77 321 41 271 q 191 396 113 370 l 191 401 q 99 462 134 416 q 65 569 65 507 q 94 668 65 628 q 165 732 123 708 q 259 765 207 755 q 359 776 312 776 q 474 765 422 776 q 584 734 526 753 l 584 595 l 576 595 q 473 648 534 630 q 350 667 412 667 q 298 663 321 667 q 248 646 274 659 q 211 613 226 635 q 195 560 195 591 q 213 496 195 519 q 260 463 230 473 q 321 452 287 453 q 386 451 355 451 l 446 451 l 446 338 l 357 338 q 287 336 319 338 q 228 321 256 333 q 186 284 202 309 q 171 219 171 259 q 188 157 171 181 q 229 119 205 132 q 284 99 252 106 q 351 92 316 92 q 488 117 417 92 q 605 184 559 141 l 613 184 l 613 43 m 434 1137 l 401 876 l 302 876 l 269 1137 l 434 1137 z "},"ή":{"ha":774,"x_min":92,"x_max":688,"o":"m 688 -279 l 560 -279 l 560 431 q 555 529 560 484 q 536 601 550 574 q 492 643 520 629 q 416 657 465 657 q 318 632 369 657 q 220 566 268 606 l 220 0 l 92 0 l 92 758 l 220 758 l 220 673 q 332 751 277 724 q 450 779 388 779 q 625 705 562 779 q 688 492 688 631 l 688 -279 m 495 1137 l 462 876 l 363 876 l 330 1137 l 495 1137 z "},"ί":{"ha":317,"x_min":77,"x_max":241,"o":"m 222 0 l 95 0 l 95 758 l 222 758 l 222 0 m 241 1137 l 208 876 l 110 876 l 77 1137 l 241 1137 z "},"ΰ":{"ha":773,"x_min":87,"x_max":686,"o":"m 686 273 q 608 52 686 125 q 386 -20 530 -20 q 165 51 244 -20 q 87 273 87 123 l 87 758 l 214 758 l 214 316 q 221 214 214 256 q 246 144 227 172 q 298 103 265 116 q 387 90 330 90 q 475 103 441 90 q 528 146 509 117 q 553 219 547 177 q 558 316 558 262 l 558 758 l 686 758 l 686 273 m 463 1137 l 429 876 l 342 876 l 309 1137 l 463 1137 m 648 884 l 518 884 l 518 1017 l 648 1017 l 648 884 m 254 884 l 124 884 l 124 1017 l 254 1017 l 254 884 z "},"β":{"ha":771,"x_min":92,"x_max":734,"o":"m 734 301 q 646 75 734 165 q 423 -14 557 -14 q 316 0 371 -14 q 220 43 261 15 l 220 -279 l 92 -279 l 92 731 q 173 969 92 882 q 401 1055 254 1055 q 509 1040 458 1055 q 598 995 561 1025 q 660 917 638 964 q 682 810 682 871 q 635 661 682 725 q 507 571 589 596 l 507 559 q 671 474 608 543 q 734 301 734 406 m 602 304 q 580 402 602 365 q 521 461 558 440 q 438 490 485 482 q 342 498 392 498 l 318 498 l 318 606 l 342 606 q 427 616 385 606 q 493 646 469 626 q 537 706 524 671 q 551 793 551 742 q 507 908 551 869 q 392 947 464 947 q 311 929 343 947 q 257 882 278 911 q 229 812 237 852 q 220 731 220 772 l 220 145 q 310 110 263 119 q 404 100 357 100 q 552 153 502 100 q 602 304 602 205 z "},"γ":{"ha":692,"x_min":4,"x_max":688,"o":"m 688 758 l 408 30 l 408 -279 l 281 -279 l 281 31 l 4 758 l 142 758 l 349 187 l 555 758 l 688 758 z "},"ζ":{"ha":543,"x_min":40,"x_max":597,"o":"m 559 51 q 587 -5 577 27 q 597 -65 597 -37 q 568 -181 597 -123 q 498 -279 538 -239 l 376 -279 l 376 -270 q 459 -174 435 -216 q 483 -89 483 -132 q 464 -24 483 -50 q 414 1 445 1 l 328 1 q 111 80 182 1 q 40 314 40 159 q 69 496 40 410 q 147 663 98 582 q 256 808 194 739 q 388 942 318 877 l 388 948 l 98 948 l 98 1055 l 577 1055 l 577 964 q 430 840 505 913 q 300 690 355 768 q 208 515 243 610 q 172 323 172 420 q 174 277 172 300 q 183 224 176 254 q 205 173 191 198 q 246 132 220 148 q 313 115 270 116 q 382 113 355 113 l 429 113 q 508 95 475 113 q 559 51 541 77 z "},"η":{"ha":774,"x_min":92,"x_max":688,"o":"m 688 -279 l 560 -279 l 560 431 q 555 529 560 484 q 536 601 550 574 q 492 643 520 629 q 416 657 465 657 q 318 632 369 657 q 220 566 268 606 l 220 0 l 92 0 l 92 758 l 220 758 l 220 673 q 332 751 277 724 q 450 779 388 779 q 625 705 562 779 q 688 492 688 631 l 688 -279 z "},"θ":{"ha":770,"x_min":60,"x_max":711,"o":"m 659 870 q 701 696 692 790 q 711 515 711 602 q 700 335 711 436 q 658 161 689 234 q 561 30 623 80 q 385 -21 499 -21 q 211 31 275 -21 q 112 163 146 83 q 69 341 78 244 q 60 521 60 439 q 69 701 60 610 q 113 873 79 791 q 212 1003 146 951 q 385 1055 278 1055 q 561 1003 496 1055 q 659 870 626 950 m 583 582 q 571 726 582 644 q 530 861 559 809 q 469 927 506 907 q 385 947 433 947 q 300 927 334 947 q 240 861 266 907 q 199 720 209 804 q 187 582 189 636 l 583 582 m 583 473 l 187 473 q 198 321 187 410 q 239 176 210 231 q 299 109 263 131 q 385 87 335 87 q 473 110 435 87 q 533 179 511 133 q 572 321 561 233 q 583 473 583 410 z "},"ι":{"ha":317,"x_min":95,"x_max":222,"o":"m 222 0 l 95 0 l 95 758 l 222 758 l 222 0 z "},"κ":{"ha":692,"x_min":92,"x_max":702,"o":"m 702 0 l 542 0 l 273 362 l 220 303 l 220 0 l 92 0 l 92 758 l 220 758 l 220 423 l 431 674 q 510 739 467 718 q 594 759 552 759 q 632 758 612 759 q 656 758 652 758 l 656 646 l 649 646 q 628 648 639 648 q 612 648 617 648 q 599 647 608 648 q 574 642 589 646 q 542 626 559 637 q 513 601 526 614 l 370 434 l 702 0 z "},"λ":{"ha":692,"x_min":3,"x_max":688,"o":"m 688 0 l 551 0 l 350 562 l 136 0 l 3 0 l 287 715 l 151 1055 l 290 1055 l 688 0 z "},"μ":{"ha":789,"x_min":92,"x_max":696,"o":"m 696 0 l 580 0 l 580 79 l 576 79 q 494 12 535 36 q 392 -12 453 -12 q 294 12 330 -12 q 220 78 258 36 l 220 -279 l 92 -279 l 92 758 l 220 758 l 220 186 q 291 132 248 153 q 392 111 334 111 q 495 131 453 111 q 569 186 536 151 l 569 758 l 696 758 l 696 0 z "},"ν":{"ha":692,"x_min":4,"x_max":688,"o":"m 688 758 l 402 0 l 288 0 l 4 758 l 142 758 l 349 173 l 555 758 l 688 758 z "},"ξ":{"ha":602,"x_min":37,"x_max":634,"o":"m 634 -65 q 604 -182 634 -124 q 535 -279 574 -240 l 414 -279 l 414 -270 q 455 -229 434 -252 q 490 -186 476 -207 q 513 -136 507 -159 q 520 -89 520 -113 q 502 -25 520 -52 q 454 1 484 1 l 371 1 q 305 4 337 1 q 239 15 273 6 q 179 37 208 23 q 123 77 150 52 q 59 169 81 118 q 37 279 37 219 q 93 450 37 380 q 264 551 149 520 l 264 558 q 195 585 226 567 q 141 629 164 604 q 104 688 118 654 q 91 760 91 722 q 99 817 91 791 q 123 868 106 842 q 157 909 136 889 q 204 947 178 928 l 204 951 l 58 951 l 58 1055 l 581 1055 l 581 948 l 429 948 q 277 899 332 948 q 222 769 222 850 q 242 682 222 715 q 294 631 263 648 q 362 608 323 615 q 448 601 400 601 l 546 601 l 546 489 l 369 489 q 229 435 289 489 q 170 298 170 380 q 194 189 170 227 q 258 135 219 151 q 348 116 298 118 q 454 113 398 113 l 464 113 q 587 63 541 113 q 634 -65 634 13 z "},"ο":{"ha":754,"x_min":39,"x_max":715,"o":"m 715 378 q 623 83 715 187 q 378 -21 531 -21 q 129 86 220 -21 q 39 378 39 194 q 132 673 39 568 q 378 779 225 779 q 623 674 531 779 q 715 378 715 569 m 584 378 q 530 597 584 526 q 378 669 477 669 q 224 597 278 669 q 170 378 170 526 q 224 162 170 236 q 378 89 278 89 q 530 161 476 89 q 584 378 584 233 z "},"ρ":{"ha":766,"x_min":85,"x_max":726,"o":"m 657 662 q 711 538 695 608 q 726 391 726 469 q 706 243 726 317 q 646 113 686 169 q 547 20 604 54 q 404 -15 489 -15 q 312 -6 361 -15 q 213 36 262 3 l 213 -279 l 85 -279 l 85 437 q 172 688 85 597 q 402 779 258 779 q 558 746 496 779 q 657 662 621 714 m 549 190 q 583 277 572 229 q 594 383 594 326 q 586 484 594 431 q 558 576 578 536 q 499 644 536 618 q 401 669 461 669 q 257 605 301 669 q 213 418 213 541 l 213 140 q 298 108 262 116 q 381 100 334 100 q 484 125 441 100 q 549 190 526 151 z "},"ς":{"ha":597,"x_min":39,"x_max":623,"o":"m 623 -65 q 593 -182 623 -124 q 524 -279 563 -240 l 402 -279 l 402 -270 q 484 -178 458 -220 q 509 -89 509 -136 q 490 -26 509 -53 q 442 1 471 1 l 389 1 q 251 22 315 1 q 140 87 186 43 q 66 203 93 132 q 39 372 39 273 q 138 664 39 553 q 404 775 237 775 q 512 762 460 775 q 603 732 564 749 l 603 589 l 595 589 q 492 646 543 628 q 395 665 441 665 q 234 588 296 665 q 172 372 172 512 q 189 250 172 300 q 237 170 207 200 q 310 126 269 139 q 396 113 351 113 l 459 113 q 577 61 532 113 q 623 -65 623 9 z "},"υ":{"ha":773,"x_min":87,"x_max":686,"o":"m 686 273 q 608 52 686 125 q 386 -20 530 -20 q 165 51 244 -20 q 87 273 87 123 l 87 758 l 214 758 l 214 316 q 221 214 214 256 q 246 144 227 172 q 298 103 265 116 q 387 90 330 90 q 475 103 441 90 q 528 146 509 117 q 553 219 547 177 q 558 316 558 262 l 558 758 l 686 758 l 686 273 z "},"χ":{"ha":690,"x_min":-3,"x_max":694,"o":"m 694 -279 l 550 -279 l 343 136 l 133 -279 l -3 -279 l 271 240 l 3 758 l 146 758 l 348 351 l 553 758 l 690 758 l 421 248 l 694 -279 z "},"ψ":{"ha":992,"x_min":86,"x_max":906,"o":"m 906 299 q 880 165 906 222 q 808 75 854 109 q 699 20 760 38 q 559 -1 637 2 l 559 -279 l 433 -279 l 433 -1 q 295 20 357 3 q 184 75 232 37 q 112 166 138 111 q 86 299 86 221 l 86 758 l 214 758 l 214 336 q 231 217 214 261 q 279 148 248 172 q 348 115 309 124 q 433 103 387 106 l 433 758 l 559 758 l 559 103 q 644 114 606 106 q 713 148 683 122 q 762 219 746 174 q 779 336 779 264 l 779 758 l 906 758 l 906 299 z "},"ω":{"ha":1006,"x_min":43,"x_max":963,"o":"m 963 340 q 947 210 963 279 q 902 94 932 140 q 821 11 869 42 q 696 -20 772 -20 q 583 13 634 -20 q 507 92 531 46 l 499 92 q 422 12 473 45 q 310 -20 371 -20 q 188 11 239 -20 q 104 94 136 42 q 59 206 74 143 q 43 340 43 269 q 84 560 43 463 q 206 758 125 657 l 357 758 l 357 746 q 222 568 270 668 q 174 340 174 469 q 180 257 174 300 q 201 176 186 214 q 245 114 217 139 q 317 89 274 89 q 401 115 372 89 q 440 170 431 140 l 440 566 l 566 566 l 566 170 q 581 143 571 160 q 602 117 591 127 q 636 96 618 104 q 689 89 654 89 q 761 114 732 89 q 805 176 790 139 q 826 254 820 212 q 833 340 833 296 q 784 570 833 469 q 649 746 735 671 l 649 758 l 800 758 q 922 564 881 659 q 963 340 963 469 z "},"ϊ":{"ha":317,"x_min":-26,"x_max":343,"o":"m 222 0 l 95 0 l 95 758 l 222 758 l 222 0 m 343 884 l 215 884 l 215 1017 l 343 1017 l 343 884 m 102 884 l -26 884 l -26 1017 l 102 1017 l 102 884 z "},"ϋ":{"ha":773,"x_min":87,"x_max":686,"o":"m 686 273 q 608 52 686 125 q 386 -20 530 -20 q 165 51 244 -20 q 87 273 87 123 l 87 758 l 214 758 l 214 316 q 221 214 214 256 q 246 144 227 172 q 298 103 265 116 q 387 90 330 90 q 475 103 441 90 q 528 146 509 117 q 553 219 547 177 q 558 316 558 262 l 558 758 l 686 758 l 686 273 m 594 884 l 458 884 l 458 1017 l 594 1017 l 594 884 m 314 884 l 178 884 l 178 1017 l 314 1017 l 314 884 z "},"ό":{"ha":754,"x_min":39,"x_max":715,"o":"m 715 378 q 623 83 715 187 q 378 -21 531 -21 q 129 86 220 -21 q 39 378 39 194 q 132 673 39 568 q 378 779 225 779 q 623 674 531 779 q 715 378 715 569 m 584 378 q 530 597 584 526 q 378 669 477 669 q 224 597 278 669 q 170 378 170 526 q 224 162 170 236 q 378 89 278 89 q 530 161 476 89 q 584 378 584 233 m 460 1137 l 427 876 l 329 876 l 296 1137 l 460 1137 z "},"ύ":{"ha":773,"x_min":87,"x_max":686,"o":"m 686 273 q 608 52 686 125 q 386 -20 530 -20 q 165 51 244 -20 q 87 273 87 123 l 87 758 l 214 758 l 214 316 q 221 214 214 256 q 246 144 227 172 q 298 103 265 116 q 387 90 330 90 q 475 103 441 90 q 528 146 509 117 q 553 219 547 177 q 558 316 558 262 l 558 758 l 686 758 l 686 273 m 469 1137 l 435 876 l 337 876 l 304 1137 l 469 1137 z "},"ώ":{"ha":1006,"x_min":43,"x_max":963,"o":"m 963 340 q 947 210 963 279 q 902 94 932 140 q 821 11 869 42 q 696 -20 772 -20 q 583 13 634 -20 q 507 92 531 46 l 499 92 q 422 12 473 45 q 310 -20 371 -20 q 188 11 239 -20 q 104 94 136 42 q 59 206 74 143 q 43 340 43 269 q 84 560 43 463 q 206 758 125 657 l 357 758 l 357 746 q 222 568 270 668 q 174 340 174 469 q 180 257 174 300 q 201 176 186 214 q 245 114 217 139 q 317 89 274 89 q 401 115 372 89 q 440 170 431 140 l 440 566 l 566 566 l 566 170 q 581 143 571 160 q 602 117 591 127 q 636 96 618 104 q 689 89 654 89 q 761 114 732 89 q 805 176 790 139 q 826 254 820 212 q 833 340 833 296 q 784 570 833 469 q 649 746 735 671 l 649 758 l 800 758 q 922 564 881 659 q 963 340 963 469 m 585 1137 l 552 876 l 454 876 l 420 1137 l 585 1137 z "},"Ё":{"ha":779,"x_min":102,"x_max":734,"o":"m 102 0 l 102 1010 l 734 1010 l 734 890 l 237 890 l 237 614 l 700 614 l 700 494 l 237 494 l 237 119 l 734 119 l 734 0 l 102 0 m 655 1137 l 519 1137 l 519 1270 l 655 1270 l 655 1137 m 375 1137 l 239 1137 l 239 1270 l 375 1270 l 375 1137 z "},"Ђ":{"ha":998,"x_min":-1,"x_max":972,"o":"m 972 312 q 944 179 972 239 q 866 79 916 119 q 748 16 807 33 q 595 0 688 0 l 554 0 l 554 120 l 583 120 q 686 125 645 120 q 758 154 726 131 q 814 219 796 181 q 831 309 831 256 q 815 399 831 360 q 762 462 798 438 q 678 491 728 485 q 538 498 627 498 l 418 498 l 418 0 l 284 0 l 284 890 l -1 890 l -1 1010 l 758 1010 l 758 890 l 418 890 l 418 614 l 581 614 q 748 602 684 614 q 871 545 813 589 q 947 446 922 505 q 972 312 972 387 z "},"Ѓ":{"ha":705,"x_min":102,"x_max":701,"o":"m 701 890 l 237 890 l 237 0 l 102 0 l 102 1010 l 701 1010 l 701 890 m 631 1390 l 446 1136 l 345 1136 l 466 1390 l 631 1390 z "},"Є":{"ha":833,"x_min":45,"x_max":802,"o":"m 802 44 q 668 0 741 18 q 505 -18 595 -18 q 170 119 295 -18 q 45 506 45 257 q 171 888 45 747 q 504 1028 298 1028 q 670 1010 595 1028 q 802 966 746 992 l 802 815 l 792 815 q 670 886 745 859 q 508 914 595 914 q 293 836 382 914 q 187 600 205 758 l 672 600 l 672 483 l 180 483 q 207 315 181 387 q 277 194 233 243 q 383 120 323 144 q 510 96 443 96 q 669 121 594 96 q 792 191 745 147 l 802 191 l 802 44 z "},"Ѕ":{"ha":774,"x_min":52,"x_max":739,"o":"m 384 -18 q 197 4 274 -18 q 52 60 120 27 l 52 229 l 62 229 q 212 132 128 166 q 374 98 296 98 q 543 144 486 98 q 600 267 600 191 q 570 365 600 327 q 475 421 540 403 q 389 444 428 435 q 292 467 351 452 q 199 502 240 481 q 125 557 157 523 q 77 635 94 590 q 60 739 60 680 q 155 945 60 862 q 399 1028 251 1028 q 560 1011 484 1028 q 700 963 635 994 l 700 802 l 690 802 q 566 879 642 846 q 408 912 491 912 q 257 868 315 912 q 199 753 199 825 q 233 651 199 689 q 332 595 267 613 q 436 569 374 584 q 538 543 498 555 q 691 446 643 511 q 739 288 739 382 q 715 171 739 229 q 648 73 691 113 q 537 5 599 29 q 384 -18 476 -18 z "},"І":{"ha":518,"x_min":63,"x_max":455,"o":"m 455 0 l 63 0 l 63 103 l 192 103 l 192 907 l 63 907 l 63 1010 l 455 1010 l 455 907 l 326 907 l 326 103 l 455 103 l 455 0 z "},"Ї":{"ha":518,"x_min":52,"x_max":468,"o":"m 455 0 l 63 0 l 63 103 l 192 103 l 192 907 l 63 907 l 63 1010 l 455 1010 l 455 907 l 326 907 l 326 103 l 455 103 l 455 0 m 468 1137 l 332 1137 l 332 1270 l 468 1270 l 468 1137 m 188 1137 l 52 1137 l 52 1270 l 188 1270 l 188 1137 z "},"Ј":{"ha":578,"x_min":6,"x_max":483,"o":"m 483 262 q 402 58 483 130 q 184 -14 321 -14 q 97 -8 152 -14 q 6 5 43 -3 l 6 134 l 14 134 q 82 113 41 124 q 166 101 123 101 q 266 115 229 101 q 320 156 302 130 q 343 222 338 183 q 349 313 349 262 l 349 903 l 135 903 l 135 1010 l 483 1010 l 483 262 z "},"Љ":{"ha":1391,"x_min":10,"x_max":1365,"o":"m 1365 313 q 1337 180 1365 239 q 1260 83 1308 120 q 1138 19 1203 38 q 970 0 1073 0 l 684 0 l 684 890 l 364 890 q 359 741 362 814 q 353 610 355 668 q 336 374 348 467 q 305 217 324 280 q 262 117 287 155 q 208 54 237 79 q 143 12 178 26 q 62 -2 108 -2 q 33 -1 47 -2 q 10 0 18 0 l 10 130 l 20 130 q 31 129 26 130 q 45 128 36 128 q 91 136 70 128 q 127 159 112 143 q 194 320 173 204 q 224 633 216 437 q 231 809 228 700 q 237 1010 235 918 l 819 1010 l 819 614 l 974 614 q 1142 602 1077 614 q 1265 545 1207 590 q 1341 446 1316 505 q 1365 313 1365 387 m 1225 310 q 1208 399 1225 361 q 1156 462 1192 438 q 1069 492 1118 487 q 932 498 1021 498 l 819 498 l 819 115 l 928 115 q 1067 123 1019 115 q 1152 157 1116 132 q 1207 219 1190 184 q 1225 310 1225 255 z "},"Њ":{"ha":1367,"x_min":102,"x_max":1341,"o":"m 1341 313 q 1312 180 1341 239 q 1236 83 1284 120 q 1114 19 1179 38 q 945 0 1048 0 l 667 0 l 667 498 l 237 498 l 237 0 l 102 0 l 102 1010 l 237 1010 l 237 614 l 667 614 l 667 1010 l 801 1010 l 801 614 l 949 614 q 1118 602 1053 614 q 1240 545 1183 590 q 1316 446 1292 505 q 1341 313 1341 387 m 1200 310 q 1184 399 1200 361 q 1131 462 1167 438 q 1045 492 1094 487 q 907 498 996 498 l 801 498 l 801 115 l 904 115 q 1043 123 994 115 q 1128 157 1091 132 q 1183 219 1166 184 q 1200 310 1200 255 z "},"Ћ":{"ha":997,"x_min":-1,"x_max":934,"o":"m 934 0 l 800 0 l 800 279 q 795 375 800 330 q 774 448 791 421 q 721 492 757 477 q 620 507 684 507 q 523 500 577 507 q 418 481 468 494 l 418 0 l 284 0 l 284 890 l -1 890 l -1 1010 l 758 1010 l 758 890 l 418 890 l 418 593 q 532 619 469 608 q 646 629 595 629 q 764 614 711 629 q 854 565 817 599 q 913 478 892 532 q 934 347 934 424 l 934 0 z "},"Ќ":{"ha":837,"x_min":102,"x_max":849,"o":"m 849 0 l 678 0 l 321 463 l 237 463 l 237 0 l 102 0 l 102 1010 l 237 1010 l 237 555 q 362 595 316 557 q 438 702 409 632 q 460 760 450 732 q 476 806 470 787 q 580 966 517 922 q 755 1010 643 1010 l 796 1010 l 796 890 l 762 890 q 646 858 680 890 q 585 736 613 825 q 523 605 557 646 q 439 531 488 563 l 849 0 m 633 1376 l 448 1122 l 347 1122 l 468 1376 l 633 1376 z "},"Ў":{"ha":799,"x_min":-1,"x_max":808,"o":"m 808 1010 l 441 159 q 390 73 418 106 q 330 24 361 41 q 268 2 298 7 q 208 -3 238 -3 q 144 -2 180 -3 q 97 0 107 -1 l 97 125 l 106 125 q 137 122 117 124 q 190 121 158 121 q 225 122 205 121 q 262 132 245 124 q 299 158 282 142 q 331 208 317 174 l 354 262 l -1 1010 l 148 1010 l 422 416 l 669 1010 l 808 1010 m 663 1312 q 598 1148 660 1211 q 412 1086 536 1086 q 225 1148 287 1086 q 161 1312 163 1211 l 281 1312 q 315 1203 283 1236 q 412 1169 348 1169 q 508 1202 476 1169 q 542 1312 541 1236 l 663 1312 z "},"Џ":{"ha":938,"x_min":102,"x_max":836,"o":"m 836 0 l 532 0 l 532 -229 l 406 -229 l 406 0 l 102 0 l 102 1010 l 237 1010 l 237 117 l 701 117 l 701 1010 l 836 1010 l 836 0 z "},"А":{"ha":833,"x_min":-7,"x_max":840,"o":"m -7 0 l 334 1010 l 499 1010 l 840 0 l 698 0 l 606 282 l 220 282 l 129 0 l -7 0 m 569 397 l 413 873 l 258 397 l 569 397 z "},"Б":{"ha":819,"x_min":102,"x_max":790,"o":"m 790 313 q 762 180 790 239 q 685 83 733 120 q 563 19 628 38 q 395 0 498 0 l 102 0 l 102 1010 l 718 1010 l 718 890 l 237 890 l 237 614 l 399 614 q 567 602 502 614 q 690 545 632 590 q 766 446 741 505 q 790 313 790 387 m 650 310 q 633 399 650 361 q 581 462 616 438 q 494 492 543 487 q 357 498 446 498 l 237 498 l 237 115 l 353 115 q 492 123 444 115 q 577 157 541 132 q 632 219 615 184 q 650 310 650 255 z "},"В":{"ha":819,"x_min":102,"x_max":787,"o":"m 787 310 q 759 177 787 235 q 682 82 730 119 q 560 19 625 37 q 392 0 495 0 l 102 0 l 102 1010 l 370 1010 q 532 1003 478 1010 q 635 969 586 996 q 715 893 690 940 q 740 782 740 846 q 702 654 740 711 q 598 566 665 598 l 598 561 q 738 472 688 536 q 787 310 787 407 m 600 763 q 588 826 600 800 q 549 869 576 853 q 476 891 516 887 q 366 895 436 895 l 237 895 l 237 600 l 389 600 q 482 606 452 600 q 544 633 512 612 q 587 684 574 652 q 600 763 600 716 m 648 304 q 631 398 648 361 q 566 461 615 435 q 496 483 534 478 q 389 488 458 488 l 237 488 l 237 115 l 346 115 q 485 123 434 115 q 574 157 536 131 q 630 217 612 184 q 648 304 648 251 z "},"Г":{"ha":705,"x_min":102,"x_max":701,"o":"m 701 890 l 237 890 l 237 0 l 102 0 l 102 1010 l 701 1010 l 701 890 z "},"Д":{"ha":949,"x_min":12,"x_max":922,"o":"m 922 -229 l 795 -229 l 795 3 l 140 3 l 140 -229 l 12 -229 l 12 119 l 67 119 q 209 498 155 264 q 263 1010 263 732 l 827 1010 l 827 119 l 922 119 l 922 -229 m 692 119 l 692 893 l 389 893 q 328 449 380 648 q 197 119 277 250 l 692 119 z "},"Е":{"ha":779,"x_min":102,"x_max":734,"o":"m 102 0 l 102 1010 l 734 1010 l 734 890 l 237 890 l 237 614 l 700 614 l 700 494 l 237 494 l 237 119 l 734 119 l 734 0 l 102 0 z "},"Ж":{"ha":1242,"x_min":-9,"x_max":1251,"o":"m 1251 0 l 1085 0 l 749 465 l 684 465 l 684 0 l 551 0 l 551 465 l 484 465 l 148 0 l -9 0 l 372 521 q 295 593 328 549 q 231 736 262 636 q 173 857 203 823 q 55 890 142 890 l 28 890 l 28 1010 l 62 1010 q 238 966 176 1010 q 341 806 300 923 q 361 748 351 777 q 379 702 372 720 q 451 594 409 629 q 551 554 492 559 l 551 1010 l 684 1010 l 684 553 q 788 592 746 559 q 862 702 831 626 q 884 760 874 732 q 900 806 894 787 q 1004 966 941 922 q 1179 1010 1067 1010 l 1213 1010 l 1213 890 l 1186 890 q 1068 856 1099 890 q 1009 736 1036 823 q 944 601 981 646 q 865 529 907 556 l 1251 0 z "},"З":{"ha":740,"x_min":21,"x_max":703,"o":"m 625 487 q 681 414 659 458 q 703 301 703 370 q 675 175 703 233 q 601 74 648 117 q 480 5 552 29 q 320 -18 408 -18 q 147 0 226 -18 q 21 39 68 19 l 21 190 l 31 190 q 162 126 85 154 q 318 99 240 99 q 417 112 368 99 q 499 155 466 125 q 548 220 532 185 q 564 308 564 255 q 545 395 564 359 q 492 452 526 430 q 413 483 459 473 q 313 492 366 492 l 208 492 l 208 604 l 300 604 q 472 647 407 604 q 537 772 537 690 q 521 836 537 809 q 476 880 505 863 q 409 904 444 898 q 333 911 374 911 q 248 901 290 911 q 168 877 205 891 q 106 847 133 863 q 63 821 80 831 l 54 821 l 54 970 q 180 1010 100 991 q 336 1028 259 1028 q 471 1015 414 1028 q 574 972 527 1002 q 650 893 625 939 q 675 786 675 848 q 621 643 675 704 q 478 563 566 582 l 478 553 q 552 531 512 547 q 625 487 591 515 z "},"И":{"ha":930,"x_min":102,"x_max":828,"o":"m 828 0 l 694 0 l 694 802 l 238 0 l 102 0 l 102 1010 l 236 1010 l 236 221 l 686 1010 l 828 1010 l 828 0 z "},"Й":{"ha":930,"x_min":102,"x_max":828,"o":"m 828 0 l 694 0 l 694 802 l 238 0 l 102 0 l 102 1010 l 236 1010 l 236 221 l 686 1010 l 828 1010 l 828 0 m 729 1312 q 665 1148 726 1211 q 478 1086 603 1086 q 292 1148 353 1086 q 227 1312 230 1211 l 348 1312 q 382 1203 349 1236 q 478 1169 414 1169 q 575 1202 543 1169 q 608 1312 607 1236 l 729 1312 z "},"К":{"ha":837,"x_min":102,"x_max":849,"o":"m 849 0 l 678 0 l 321 463 l 237 463 l 237 0 l 102 0 l 102 1010 l 237 1010 l 237 555 q 362 595 316 557 q 438 702 409 632 q 460 760 450 732 q 476 806 470 787 q 580 966 517 922 q 755 1010 643 1010 l 796 1010 l 796 890 l 762 890 q 646 858 680 890 q 585 736 613 825 q 523 605 557 646 q 439 531 488 563 l 849 0 z "},"Л":{"ha":941,"x_min":10,"x_max":839,"o":"m 839 0 l 705 0 l 705 890 l 364 890 q 359 741 362 814 q 353 610 355 668 q 336 374 348 467 q 305 217 324 280 q 262 117 287 155 q 208 54 237 79 q 143 12 178 26 q 62 -2 108 -2 q 33 -1 47 -2 q 10 0 18 0 l 10 130 l 20 130 q 31 129 26 130 q 45 128 36 128 q 91 136 70 128 q 127 159 112 143 q 194 320 173 204 q 224 633 216 437 q 231 809 228 700 q 237 1010 235 918 l 839 1010 l 839 0 z "},"М":{"ha":1070,"x_min":102,"x_max":968,"o":"m 968 0 l 833 0 l 833 870 l 570 278 l 489 278 l 228 870 l 228 0 l 102 0 l 102 1010 l 286 1010 l 538 448 l 781 1010 l 968 1010 l 968 0 z "},"Н":{"ha":938,"x_min":102,"x_max":836,"o":"m 836 0 l 701 0 l 701 494 l 237 494 l 237 0 l 102 0 l 102 1010 l 237 1010 l 237 614 l 701 614 l 701 1010 l 836 1010 l 836 0 z "},"О":{"ha":983,"x_min":45,"x_max":938,"o":"m 817 894 q 906 729 874 827 q 938 505 938 631 q 907 283 938 382 q 817 117 876 184 q 672 13 755 46 q 491 -21 590 -21 q 307 14 389 -21 q 165 117 224 48 q 76 282 107 184 q 45 505 45 380 q 76 728 45 632 q 166 894 108 825 q 307 996 224 961 q 491 1031 389 1031 q 677 995 594 1031 q 817 894 760 959 m 798 505 q 777 682 798 605 q 715 810 755 760 q 619 889 675 863 q 492 915 562 915 q 364 889 418 915 q 267 810 309 864 q 206 681 227 759 q 184 505 184 603 q 268 200 184 306 q 492 95 351 95 q 715 200 632 95 q 798 505 798 306 z "},"П":{"ha":938,"x_min":102,"x_max":836,"o":"m 836 0 l 701 0 l 701 890 l 237 890 l 237 0 l 102 0 l 102 1010 l 836 1010 l 836 0 z "},"Р":{"ha":766,"x_min":102,"x_max":740,"o":"m 740 705 q 716 581 740 640 q 652 481 693 522 q 529 403 600 429 q 351 376 458 376 l 237 376 l 237 0 l 102 0 l 102 1010 l 356 1010 q 509 995 446 1010 q 620 947 572 980 q 708 849 676 908 q 740 705 740 789 m 600 702 q 582 793 600 754 q 528 856 564 831 q 453 886 496 877 q 348 895 411 895 l 237 895 l 237 491 l 328 491 q 460 504 410 491 q 543 551 510 517 q 587 618 573 582 q 600 702 600 654 z "},"С":{"ha":834,"x_min":45,"x_max":811,"o":"m 497 -18 q 315 15 398 -18 q 172 114 232 48 q 78 278 111 180 q 45 504 45 376 q 77 725 45 631 q 171 889 109 819 q 314 992 231 957 q 499 1028 397 1028 q 594 1021 550 1028 q 677 1002 639 1013 q 744 976 709 991 q 811 943 778 961 l 811 781 l 800 781 q 755 820 783 797 q 687 865 727 843 q 603 900 648 886 q 498 913 557 913 q 376 887 433 913 q 275 809 318 861 q 208 680 232 758 q 184 504 184 602 q 210 325 184 400 q 278 199 235 250 q 377 123 320 149 q 498 98 434 98 q 606 112 556 98 q 694 148 655 126 q 758 191 731 169 q 801 229 785 213 l 811 229 l 811 68 q 748 39 778 53 q 677 11 719 24 q 595 -11 633 -3 q 497 -18 557 -18 z "}}}
